<svg width="37" height="33" viewBox="0 0 37 33" fill="none" xmlns="http://www.w3.org/2000/svg">
<g clip-path="url(#clip0_2249_209)">
<path d="M2.79231 28.2827L4.42115 31.0962C4.75961 31.6885 5.24615 32.1539 5.81731 32.4923L11.6346 22.4231H0C0 23.0789 0.169231 23.7346 0.507692 24.3269L2.79231 28.2827Z" fill="#0066DA"/>
<path d="M18.4673 10.5769L12.65 0.50769C12.0788 0.846152 11.5923 1.31154 11.2538 1.90384L0.507692 20.5192C0.175456 21.0988 0.000442354 21.7551 0 22.4231H11.6346L18.4673 10.5769Z" fill="#00AC47"/>
<path d="M31.1173 32.4923C31.6885 32.1539 32.175 31.6885 32.5135 31.0962L33.1904 29.9327L36.427 24.3269C36.7654 23.7346 36.9347 23.0789 36.9347 22.4231H25.2992L27.775 27.2885L31.1173 32.4923Z" fill="#EA4335"/>
<path d="M18.4673 10.5769L24.2846 0.507692C23.7135 0.169231 23.0577 0 22.3808 0H14.5539C13.8769 0 13.2212 0.190385 12.65 0.507692L18.4673 10.5769Z" fill="#00832D"/>
<path d="M25.3 22.4231H11.6346L5.81726 32.4923C6.38841 32.8308 7.04418 33 7.72111 33H29.2134C29.8903 33 30.5461 32.8096 31.1173 32.4923L25.3 22.4231Z" fill="#2684FC"/>
<path d="M31.0538 11.2115L25.6807 1.90384C25.3423 1.31154 24.8557 0.846152 24.2846 0.50769L18.4673 10.5769L25.3 22.4231H36.9134C36.9134 21.7673 36.7442 21.1115 36.4057 20.5192L31.0538 11.2115Z" fill="#FFBA00"/>
</g>
<defs>
<clipPath id="clip0_2249_209">
<rect width="36.9346" height="33" fill="white"/>
</clipPath>
</defs>
</svg>
