<svg width="35" height="35" viewBox="0 0 35 35" fill="none" xmlns="http://www.w3.org/2000/svg">
<path d="M32.2587 14.3253C33.0528 11.942 32.7793 9.33114 31.5094 7.16328C29.5997 3.83821 25.7606 2.12755 22.0111 2.93257C20.3431 1.05347 17.9467 -0.0151505 15.4343 0.000162341C11.6017 -0.00858785 8.20113 2.45896 7.02205 6.10561C4.55996 6.60984 2.43476 8.15096 1.19114 10.3352C-0.732806 13.6515 -0.294203 17.8319 2.27616 20.6758C1.48208 23.0591 1.75553 25.6699 3.0254 27.8378C4.93513 31.1629 8.77427 32.8735 12.5237 32.0685C14.1906 33.9476 16.5882 35.0162 19.1006 34.9998C22.9354 35.0097 26.337 32.5399 27.5161 28.89C29.9782 28.3858 32.1034 26.8446 33.347 24.6604C35.2687 21.3441 34.829 17.1669 32.2598 14.3231L32.2587 14.3253ZM19.1028 32.7127C17.5682 32.7149 16.0818 32.1779 14.9038 31.1946C14.9574 31.1661 15.0503 31.1147 15.1105 31.0775L22.08 27.0525C22.4366 26.8501 22.6554 26.4706 22.6532 26.0604V16.235L25.5987 17.9359C25.6304 17.9512 25.6512 17.9818 25.6556 18.0168V26.1534C25.6512 29.7716 22.721 32.7051 19.1028 32.7127ZM5.0106 26.6937C4.24167 25.3659 3.96495 23.8094 4.22855 22.2989C4.27996 22.3295 4.37074 22.3853 4.43527 22.4225L11.4048 26.4476C11.7581 26.6543 12.1956 26.6543 12.55 26.4476L21.0584 21.5344V24.936C21.0606 24.971 21.0442 25.0049 21.0169 25.0268L13.9719 29.0945C10.8338 30.9014 6.82626 29.8274 5.01169 26.6937H5.0106ZM3.17634 11.4804C3.94198 10.1504 5.1506 9.13317 6.59001 8.60488C6.59001 8.66504 6.58673 8.77113 6.58673 8.84551V16.8968C6.58454 17.3058 6.80329 17.6854 7.15877 17.8877L15.6672 22.7999L12.7217 24.5007C12.6922 24.5204 12.655 24.5237 12.6222 24.5094L5.57608 20.4384C2.44461 18.6249 1.37052 14.6184 3.17525 11.4815L3.17634 11.4804ZM27.3772 17.1122L18.8687 12.199L21.8142 10.4993C21.8438 10.4796 21.881 10.4763 21.9138 10.4905L28.9599 14.5583C32.0968 16.3707 33.172 20.3837 31.3596 23.5207C30.5929 24.8485 29.3853 25.8657 27.947 26.3951V18.1032C27.9503 17.6941 27.7326 17.3157 27.3783 17.1122H27.3772ZM30.3085 12.7C30.2571 12.6682 30.1663 12.6136 30.1018 12.5764L23.1322 8.55128C22.7789 8.34456 22.3414 8.34456 21.9871 8.55128L13.4786 13.4645V10.0629C13.4764 10.0279 13.4928 9.99397 13.5202 9.97209L20.5651 5.90763C23.7032 4.09744 27.7151 5.1748 29.5242 8.31393C30.2888 9.63959 30.5655 11.1917 30.3063 12.7H30.3085ZM11.8773 18.7628L8.93068 17.0619C8.89896 17.0466 8.87818 17.016 8.87381 16.981V8.84441C8.87599 5.22184 11.815 2.28615 15.4375 2.28834C16.9699 2.28834 18.4531 2.82647 19.6311 3.80649C19.5775 3.83493 19.4856 3.88634 19.4243 3.92353L12.4548 7.94861C12.0982 8.15096 11.8795 8.52941 11.8817 8.93957L11.8773 18.7606V18.7628ZM13.4775 15.313L17.2674 13.1243L21.0573 15.3119V19.6881L17.2674 21.8756L13.4775 19.6881V15.313Z" fill="white"/>
</svg>
