<svg width="12" height="15" viewBox="0 0 12 15" fill="none" xmlns="http://www.w3.org/2000/svg">
<path d="M6.8252 0.804199C6.8252 0.389986 6.48941 0.0541992 6.0752 0.0541992C5.66098 0.0541992 5.3252 0.389986 5.3252 0.804199L6.8252 0.804199ZM5.54486 14.7261C5.83776 15.019 6.31263 15.019 6.60552 14.7261L11.3785 9.95316C11.6714 9.66027 11.6714 9.18539 11.3785 8.8925C11.0856 8.59961 10.6107 8.59961 10.3178 8.8925L6.07519 13.1351L1.83255 8.8925C1.53966 8.59961 1.06479 8.59961 0.771894 8.8925C0.479001 9.18539 0.479001 9.66027 0.771894 9.95316L5.54486 14.7261ZM5.3252 0.804199L5.32519 14.1958L6.82519 14.1958L6.8252 0.804199L5.3252 0.804199Z" fill="white"/>
</svg>
