<svg width="3" height="10" viewBox="0 0 3 10" fill="none" xmlns="http://www.w3.org/2000/svg">
<path d="M1.87481 0.534902V4.5389L1.70681 6.8629H0.866813L0.698813 4.5389V0.534902H1.87481ZM1.28681 8.0949C1.55748 8.0949 1.77681 8.1789 1.94481 8.3469C2.11281 8.5149 2.19681 8.73424 2.19681 9.0049C2.19681 9.27557 2.11281 9.4949 1.94481 9.6629C1.77681 9.8309 1.55748 9.9149 1.28681 9.9149C1.01615 9.9149 0.796813 9.8309 0.628813 9.6629C0.460813 9.4949 0.376813 9.27557 0.376813 9.0049C0.376813 8.73424 0.460813 8.5149 0.628813 8.3469C0.796813 8.1789 1.01615 8.0949 1.28681 8.0949Z" fill="white"/>
</svg>
