<svg width="21" height="22" viewBox="0 0 21 22" fill="none" xmlns="http://www.w3.org/2000/svg">
<path fill-rule="evenodd" clip-rule="evenodd" d="M5.73663 2.1092C6.5726 2.04264 7.36627 1.71404 8.00463 1.1702C8.72571 0.555595 9.64217 0.218018 10.5896 0.218018C11.5371 0.218018 12.4536 0.555595 13.1746 1.1702C13.8129 1.71435 14.6066 2.04329 15.4426 2.1102C16.387 2.1854 17.2737 2.59461 17.9437 3.26442C18.6137 3.93423 19.0232 4.82082 19.0986 5.7652C19.1646 6.6012 19.4936 7.3952 20.0386 8.0332C20.653 8.75436 20.9905 9.67079 20.9905 10.6182C20.9905 11.5656 20.653 12.482 20.0386 13.2032C19.4944 13.8414 19.1655 14.6351 19.0986 15.4712C19.0232 16.4156 18.6137 17.3022 17.9437 17.972C17.2737 18.6418 16.387 19.051 15.4426 19.1262C14.6066 19.1931 13.8129 19.522 13.1746 20.0662C12.4536 20.6808 11.5371 21.0184 10.5896 21.0184C9.64217 21.0184 8.72571 20.6808 8.00463 20.0662C7.3664 19.522 6.57272 19.193 5.73663 19.1262C4.79242 19.0508 3.90595 18.6415 3.23616 17.9717C2.56637 17.3019 2.15706 16.4154 2.08163 15.4712C2.01479 14.6351 1.68584 13.8414 1.14163 13.2032C0.527031 12.4821 0.189453 11.5657 0.189453 10.6182C0.189453 9.67074 0.527031 8.75427 1.14163 8.0332C1.68584 7.39496 2.01479 6.60128 2.08163 5.7652C2.15684 4.8208 2.56604 3.93409 3.23585 3.2641C3.90566 2.59411 4.79226 2.18466 5.73663 2.1092ZM15.4086 8.9372C15.5339 8.81754 15.6339 8.67406 15.7029 8.51519C15.772 8.35632 15.8085 8.18526 15.8105 8.01206C15.8125 7.83886 15.7798 7.66701 15.7144 7.50661C15.6491 7.34621 15.5523 7.20049 15.4298 7.07801C15.3073 6.95553 15.1616 6.85876 15.0012 6.79339C14.8408 6.72801 14.669 6.69536 14.4958 6.69733C14.3226 6.6993 14.1515 6.73587 13.9926 6.80488C13.8338 6.87389 13.6903 6.97396 13.5706 7.0992L9.29063 11.3792L7.60863 9.6992C7.36305 9.46457 7.0354 9.33536 6.69577 9.33923C6.35614 9.34311 6.03152 9.47974 5.79135 9.71991C5.55118 9.96008 5.41454 10.2847 5.41067 10.6243C5.4068 10.964 5.536 11.2916 5.77063 11.5372L8.37063 14.1372C8.61441 14.3808 8.94497 14.5177 9.28963 14.5177C9.6343 14.5177 9.96486 14.3808 10.2086 14.1372L15.4086 8.9372Z" fill="url(#paint0_linear_1996_2314)"/>
<defs>
<linearGradient id="paint0_linear_1996_2314" x1="1.12456" y1="14.9099" x2="29.2228" y2="12.9011" gradientUnits="userSpaceOnUse">
<stop stop-color="#6645EB"/>
<stop offset="1" stop-color="#D445EB"/>
</linearGradient>
</defs>
</svg>
