<svg width="34" height="34" viewBox="0 0 34 34" fill="none" xmlns="http://www.w3.org/2000/svg">
<mask id="mask0_5087_88" style="mask-type:alpha" maskUnits="userSpaceOnUse" x="0" y="1" width="33" height="33">
<path d="M1.01603 32.837C1.21103 33.032 1.46703 33.129 1.72303 33.129C1.97903 33.129 2.23503 33.031 2.43103 32.836L16.723 18.527L31.015 32.836C31.21 33.032 31.466 33.129 31.723 33.129C31.979 33.129 32.235 33.031 32.43 32.837C32.821 32.447 32.821 31.814 32.431 31.423L18.153 17.129L32.43 2.83603C32.82 2.44503 32.82 1.81203 32.429 1.42203C32.037 1.03103 31.405 1.03103 31.015 1.42303L16.722 15.732L2.43003 1.42303C2.03903 1.03203 1.40603 1.03203 1.01603 1.42203C0.625031 1.81203 0.625032 2.44503 1.01503 2.83603L15.291 17.129L1.01503 31.423C0.625032 31.813 0.625031 32.447 1.01603 32.837Z" fill="#231F20"/>
</mask>
<g mask="url(#mask0_5087_88)">
<rect y="1" width="34" height="33" fill="white"/>
</g>
</svg>
