<svg width="10" height="17" viewBox="0 0 10 17" fill="none" xmlns="http://www.w3.org/2000/svg">
<path d="M0.665957 6.98743C0.666193 6.72478 0.678826 6.4928 0.663358 6.26271C0.645918 6.00329 0.748171 5.90476 1.00783 5.90971C1.59599 5.92092 2.18501 5.89894 2.77267 5.91951C3.07017 5.92993 3.16835 5.79879 3.16947 5.534C3.17223 4.88263 3.17502 4.23125 3.17986 3.57989C3.19547 1.47861 4.64018 0.036414 6.73629 0.028497C7.42924 0.0258801 8.12155 0.0280226 8.81308 0.0917648C9.04729 0.113353 9.14984 0.197503 9.14632 0.440664C9.13659 1.11295 9.13484 1.78557 9.1452 2.45783C9.14916 2.71396 9.0348 2.78269 8.80135 2.77845C8.32876 2.76987 7.8557 2.77254 7.3831 2.78297C6.60394 2.80016 6.208 3.19403 6.18887 3.9807C6.17585 4.51623 6.19594 5.0526 6.18091 5.58802C6.17391 5.83731 6.26445 5.92118 6.50862 5.91742C7.2019 5.90674 7.89544 5.91204 8.58888 5.91326C9.03376 5.91404 9.02819 5.91572 8.97149 6.35001C8.8779 7.06684 8.78415 7.7839 8.70948 8.50283C8.68135 8.77357 8.58155 8.89145 8.29649 8.88342C7.72959 8.86745 7.16136 8.89393 6.59477 8.87309C6.28354 8.86163 6.17635 8.95154 6.17836 9.27846C6.19169 11.4427 6.18509 13.6072 6.18441 15.7715C6.18427 16.217 6.18317 16.2177 5.73271 16.2179C4.97623 16.2183 4.21968 16.212 3.46331 16.2208C3.23676 16.2234 3.15966 16.1619 3.16113 15.9159C3.17429 13.7096 3.16972 11.5032 3.17598 9.29687C3.17683 8.99746 3.07393 8.85984 2.75087 8.87126C2.18422 8.89129 1.6162 8.86918 1.04906 8.88044C0.772922 8.88592 0.648844 8.7988 0.660964 8.50006C0.680964 8.00709 0.666112 7.51271 0.665957 6.98743Z" fill="white"/>
</svg>
