<svg width="16" height="16" viewBox="0 0 16 16" fill="none" xmlns="http://www.w3.org/2000/svg">
<path d="M13.8831 15.8186C13.4707 15.8186 13.0958 15.8186 12.6747 15.8186C12.6747 15.6842 12.6748 15.5642 12.6747 15.4442C12.674 13.7892 12.6817 12.134 12.6666 10.4791C12.663 10.0814 12.6202 9.67619 12.5322 9.28884C12.3548 8.50843 11.9182 8.15757 11.1445 8.10437C10.2818 8.04506 9.60902 8.36684 9.37969 9.0781C9.21019 9.60383 9.13395 10.1779 9.12203 10.7327C9.08864 12.2868 9.11014 13.842 9.10998 15.3968C9.10996 15.5322 9.10997 15.6677 9.10997 15.8201C8.03581 15.8201 6.99807 15.8201 5.9334 15.8201C5.9334 12.4142 5.9334 9.00135 5.9334 5.57432C6.93894 5.57432 7.93702 5.57432 8.9709 5.57432C8.9709 6.01588 8.9709 6.44671 8.9709 6.99108C9.54089 6.09032 10.2701 5.58351 11.2018 5.39519C12.1055 5.2125 12.9996 5.27637 13.8589 5.6212C14.9592 6.06274 15.4615 6.97143 15.6808 8.06701C15.7738 8.53141 15.8363 9.01002 15.8401 9.48276C15.857 11.5763 15.8474 13.6701 15.8474 15.8186C15.2121 15.8186 14.5664 15.8186 13.8831 15.8186Z" fill="white"/>
<path d="M3.19417 5.55985C3.44199 5.55985 3.65219 5.55985 3.88081 5.55985C3.88081 8.99072 3.88081 12.3916 3.88081 15.815C2.8307 15.815 1.78654 15.815 0.725329 15.815C0.725329 12.4077 0.725329 9.0051 0.725329 5.55985C1.53867 5.55985 2.34761 5.55985 3.19417 5.55985Z" fill="white"/>
<path d="M3.57894 3.62712C2.87397 4.20423 2.13684 4.30112 1.43941 3.9242C0.746772 3.54987 0.381784 2.81848 0.480713 2.00307C0.565958 1.30046 1.10237 0.696129 1.81964 0.494624C2.59591 0.276542 3.44171 0.608602 3.8722 1.30046C4.33389 2.04246 4.23514 2.87621 3.57894 3.62712Z" fill="white"/>
</svg>
