<svg width="17" height="17" viewBox="0 0 17 17" fill="none" xmlns="http://www.w3.org/2000/svg">
<path d="M1.68844 16.1745C1.3905 16.1593 1.11941 16.2087 0.852676 16.1428C0.830706 15.9921 0.945319 15.9291 1.01532 15.8475C2.90017 13.6518 4.78399 11.4552 6.67926 9.26851C6.85291 9.06816 6.84538 8.94578 6.70153 8.73764C4.807 5.99632 2.92194 3.24847 1.03619 0.501102C0.960699 0.391121 0.86196 0.291945 0.835938 0.146641C0.920881 0.0324178 1.04544 0.0794721 1.1508 0.0791923C2.48821 0.0756407 3.8257 0.0835647 5.16301 0.0711969C5.42618 0.0687628 5.57557 0.164285 5.72018 0.377104C6.91204 2.13114 8.11568 3.87717 9.31695 5.62479C9.37538 5.7098 9.44502 5.78709 9.50149 5.85799C9.63914 5.86798 9.67995 5.76923 9.73802 5.70185C11.2793 3.91342 12.8215 2.12573 14.356 0.331387C14.5127 0.148103 14.6737 0.0585941 14.9179 0.0720298C15.2553 0.0905891 15.5945 0.0766855 15.9858 0.0766855C15.7873 0.449881 15.5325 0.683976 15.3127 0.940761C13.7232 2.79721 12.1257 4.64682 10.5308 6.49858C10.1831 6.90231 10.1887 6.8984 10.4892 7.33521C12.4374 10.1667 14.3832 12.9999 16.3286 15.8333C16.3862 15.9172 16.4646 15.9934 16.4659 16.1132C16.387 16.2081 16.2753 16.1715 16.1783 16.1717C14.82 16.1746 13.4617 16.17 12.1034 16.1779C11.8933 16.1791 11.7611 16.1144 11.6405 15.9377C10.3741 14.0829 9.09976 12.2334 7.8262 10.3835C7.74451 10.2648 7.68355 10.1272 7.5107 10.0222C7.20277 10.377 6.88994 10.7347 6.5801 11.095C5.17028 12.7342 3.75845 14.3717 2.35542 16.0168C2.16736 16.2373 1.93758 16.1511 1.68844 16.1745ZM9.65343 11.0466C10.3403 12.0318 11.0252 13.0184 11.7152 14.0014C11.9727 14.3682 12.172 14.8413 12.5254 15.0573C12.8942 15.2827 13.4207 15.114 13.8779 15.1235C14.0765 15.1277 14.285 15.1688 14.5003 15.0732C14.4296 14.9664 14.3745 14.8791 14.3153 14.7944C11.3305 10.5226 8.33062 6.26114 5.37689 1.96791C4.95826 1.35943 4.53503 1.06493 3.8083 1.17423C3.48842 1.22235 3.15528 1.18234 2.75541 1.18234C5.08123 4.50835 7.35433 7.75897 9.65343 11.0466Z" fill="white"/>
</svg>
