<svg width="20" height="14" viewBox="0 0 20 14" fill="none" xmlns="http://www.w3.org/2000/svg">
<path d="M19.3254 2.36289C19.1039 1.52969 18.4535 0.875781 17.6273 0.654297C16.1297 0.25 10.125 0.25 10.125 0.25C10.125 0.25 4.12029 0.25 2.62263 0.654297C1.79646 0.875781 1.14607 1.52969 0.924585 2.36289C0.523804 3.87109 0.523804 7.01406 0.523804 7.01406C0.523804 7.01406 0.523804 10.157 0.924585 11.6652C1.14607 12.4984 1.79646 13.1242 2.62263 13.3457C4.12029 13.75 10.125 13.75 10.125 13.75C10.125 13.75 16.1297 13.75 17.6273 13.3457C18.4535 13.1242 19.1039 12.4949 19.3254 11.6652C19.7261 10.157 19.7261 7.01406 19.7261 7.01406C19.7261 7.01406 19.7261 3.87109 19.3254 2.36289ZM8.16326 9.86875V4.15937L13.1801 7.01406L8.16326 9.86875Z" fill="white"/>
</svg>
