<svg width="66" height="67" viewBox="0 0 66 67" fill="none" xmlns="http://www.w3.org/2000/svg">
<rect x="0.689453" y="0.536133" width="64.9855" height="65.7817" rx="15" fill="white" fill-opacity="0.05"/>
<rect x="1.18945" y="1.03613" width="63.9855" height="64.7817" rx="14.5" stroke="white" stroke-opacity="0.1"/>
<mask id="mask0_2095_3569" style="mask-type:alpha" maskUnits="userSpaceOnUse" x="0" y="0" width="66" height="67">
<rect x="0.689453" y="0.536133" width="64.9855" height="65.7817" rx="15" fill="white"/>
</mask>
<g mask="url(#mask0_2095_3569)">
<g filter="url(#filter0_f_2095_3569)">
<circle cx="33.455" cy="65.5186" r="11.0409" fill="#6645EB"/>
</g>
<path d="M24.2499 19.0625C23.9148 19.0625 23.599 19.2236 23.4056 19.5008L16.1868 29.8133C15.9097 30.2129 15.9484 30.7543 16.2771 31.1088L31.7458 47.6088C31.9392 47.815 32.2099 47.9375 32.4999 47.9375C32.79 47.9375 33.0542 47.8215 33.254 47.6088L48.7228 31.1088C49.0579 30.7543 49.0966 30.2129 48.813 29.8133L41.5943 19.5008C41.4009 19.2236 41.0851 19.0625 40.7499 19.0625H24.2499ZM24.3079 21.8146L30.3536 29.375H19.0099L24.3079 21.8146ZM19.4095 31.4375H32.4999H45.5904L32.4999 45.398L19.4095 31.4375ZM45.9835 29.375H34.6398L40.6919 21.8146L45.99 29.375H45.9835ZM38.6036 21.125L32.4999 28.7562L26.3962 21.125H38.6036Z" fill="url(#paint0_linear_2095_3569)"/>
</g>
<defs>
<filter id="filter0_f_2095_3569" x="-6.08594" y="25.9777" width="79.0818" height="79.0818" filterUnits="userSpaceOnUse" color-interpolation-filters="sRGB">
<feFlood flood-opacity="0" result="BackgroundImageFix"/>
<feBlend mode="normal" in="SourceGraphic" in2="BackgroundImageFix" result="shape"/>
<feGaussianBlur stdDeviation="14.25" result="effect1_foregroundBlur_2095_3569"/>
</filter>
<linearGradient id="paint0_linear_2095_3569" x1="17.4857" y1="39.4577" x2="61.9935" y2="35.8213" gradientUnits="userSpaceOnUse">
<stop stop-color="#6645EB"/>
<stop offset="1" stop-color="#D445EB"/>
</linearGradient>
</defs>
</svg>
