<svg width="33" height="29" viewBox="0 0 33 29" fill="none" xmlns="http://www.w3.org/2000/svg">
<path d="M8.24993 0.0625C7.91477 0.0625 7.59895 0.223633 7.4056 0.500781L0.186845 10.8133C-0.0903037 11.2129 -0.0516318 11.7543 0.277079 12.1088L15.7458 28.6088C15.9392 28.815 16.2099 28.9375 16.4999 28.9375C16.79 28.9375 17.0542 28.8215 17.254 28.6088L32.7228 12.1088C33.0579 11.7543 33.0966 11.2129 32.813 10.8133L25.5943 0.500781C25.4009 0.223633 25.0851 0.0625 24.7499 0.0625H8.24993ZM8.30794 2.81465L14.3536 10.375H3.00989L8.30794 2.81465ZM3.4095 12.4375H16.4999H29.5904L16.4999 26.398L3.4095 12.4375ZM29.9835 10.375H18.6398L24.6919 2.81465L29.99 10.375H29.9835ZM22.6036 2.125L16.4999 9.75625L10.3962 2.125H22.6036Z" fill="url(#paint0_linear_5016_296)"/>
<defs>
<linearGradient id="paint0_linear_5016_296" x1="1.48572" y1="20.4577" x2="45.9935" y2="16.8213" gradientUnits="userSpaceOnUse">
<stop stop-color="#6645EB"/>
<stop offset="1" stop-color="#D445EB"/>
</linearGradient>
</defs>
</svg>
