<svg width="30" height="30" viewBox="0 0 30 30" fill="none" xmlns="http://www.w3.org/2000/svg">
<path d="M22.2428 2.45886L18.2802 6.41558L23.5835 11.7189L27.5402 7.76217C28.2817 7.02066 28.2817 5.81644 27.5402 5.07492L24.9242 2.45886C24.1826 1.71735 22.9784 1.71735 22.2369 2.45886H22.2428ZM16.4472 5.56729L20.9022 1.11227C22.3852 -0.370757 24.7877 -0.370757 26.2707 1.11227L28.8868 3.72833C30.3698 5.21136 30.3698 7.61387 28.8868 9.0969L24.4318 13.5519L22.2072 21.7204C21.7742 23.2984 20.564 24.5441 18.992 25.0187L2.66686 29.9127C1.93721 30.1322 1.1423 29.9305 0.608414 29.3907C0.0745238 28.8508 -0.1331 28.0619 0.0863881 27.3322L4.98631 11.007C5.45495 9.44096 6.7007 8.22488 8.28457 7.79183L16.4472 5.56729ZM16.6607 7.47743L8.78287 9.62486C7.83373 9.88587 7.08628 10.6096 6.80747 11.5528L2.38805 26.2704L8.92524 19.7332C8.59304 19.1696 8.39728 18.5112 8.39728 17.8052C8.39728 15.7112 10.0998 14.0087 12.1938 14.0087C14.2879 14.0087 15.9904 15.7112 15.9904 17.8052C15.9904 19.8993 14.2879 21.6018 12.1938 21.6018C11.4879 21.6018 10.8294 21.412 10.2659 21.0738L3.72871 27.611L18.4463 23.1975C19.3895 22.9128 20.1191 22.1653 20.3742 21.2221L22.5216 13.3443L16.6548 7.47743H16.6607ZM12.1938 15.907C11.6904 15.907 11.2075 16.107 10.8515 16.463C10.4956 16.819 10.2956 17.3018 10.2956 17.8052C10.2956 18.3087 10.4956 18.7915 10.8515 19.1475C11.2075 19.5035 11.6904 19.7035 12.1938 19.7035C12.6973 19.7035 13.1801 19.5035 13.5361 19.1475C13.8921 18.7915 14.0921 18.3087 14.0921 17.8052C14.0921 17.3018 13.8921 16.819 13.5361 16.463C13.1801 16.107 12.6973 15.907 12.1938 15.907Z" fill="url(#paint0_linear_5016_288)"/>
<defs>
<linearGradient id="paint0_linear_5016_288" x1="1.34861" y1="21.1898" x2="41.8717" y2="18.293" gradientUnits="userSpaceOnUse">
<stop stop-color="#6645EB"/>
<stop offset="1" stop-color="#D445EB"/>
</linearGradient>
</defs>
</svg>
