<svg width="66" height="67" viewBox="0 0 66 67" fill="none" xmlns="http://www.w3.org/2000/svg">
<rect x="0.326172" y="0.536133" width="64.9855" height="65.7817" rx="15" fill="white" fill-opacity="0.05"/>
<rect x="0.826172" y="1.03613" width="63.9855" height="64.7817" rx="14.5" stroke="white" stroke-opacity="0.1"/>
<mask id="mask0_2095_3591" style="mask-type:alpha" maskUnits="userSpaceOnUse" x="0" y="0" width="66" height="67">
<rect x="0.326172" y="0.536133" width="64.9855" height="65.7817" rx="15" fill="white"/>
</mask>
<g mask="url(#mask0_2095_3591)">
<g filter="url(#filter0_f_2095_3591)">
<circle cx="33.0917" cy="65.5186" r="11.0409" fill="#6645EB"/>
</g>
<path d="M40.2428 20.4589L36.2802 24.4156L41.5835 29.7189L45.5402 25.7622C46.2817 25.0207 46.2817 23.8164 45.5402 23.0749L42.9242 20.4589C42.1826 19.7173 40.9784 19.7173 40.2369 20.4589H40.2428ZM34.4472 23.5673L38.9022 19.1123C40.3852 17.6292 42.7877 17.6292 44.2707 19.1123L46.8868 21.7283C48.3698 23.2114 48.3698 25.6139 46.8868 27.0969L42.4318 31.5519L40.2072 39.7204C39.7742 41.2984 38.564 42.5441 36.992 43.0187L20.6669 47.9127C19.9372 48.1322 19.1423 47.9305 18.6084 47.3907C18.0745 46.8508 17.8669 46.0619 18.0864 45.3322L22.9863 29.007C23.455 27.441 24.7007 26.2249 26.2846 25.7918L34.4472 23.5673ZM34.6607 25.4774L26.7829 27.6249C25.8337 27.8859 25.0863 28.6096 24.8075 29.5528L20.388 44.2704L26.9252 37.7332C26.593 37.1696 26.3973 36.5112 26.3973 35.8052C26.3973 33.7112 28.0998 32.0087 30.1938 32.0087C32.2879 32.0087 33.9904 33.7112 33.9904 35.8052C33.9904 37.8993 32.2879 39.6018 30.1938 39.6018C29.4879 39.6018 28.8294 39.412 28.2659 39.0738L21.7287 45.611L36.4463 41.1975C37.3895 40.9128 38.1191 40.1653 38.3742 39.2221L40.5216 31.3443L34.6548 25.4774H34.6607ZM30.1938 33.907C29.6904 33.907 29.2075 34.107 28.8515 34.463C28.4956 34.819 28.2956 35.3018 28.2956 35.8052C28.2956 36.3087 28.4956 36.7915 28.8515 37.1475C29.2075 37.5035 29.6904 37.7035 30.1938 37.7035C30.6973 37.7035 31.1801 37.5035 31.5361 37.1475C31.8921 36.7915 32.0921 36.3087 32.0921 35.8052C32.0921 35.3018 31.8921 34.819 31.5361 34.463C31.1801 34.107 30.6973 33.907 30.1938 33.907Z" fill="url(#paint0_linear_2095_3591)"/>
</g>
<defs>
<filter id="filter0_f_2095_3591" x="-6.44922" y="25.9777" width="79.0818" height="79.0818" filterUnits="userSpaceOnUse" color-interpolation-filters="sRGB">
<feFlood flood-opacity="0" result="BackgroundImageFix"/>
<feBlend mode="normal" in="SourceGraphic" in2="BackgroundImageFix" result="shape"/>
<feGaussianBlur stdDeviation="14.25" result="effect1_foregroundBlur_2095_3591"/>
</filter>
<linearGradient id="paint0_linear_2095_3591" x1="19.3486" y1="39.1898" x2="59.8717" y2="36.293" gradientUnits="userSpaceOnUse">
<stop stop-color="#6645EB"/>
<stop offset="1" stop-color="#D445EB"/>
</linearGradient>
</defs>
</svg>
