<svg width="65" height="67" viewBox="0 0 65 67" fill="none" xmlns="http://www.w3.org/2000/svg">
<rect x="0.0136719" y="0.536011" width="64.9855" height="65.7817" rx="15" fill="white" fill-opacity="0.05"/>
<rect x="0.513672" y="1.03601" width="63.9855" height="64.7817" rx="14.5" stroke="white" stroke-opacity="0.1"/>
<mask id="mask0_2095_3582" style="mask-type:alpha" maskUnits="userSpaceOnUse" x="0" y="0" width="65" height="67">
<rect x="0.0136719" y="0.536011" width="64.9855" height="65.7817" rx="15" fill="white"/>
</mask>
<g mask="url(#mask0_2095_3582)">
<g filter="url(#filter0_f_2095_3582)">
<circle cx="32.7792" cy="65.5184" r="11.0409" fill="#6645EB"/>
</g>
<path d="M24.25 18C26.5875 18 28.6271 19.249 29.75 21.1109C30.8729 19.249 32.9125 18 35.25 18C38.7964 18 41.6667 20.8703 41.6667 24.4167C41.6667 27.963 38.7964 30.8333 35.25 30.8333H24.25C20.7036 30.8333 17.8333 27.963 17.8333 24.4167C17.8333 20.8703 20.7036 18 24.25 18ZM19.6667 24.4167C19.6667 26.949 21.7177 29 24.25 29H35.25C37.7823 29 39.8333 26.949 39.8333 24.4167C39.8333 21.8844 37.7823 19.8333 35.25 19.8333C32.9813 19.8333 31.0964 21.4833 30.7297 23.649C30.6552 24.0901 30.2714 24.4167 29.8245 24.4167H29.6698C29.2229 24.4167 28.8391 24.0958 28.7646 23.649C28.4036 21.4833 26.5188 19.8333 24.25 19.8333C21.7177 19.8333 19.6667 21.8844 19.6667 24.4167ZM24.25 23.0417C24.4306 23.0417 24.6094 23.0772 24.7762 23.1463C24.943 23.2154 25.0946 23.3167 25.2223 23.4444C25.35 23.5721 25.4512 23.7237 25.5203 23.8905C25.5894 24.0573 25.625 24.2361 25.625 24.4167C25.625 24.5972 25.5894 24.776 25.5203 24.9429C25.4512 25.1097 25.35 25.2613 25.2223 25.3889C25.0946 25.5166 24.943 25.6179 24.7762 25.687C24.6094 25.7561 24.4306 25.7917 24.25 25.7917C24.0694 25.7917 23.8906 25.7561 23.7238 25.687C23.557 25.6179 23.4054 25.5166 23.2777 25.3889C23.15 25.2613 23.0488 25.1097 22.9797 24.9429C22.9106 24.776 22.875 24.5972 22.875 24.4167C22.875 24.2361 22.9106 24.0573 22.9797 23.8905C23.0488 23.7237 23.15 23.5721 23.2777 23.4444C23.4054 23.3167 23.557 23.2154 23.7238 23.1463C23.8906 23.0772 24.0694 23.0417 24.25 23.0417ZM33.875 24.4167C33.875 24.052 34.0199 23.7023 34.2777 23.4444C34.5356 23.1865 34.8853 23.0417 35.25 23.0417C35.6147 23.0417 35.9644 23.1865 36.2223 23.4444C36.4801 23.7023 36.625 24.052 36.625 24.4167C36.625 24.7813 36.4801 25.1311 36.2223 25.3889C35.9644 25.6468 35.6147 25.7917 35.25 25.7917C34.8853 25.7917 34.5356 25.6468 34.2777 25.3889C34.0199 25.1311 33.875 24.7813 33.875 24.4167ZM23.7917 34.5H23.3333C22.3193 34.5 21.5 35.3193 21.5 36.3333V43.6667C21.5 44.6807 22.3193 45.5 23.3333 45.5H36.1667C37.1807 45.5 38 44.6807 38 43.6667V36.3333C38 35.3193 37.1807 34.5 36.1667 34.5H23.7917ZM23.7917 32.6667H36.1667C38.1891 32.6667 39.8333 34.3109 39.8333 36.3333V43.6667C39.8333 45.6891 38.1891 47.3333 36.1667 47.3333H23.3333C21.3109 47.3333 19.6667 45.6891 19.6667 43.6667V36.3333C19.6667 35.663 19.8443 35.0385 20.1594 34.5H16.9167C16.4125 34.5 16 34.0875 16 33.5833C16 33.0792 16.4125 32.6667 16.9167 32.6667H23.3333H23.7917ZM41.6667 43.2599L46.5594 45.4599C46.6167 45.4828 46.674 45.5 46.737 45.5C46.9776 45.5 47.1667 45.3052 47.1667 45.0703V34.7234C47.1667 34.5401 47.0005 34.4026 46.8229 34.4312C46.8 34.437 46.7714 34.4427 46.7484 34.4542L41.6667 36.7401V34.7292L45.9979 32.7812C46.1641 32.7068 46.3417 32.6552 46.5193 32.6208C47.8141 32.4031 49 33.4057 49 34.7177V45.0646C49 46.3135 47.9859 47.3276 46.737 47.3276C46.4161 47.3276 46.101 47.2589 45.8089 47.1271L41.6667 45.2708V43.2599Z" fill="url(#paint0_linear_2095_3582)"/>
</g>
<defs>
<filter id="filter0_f_2095_3582" x="-6.76172" y="25.9775" width="79.0818" height="79.0818" filterUnits="userSpaceOnUse" color-interpolation-filters="sRGB">
<feFlood flood-opacity="0" result="BackgroundImageFix"/>
<feBlend mode="normal" in="SourceGraphic" in2="BackgroundImageFix" result="shape"/>
<feGaussianBlur stdDeviation="14.25" result="effect1_foregroundBlur_2095_3582"/>
</filter>
<linearGradient id="paint0_linear_2095_3582" x1="17.4835" y1="38.7189" x2="62.0002" y2="35.1387" gradientUnits="userSpaceOnUse">
<stop stop-color="#6645EB"/>
<stop offset="1" stop-color="#D445EB"/>
</linearGradient>
</defs>
</svg>
