<svg width="33" height="30" viewBox="0 0 33 30" fill="none" xmlns="http://www.w3.org/2000/svg">
<path d="M8.25 0C10.5875 0 12.6271 1.24896 13.75 3.11094C14.8729 1.24896 16.9125 0 19.25 0C22.7964 0 25.6667 2.87031 25.6667 6.41667C25.6667 9.96302 22.7964 12.8333 19.25 12.8333H8.25C4.70365 12.8333 1.83333 9.96302 1.83333 6.41667C1.83333 2.87031 4.70365 0 8.25 0ZM3.66667 6.41667C3.66667 8.94896 5.71771 11 8.25 11H19.25C21.7823 11 23.8333 8.94896 23.8333 6.41667C23.8333 3.88438 21.7823 1.83333 19.25 1.83333C16.9813 1.83333 15.0964 3.48333 14.7297 5.64896C14.6552 6.0901 14.2714 6.41667 13.8245 6.41667H13.6698C13.2229 6.41667 12.8391 6.09583 12.7646 5.64896C12.4036 3.48333 10.5188 1.83333 8.25 1.83333C5.71771 1.83333 3.66667 3.88438 3.66667 6.41667ZM8.25 5.04167C8.43057 5.04167 8.60937 5.07723 8.77619 5.14633C8.94301 5.21543 9.09459 5.31671 9.22227 5.44439C9.34995 5.57208 9.45123 5.72365 9.52033 5.89048C9.58943 6.0573 9.625 6.2361 9.625 6.41667C9.625 6.59723 9.58943 6.77603 9.52033 6.94286C9.45123 7.10968 9.34995 7.26126 9.22227 7.38894C9.09459 7.51662 8.94301 7.6179 8.77619 7.687C8.60937 7.7561 8.43057 7.79167 8.25 7.79167C8.06943 7.79167 7.89063 7.7561 7.72381 7.687C7.55699 7.6179 7.40541 7.51662 7.27773 7.38894C7.15005 7.26126 7.04877 7.10968 6.97967 6.94286C6.91057 6.77603 6.875 6.59723 6.875 6.41667C6.875 6.2361 6.91057 6.0573 6.97967 5.89048C7.04877 5.72365 7.15005 5.57208 7.27773 5.44439C7.40541 5.31671 7.55699 5.21543 7.72381 5.14633C7.89063 5.07723 8.06943 5.04167 8.25 5.04167ZM17.875 6.41667C17.875 6.05199 18.0199 5.70226 18.2777 5.44439C18.5356 5.18653 18.8853 5.04167 19.25 5.04167C19.6147 5.04167 19.9644 5.18653 20.2223 5.44439C20.4801 5.70226 20.625 6.05199 20.625 6.41667C20.625 6.78134 20.4801 7.13108 20.2223 7.38894C19.9644 7.6468 19.6147 7.79167 19.25 7.79167C18.8853 7.79167 18.5356 7.6468 18.2777 7.38894C18.0199 7.13108 17.875 6.78134 17.875 6.41667ZM7.79167 16.5H7.33333C6.31927 16.5 5.5 17.3193 5.5 18.3333V25.6667C5.5 26.6807 6.31927 27.5 7.33333 27.5H20.1667C21.1807 27.5 22 26.6807 22 25.6667V18.3333C22 17.3193 21.1807 16.5 20.1667 16.5H7.79167ZM7.79167 14.6667H20.1667C22.1891 14.6667 23.8333 16.3109 23.8333 18.3333V25.6667C23.8333 27.6891 22.1891 29.3333 20.1667 29.3333H7.33333C5.31094 29.3333 3.66667 27.6891 3.66667 25.6667V18.3333C3.66667 17.663 3.84427 17.0385 4.15938 16.5H0.916667C0.4125 16.5 0 16.0875 0 15.5833C0 15.0792 0.4125 14.6667 0.916667 14.6667H7.33333H7.79167ZM25.6667 25.2599L30.5594 27.4599C30.6167 27.4828 30.674 27.5 30.737 27.5C30.9776 27.5 31.1667 27.3052 31.1667 27.0703V16.7234C31.1667 16.5401 31.0005 16.4026 30.8229 16.4312C30.8 16.437 30.7714 16.4427 30.7484 16.4542L25.6667 18.7401V16.7292L29.9979 14.7813C30.1641 14.7068 30.3417 14.6552 30.5193 14.6208C31.8141 14.4031 33 15.4057 33 16.7177V27.0646C33 28.3135 31.9859 29.3276 30.737 29.3276C30.4161 29.3276 30.101 29.2589 29.8089 29.1271L25.6667 27.2708V25.2599Z" fill="url(#paint0_linear_5016_278)"/>
<defs>
<linearGradient id="paint0_linear_5016_278" x1="1.48351" y1="20.7189" x2="46.0002" y2="17.1387" gradientUnits="userSpaceOnUse">
<stop stop-color="#6645EB"/>
<stop offset="1" stop-color="#D445EB"/>
</linearGradient>
</defs>
</svg>
