<svg width="36" height="25" viewBox="0 0 36 25" fill="none" xmlns="http://www.w3.org/2000/svg">
<path d="M7.14286 1.78571H28.5714C29.5592 1.78571 30.3571 2.58371 30.3571 3.57143V17.8571H32.1429V3.57143C32.1429 1.60156 30.5413 0 28.5714 0H7.14286C5.17299 0 3.57143 1.60156 3.57143 3.57143V17.8571H5.35714V3.57143C5.35714 2.58371 6.15513 1.78571 7.14286 1.78571ZM1.89174 21.4286H33.8281C33.5212 22.4609 32.567 23.2143 31.4342 23.2143H4.28571C3.1529 23.2143 2.19866 22.4609 1.89174 21.4286ZM1.07143 19.6429C0.479911 19.6429 0 20.1228 0 20.7143C0 23.0804 1.91964 25 4.28571 25H31.4286C33.7946 25 35.7143 23.0804 35.7143 20.7143C35.7143 20.1228 35.2344 19.6429 34.6429 19.6429H1.07143ZM15.8092 7.77344C16.1551 7.42746 16.1551 6.85826 15.8092 6.51228C15.4632 6.16629 14.894 6.16629 14.548 6.51228L10.9766 10.0837C10.6306 10.4297 10.6306 10.9989 10.9766 11.3449L14.548 14.9163C14.894 15.2623 15.4632 15.2623 15.8092 14.9163C16.1551 14.5703 16.1551 14.0011 15.8092 13.6551L12.8683 10.7143L15.8092 7.77344ZM21.1663 6.51228C20.8203 6.16629 20.2511 6.16629 19.9051 6.51228C19.5592 6.85826 19.5592 7.42746 19.9051 7.77344L22.846 10.7143L19.9051 13.6551C19.5592 14.0011 19.5592 14.5703 19.9051 14.9163C20.2511 15.2623 20.8203 15.2623 21.1663 14.9163L24.7377 11.3449C25.0837 10.9989 25.0837 10.4297 24.7377 10.0837L21.1663 6.51228Z" fill="url(#paint0_linear_5016_268)"/>
<defs>
<linearGradient id="paint0_linear_5016_268" x1="1.60553" y1="17.6582" x2="49.5948" y2="12.7572" gradientUnits="userSpaceOnUse">
<stop stop-color="#6645EB"/>
<stop offset="1" stop-color="#D445EB"/>
</linearGradient>
</defs>
</svg>
