<svg width="65" height="67" viewBox="0 0 65 67" fill="none" xmlns="http://www.w3.org/2000/svg">
<rect x="0.0136719" y="0.536011" width="64.9855" height="65.7817" rx="15" fill="white" fill-opacity="0.05"/>
<rect x="0.513672" y="1.03601" width="63.9855" height="64.7817" rx="14.5" stroke="white" stroke-opacity="0.1"/>
<mask id="mask0_2095_3600" style="mask-type:alpha" maskUnits="userSpaceOnUse" x="0" y="0" width="65" height="67">
<rect x="0.0136719" y="0.536011" width="64.9855" height="65.7817" rx="15" fill="white"/>
</mask>
<g mask="url(#mask0_2095_3600)">
<g filter="url(#filter0_f_2095_3600)">
<circle cx="32.7792" cy="65.5184" r="11.0409" fill="#6645EB"/>
</g>
<path d="M22.1429 22.7857H43.5714C44.5592 22.7857 45.3571 23.5837 45.3571 24.5714V38.8571H47.1429V24.5714C47.1429 22.6016 45.5413 21 43.5714 21H22.1429C20.173 21 18.5714 22.6016 18.5714 24.5714V38.8571H20.3571V24.5714C20.3571 23.5837 21.1551 22.7857 22.1429 22.7857ZM16.8917 42.4286H48.8281C48.5212 43.4609 47.567 44.2143 46.4342 44.2143H19.2857C18.1529 44.2143 17.1987 43.4609 16.8917 42.4286ZM16.0714 40.6429C15.4799 40.6429 15 41.1228 15 41.7143C15 44.0804 16.9196 46 19.2857 46H46.4286C48.7946 46 50.7143 44.0804 50.7143 41.7143C50.7143 41.1228 50.2344 40.6429 49.6429 40.6429H16.0714ZM30.8092 28.7734C31.1551 28.4275 31.1551 27.8583 30.8092 27.5123C30.4632 27.1663 29.894 27.1663 29.548 27.5123L25.9766 31.0837C25.6306 31.4297 25.6306 31.9989 25.9766 32.3449L29.548 35.9163C29.894 36.2623 30.4632 36.2623 30.8092 35.9163C31.1551 35.5703 31.1551 35.0011 30.8092 34.6551L27.8683 31.7143L30.8092 28.7734ZM36.1663 27.5123C35.8203 27.1663 35.2511 27.1663 34.9051 27.5123C34.5592 27.8583 34.5592 28.4275 34.9051 28.7734L37.846 31.7143L34.9051 34.6551C34.5592 35.0011 34.5592 35.5703 34.9051 35.9163C35.2511 36.2623 35.8203 36.2623 36.1663 35.9163L39.7377 32.3449C40.0837 31.9989 40.0837 31.4297 39.7377 31.0837L36.1663 27.5123Z" fill="url(#paint0_linear_2095_3600)"/>
</g>
<defs>
<filter id="filter0_f_2095_3600" x="-6.76172" y="25.9775" width="79.0818" height="79.0818" filterUnits="userSpaceOnUse" color-interpolation-filters="sRGB">
<feFlood flood-opacity="0" result="BackgroundImageFix"/>
<feBlend mode="normal" in="SourceGraphic" in2="BackgroundImageFix" result="shape"/>
<feGaussianBlur stdDeviation="14.25" result="effect1_foregroundBlur_2095_3600"/>
</filter>
<linearGradient id="paint0_linear_2095_3600" x1="16.6055" y1="38.6582" x2="64.5948" y2="33.7572" gradientUnits="userSpaceOnUse">
<stop stop-color="#6645EB"/>
<stop offset="1" stop-color="#D445EB"/>
</linearGradient>
</defs>
</svg>
