<svg width="33" height="27" viewBox="0 0 33 27" fill="none" xmlns="http://www.w3.org/2000/svg">
<path d="M2.0625 4.03167H4.125V2.01584H2.0625V4.03167ZM0 1.51188C0 0.674046 0.689648 0 1.54688 0H4.64062C5.49785 0 6.1875 0.674046 6.1875 1.51188V4.53563C6.1875 5.37347 5.49785 6.04751 4.64062 6.04751H4.125V12.095H8.25V11.5911C8.25 10.7532 8.93965 10.0792 9.79688 10.0792H12.8906C13.7479 10.0792 14.4375 10.7532 14.4375 11.5911V14.6148C14.4375 15.4527 13.7479 16.1267 12.8906 16.1267H9.79688C8.93965 16.1267 8.25 15.4527 8.25 14.6148V14.1109H4.125V21.1663C4.125 21.7206 4.58906 22.1742 5.15625 22.1742H8.25V21.6702C8.25 20.8324 8.93965 20.1584 9.79688 20.1584H12.8906C13.7479 20.1584 14.4375 20.8324 14.4375 21.6702V24.694C14.4375 25.5318 13.7479 26.2059 12.8906 26.2059H9.79688C8.93965 26.2059 8.25 25.5318 8.25 24.694V24.19H5.15625C3.44824 24.19 2.0625 22.8357 2.0625 21.1663V13.1029V6.04751H1.54688C0.689648 6.04751 0 5.37347 0 4.53563V1.51188ZM10.3125 3.02376C10.3125 2.4694 10.7766 2.01584 11.3438 2.01584H31.9688C32.5359 2.01584 33 2.4694 33 3.02376C33 3.57811 32.5359 4.03167 31.9688 4.03167H11.3438C10.7766 4.03167 10.3125 3.57811 10.3125 3.02376ZM18.5625 13.1029C18.5625 12.5486 19.0266 12.095 19.5938 12.095H31.9688C32.5359 12.095 33 12.5486 33 13.1029C33 13.6573 32.5359 14.1109 31.9688 14.1109H19.5938C19.0266 14.1109 18.5625 13.6573 18.5625 13.1029ZM18.5625 23.1821C18.5625 22.6278 19.0266 22.1742 19.5938 22.1742H31.9688C32.5359 22.1742 33 22.6278 33 23.1821C33 23.7365 32.5359 24.19 31.9688 24.19H19.5938C19.0266 24.19 18.5625 23.7365 18.5625 23.1821ZM10.3125 24.19H12.375V22.1742H10.3125V24.19ZM10.3125 12.095V14.1109H12.375V12.095H10.3125Z" fill="url(#paint0_linear_2654_81)"/>
<defs>
<linearGradient id="paint0_linear_2654_81" x1="1.48351" y1="18.5099" x2="45.9279" y2="14.5089" gradientUnits="userSpaceOnUse">
<stop stop-color="#6645EB"/>
<stop offset="1" stop-color="#D445EB"/>
</linearGradient>
</defs>
</svg>
