<svg width="65" height="67" viewBox="0 0 65 67" fill="none" xmlns="http://www.w3.org/2000/svg">
<rect x="0.0136719" y="0.840576" width="64.9855" height="65.7817" rx="15" fill="white" fill-opacity="0.05"/>
<rect x="0.513672" y="1.34058" width="63.9855" height="64.7817" rx="14.5" stroke="white" stroke-opacity="0.1"/>
<mask id="mask0_2088_273" style="mask-type:alpha" maskUnits="userSpaceOnUse" x="0" y="0" width="65" height="67">
<rect x="0.0136719" y="0.840576" width="64.9855" height="65.7817" rx="15" fill="white"/>
</mask>
<g mask="url(#mask0_2088_273)">
<g filter="url(#filter0_f_2088_273)">
<circle cx="32.7792" cy="65.823" r="11.0409" fill="#6645EB"/>
</g>
<path d="M18.0625 25.0317H20.125V23.0158H18.0625V25.0317ZM16 22.5119C16 21.674 16.6896 21 17.5469 21H20.6406C21.4979 21 22.1875 21.674 22.1875 22.5119V25.5356C22.1875 26.3735 21.4979 27.0475 20.6406 27.0475H20.125V33.095H24.25V32.5911C24.25 31.7532 24.9396 31.0792 25.7969 31.0792H28.8906C29.7479 31.0792 30.4375 31.7532 30.4375 32.5911V35.6148C30.4375 36.4527 29.7479 37.1267 28.8906 37.1267H25.7969C24.9396 37.1267 24.25 36.4527 24.25 35.6148V35.1109H20.125V42.1663C20.125 42.7206 20.5891 43.1742 21.1562 43.1742H24.25V42.6702C24.25 41.8324 24.9396 41.1584 25.7969 41.1584H28.8906C29.7479 41.1584 30.4375 41.8324 30.4375 42.6702V45.694C30.4375 46.5318 29.7479 47.2059 28.8906 47.2059H25.7969C24.9396 47.2059 24.25 46.5318 24.25 45.694V45.19H21.1562C19.4482 45.19 18.0625 43.8357 18.0625 42.1663V34.1029V27.0475H17.5469C16.6896 27.0475 16 26.3735 16 25.5356V22.5119ZM26.3125 24.0238C26.3125 23.4694 26.7766 23.0158 27.3438 23.0158H47.9688C48.5359 23.0158 49 23.4694 49 24.0238C49 24.5781 48.5359 25.0317 47.9688 25.0317H27.3438C26.7766 25.0317 26.3125 24.5781 26.3125 24.0238ZM34.5625 34.1029C34.5625 33.5486 35.0266 33.095 35.5938 33.095H47.9688C48.5359 33.095 49 33.5486 49 34.1029C49 34.6573 48.5359 35.1109 47.9688 35.1109H35.5938C35.0266 35.1109 34.5625 34.6573 34.5625 34.1029ZM34.5625 44.1821C34.5625 43.6278 35.0266 43.1742 35.5938 43.1742H47.9688C48.5359 43.1742 49 43.6278 49 44.1821C49 44.7365 48.5359 45.19 47.9688 45.19H35.5938C35.0266 45.19 34.5625 44.7365 34.5625 44.1821ZM26.3125 45.19H28.375V43.1742H26.3125V45.19ZM26.3125 33.095V35.1109H28.375V33.095H26.3125Z" fill="url(#paint0_linear_2088_273)"/>
</g>
<defs>
<filter id="filter0_f_2088_273" x="-6.76172" y="26.2821" width="79.0818" height="79.0818" filterUnits="userSpaceOnUse" color-interpolation-filters="sRGB">
<feFlood flood-opacity="0" result="BackgroundImageFix"/>
<feBlend mode="normal" in="SourceGraphic" in2="BackgroundImageFix" result="shape"/>
<feGaussianBlur stdDeviation="14.25" result="effect1_foregroundBlur_2088_273"/>
</filter>
<linearGradient id="paint0_linear_2088_273" x1="17.4835" y1="39.5099" x2="61.9279" y2="35.5089" gradientUnits="userSpaceOnUse">
<stop stop-color="#6645EB"/>
<stop offset="1" stop-color="#D445EB"/>
</linearGradient>
</defs>
</svg>
