<svg width="65" height="67" viewBox="0 0 65 67" fill="none" xmlns="http://www.w3.org/2000/svg">
<rect x="0.0136719" y="0.840576" width="64.9855" height="65.7817" rx="15" fill="white" fill-opacity="0.05"/>
<rect x="0.513672" y="1.34058" width="63.9855" height="64.7817" rx="14.5" stroke="white" stroke-opacity="0.1"/>
<mask id="mask0_2088_299" style="mask-type:alpha" maskUnits="userSpaceOnUse" x="0" y="0" width="65" height="67">
<rect x="0.0136719" y="0.840576" width="64.9855" height="65.7817" rx="15" fill="white"/>
</mask>
<g mask="url(#mask0_2088_299)">
<g filter="url(#filter0_f_2088_299)">
<circle cx="32.7792" cy="65.823" r="11.0409" fill="#6645EB"/>
</g>
<path d="M26.3733 23.1866C26.3733 23.3422 26.4576 23.6275 26.9114 24.0165C27.0022 24.0943 27.0994 24.1721 27.2096 24.2499C26.2112 24.2888 25.2387 24.3731 24.2986 24.5028V23.1866C24.2986 22.1947 24.8562 21.3908 25.5564 20.7878C26.2631 20.1784 27.2226 19.6792 28.3248 19.2837C30.5291 18.4733 33.5049 18 36.7466 18C39.9882 18 42.964 18.4733 45.1684 19.2772C46.264 19.6792 47.2301 20.1784 47.9367 20.7813C48.6369 21.3908 49.1945 22.1947 49.1945 23.1866V29.9293V37.3138C49.1945 38.3122 48.6629 39.142 47.9562 39.7774C47.2495 40.4128 46.29 40.9379 45.1878 41.3593C44.5136 41.6122 43.7745 41.8391 42.977 42.0271V39.8876C43.5086 39.745 44.0014 39.5894 44.4552 39.4208C45.4212 39.0513 46.1279 38.6428 46.5752 38.2409C47.0226 37.8389 47.1263 37.5212 47.1263 37.3202V33.0283C46.5623 33.3914 45.9075 33.709 45.1878 33.9813C44.5136 34.2342 43.7745 34.4611 42.977 34.6491V32.5096C43.5086 32.367 44.0014 32.2114 44.4552 32.0428C45.4212 31.6733 46.1279 31.2648 46.5752 30.8629C47.0226 30.4609 47.1263 30.1432 47.1263 29.9422V26.1884C46.5558 26.5385 45.8945 26.8432 45.1749 27.1026C44.0532 27.511 42.7371 27.8352 41.2849 28.0491C41.1617 27.9259 41.0385 27.8028 40.9153 27.6925C40.2605 27.1026 39.5084 26.6293 38.724 26.2338C40.9802 26.0847 42.964 25.6892 44.4617 25.1446C45.4277 24.7945 46.1344 24.399 46.5882 24.0165C47.042 23.6275 47.1263 23.3422 47.1263 23.1866C47.1263 23.031 47.042 22.7458 46.5882 22.3568C46.1409 21.9743 45.4342 21.5788 44.4617 21.2287C42.5361 20.5285 39.8067 20.0747 36.7466 20.0747C33.6864 20.0747 30.957 20.5285 29.0314 21.2287C28.0654 21.5788 27.3587 21.9743 26.9049 22.3568C26.4511 22.7458 26.3668 23.031 26.3668 23.1866H26.3733ZM18.0747 31.4853C18.0747 31.6409 18.1589 31.9261 18.6128 32.3151C19.0601 32.6976 19.7668 33.0931 20.7393 33.4432C22.6583 34.1434 25.3878 34.5972 28.4479 34.5972C31.5081 34.5972 34.2375 34.1434 36.1631 33.4432C37.1291 33.0931 37.8358 32.6976 38.2896 32.3151C38.7434 31.9261 38.8277 31.6409 38.8277 31.4853C38.8277 31.3297 38.7434 31.0444 38.2896 30.6554C37.8422 30.2729 37.1356 29.8774 36.1631 29.5273C34.2375 28.8271 31.5081 28.3733 28.4479 28.3733C25.3878 28.3733 22.6583 28.8271 20.7328 29.5273C19.7668 29.8774 19.0601 30.2729 18.6063 30.6554C18.1525 31.0444 18.0682 31.3297 18.0682 31.4853H18.0747ZM16 31.4853C16 30.4933 16.5576 29.6894 17.2578 29.0864C17.9644 28.477 18.924 27.9778 20.0261 27.5823C22.2305 26.7719 25.2063 26.2986 28.4479 26.2986C31.6896 26.2986 34.6654 26.7719 36.8697 27.5758C37.9654 27.9778 38.9314 28.477 39.6381 29.08C40.3448 29.6829 40.8959 30.4933 40.8959 31.4788V38.2214V45.6059C40.8959 46.6043 40.3642 47.4342 39.6576 48.0695C38.9509 48.7049 37.9914 49.2301 36.8892 49.6515C34.6784 50.5008 31.6896 51 28.4479 51C25.2063 51 22.2175 50.5008 20.0132 49.658C18.911 49.2365 17.9515 48.7114 17.2448 48.076C16.5381 47.4407 16 46.6108 16 45.6124V38.2279V31.4853ZM38.8212 34.4741C38.2507 34.8242 37.5894 35.1289 36.8697 35.3882C34.6654 36.1986 31.6896 36.6719 28.4479 36.6719C25.2063 36.6719 22.2305 36.1986 20.0261 35.3947C19.3065 35.1354 18.6452 34.8306 18.0747 34.4806V38.2279C18.0747 38.4289 18.1784 38.7466 18.6257 39.1485C19.0731 39.5505 19.7798 39.9654 20.7458 40.3285C22.6713 41.0611 25.3878 41.5344 28.4479 41.5344C31.5081 41.5344 34.2246 41.0611 36.1501 40.3285C37.1161 39.9589 37.8228 39.5505 38.2701 39.1485C38.7175 38.7466 38.8212 38.4289 38.8212 38.2279V34.4741ZM18.0747 45.6124C18.0747 45.8134 18.1784 46.131 18.6257 46.533C19.0731 46.935 19.7798 47.3499 20.7458 47.713C22.6713 48.4456 25.3878 48.9253 28.4479 48.9253C31.5081 48.9253 34.2246 48.4521 36.1501 47.7194C37.1161 47.3499 37.8228 46.9415 38.2701 46.5395C38.7175 46.1375 38.8212 45.8198 38.8212 45.6189V41.3269C38.2572 41.69 37.6024 42.0077 36.8827 42.28C34.6784 43.1163 31.6896 43.609 28.4479 43.609C25.2063 43.609 22.2175 43.1098 20.0132 42.267C19.3 41.9947 18.6452 41.677 18.0747 41.3139V45.6059V45.6124Z" fill="url(#paint0_linear_2088_299)"/>
</g>
<defs>
<filter id="filter0_f_2088_299" x="-6.76172" y="26.2821" width="79.0818" height="79.0818" filterUnits="userSpaceOnUse" color-interpolation-filters="sRGB">
<feFlood flood-opacity="0" result="BackgroundImageFix"/>
<feBlend mode="normal" in="SourceGraphic" in2="BackgroundImageFix" result="shape"/>
<feGaussianBlur stdDeviation="14.25" result="effect1_foregroundBlur_2088_299"/>
</filter>
<linearGradient id="paint0_linear_2088_299" x1="17.4923" y1="41.3088" x2="62.3291" y2="38.0846" gradientUnits="userSpaceOnUse">
<stop stop-color="#6645EB"/>
<stop offset="1" stop-color="#D445EB"/>
</linearGradient>
</defs>
</svg>
