<svg width="34" height="33" viewBox="0 0 34 33" fill="none" xmlns="http://www.w3.org/2000/svg">
<path d="M10.3733 5.18664C10.3733 5.34224 10.4576 5.62751 10.9114 6.0165C11.0022 6.0943 11.0994 6.1721 11.2096 6.2499C10.2112 6.2888 9.2387 6.37309 8.29862 6.50275V5.18664C8.29862 4.1947 8.85619 3.39077 9.55639 2.78782C10.2631 2.17839 11.2226 1.67917 12.3248 1.28369C14.5291 0.473281 17.5049 0 20.7466 0C23.9882 0 26.964 0.473281 29.1684 1.27721C30.264 1.67917 31.2301 2.17839 31.9367 2.78134C32.6369 3.39077 33.1945 4.1947 33.1945 5.18664V11.9293V19.3138C33.1945 20.3122 32.6629 21.142 31.9562 21.7774C31.2495 22.4128 30.29 22.9379 29.1878 23.3593C28.5136 23.6122 27.7745 23.8391 26.977 24.0271V21.8876C27.5086 21.745 28.0014 21.5894 28.4552 21.4208C29.4212 21.0513 30.1279 20.6428 30.5752 20.2409C31.0226 19.8389 31.1263 19.5212 31.1263 19.3202V15.0283C30.5623 15.3914 29.9075 15.709 29.1878 15.9813C28.5136 16.2342 27.7745 16.4611 26.977 16.6491V14.5096C27.5086 14.367 28.0014 14.2114 28.4552 14.0428C29.4212 13.6733 30.1279 13.2648 30.5752 12.8629C31.0226 12.4609 31.1263 12.1432 31.1263 11.9422V8.18841C30.5558 8.53851 29.8945 8.84322 29.1749 9.10255C28.0532 9.511 26.7371 9.83517 25.2849 10.0491C25.1617 9.92593 25.0385 9.80275 24.9153 9.69253C24.2605 9.10255 23.5084 8.62927 22.724 8.23379C24.9802 8.08468 26.964 7.68919 28.4617 7.1446C29.4277 6.7945 30.1344 6.39902 30.5882 6.0165C31.042 5.62751 31.1263 5.34224 31.1263 5.18664C31.1263 5.03104 31.042 4.74578 30.5882 4.35678C30.1409 3.97426 29.4342 3.57878 28.4617 3.22868C26.5361 2.52849 23.8067 2.07466 20.7466 2.07466C17.6864 2.07466 14.957 2.52849 13.0314 3.22868C12.0654 3.57878 11.3587 3.97426 10.9049 4.35678C10.4511 4.74578 10.3668 5.03104 10.3668 5.18664H10.3733ZM2.07466 13.4853C2.07466 13.6409 2.15894 13.9261 2.61277 14.3151C3.06012 14.6976 3.7668 15.0931 4.73929 15.4432C6.65835 16.1434 9.38782 16.5972 12.4479 16.5972C15.5081 16.5972 18.2375 16.1434 20.1631 15.4432C21.1291 15.0931 21.8358 14.6976 22.2896 14.3151C22.7434 13.9261 22.8277 13.6409 22.8277 13.4853C22.8277 13.3297 22.7434 13.0444 22.2896 12.6554C21.8422 12.2729 21.1356 11.8774 20.1631 11.5273C18.2375 10.8271 15.5081 10.3733 12.4479 10.3733C9.38782 10.3733 6.65835 10.8271 4.73281 11.5273C3.7668 11.8774 3.06012 12.2729 2.60629 12.6554C2.15246 13.0444 2.06817 13.3297 2.06817 13.4853H2.07466ZM0 13.4853C0 12.4933 0.557564 11.6894 1.25776 11.0864C1.96444 10.477 2.92397 9.9778 4.02613 9.58232C6.23045 8.77191 9.20629 8.29862 12.4479 8.29862C15.6896 8.29862 18.6654 8.77191 20.8697 9.57584C21.9654 9.9778 22.9314 10.477 23.6381 11.08C24.3448 11.6829 24.8959 12.4933 24.8959 13.4788V20.2214V27.6059C24.8959 28.6043 24.3642 29.4342 23.6576 30.0695C22.9509 30.7049 21.9914 31.2301 20.8892 31.6515C18.6784 32.5008 15.6896 33 12.4479 33C9.20629 33 6.21749 32.5008 4.01316 31.658C2.911 31.2365 1.95147 30.7114 1.24479 30.076C0.538114 29.4407 0 28.6108 0 27.6124V20.2279V13.4853ZM22.8212 16.4741C22.2507 16.8242 21.5894 17.1289 20.8697 17.3882C18.6654 18.1986 15.6896 18.6719 12.4479 18.6719C9.20629 18.6719 6.23045 18.1986 4.02613 17.3947C3.30648 17.1354 2.64519 16.8306 2.07466 16.4806V20.2279C2.07466 20.4289 2.17839 20.7466 2.62574 21.1485C3.07308 21.5505 3.77976 21.9654 4.74578 22.3285C6.67132 23.0611 9.38782 23.5344 12.4479 23.5344C15.5081 23.5344 18.2246 23.0611 20.1501 22.3285C21.1161 21.9589 21.8228 21.5505 22.2701 21.1485C22.7175 20.7466 22.8212 20.4289 22.8212 20.2279V16.4741ZM2.07466 27.6124C2.07466 27.8134 2.17839 28.131 2.62574 28.533C3.07308 28.935 3.77976 29.3499 4.74578 29.713C6.67132 30.4456 9.38782 30.9253 12.4479 30.9253C15.5081 30.9253 18.2246 30.4521 20.1501 29.7194C21.1161 29.3499 21.8228 28.9415 22.2701 28.5395C22.7175 28.1375 22.8212 27.8198 22.8212 27.6189V23.3269C22.2572 23.69 21.6024 24.0077 20.8827 24.28C18.6784 25.1163 15.6896 25.609 12.4479 25.609C9.20629 25.609 6.21749 25.1098 4.01316 24.267C3.3 23.9947 2.64519 23.677 2.07466 23.3139V27.6059V27.6124Z" fill="url(#paint0_linear_2656_96)"/>
<defs>
<linearGradient id="paint0_linear_2656_96" x1="1.49226" y1="23.3088" x2="46.3291" y2="20.0846" gradientUnits="userSpaceOnUse">
<stop stop-color="#6645EB"/>
<stop offset="1" stop-color="#D445EB"/>
</linearGradient>
</defs>
</svg>
