<svg width="33" height="27" viewBox="0 0 33 27" fill="none" xmlns="http://www.w3.org/2000/svg">
<path d="M4.95 4.125C4.95 3.46859 5.21076 2.83906 5.67491 2.37491C6.13906 1.91076 6.76859 1.65 7.425 1.65C8.08141 1.65 8.71094 1.91076 9.17509 2.37491C9.63924 2.83906 9.9 3.46859 9.9 4.125C9.9 4.78141 9.63924 5.41094 9.17509 5.87509C8.71094 6.33924 8.08141 6.6 7.425 6.6C6.76859 6.6 6.13906 6.33924 5.67491 5.87509C5.21076 5.41094 4.95 4.78141 4.95 4.125ZM11.55 4.125C11.55 3.03098 11.1154 1.98177 10.3418 1.20818C9.56823 0.434597 8.51902 0 7.425 0C6.33098 0 5.28177 0.434597 4.50818 1.20818C3.7346 1.98177 3.3 3.03098 3.3 4.125C3.3 5.21902 3.7346 6.26823 4.50818 7.04182C5.28177 7.8154 6.33098 8.25 7.425 8.25C8.51902 8.25 9.56823 7.8154 10.3418 7.04182C11.1154 6.26823 11.55 5.21902 11.55 4.125ZM16.5 8.25C17.3752 8.25 18.2146 8.59768 18.8335 9.21655C19.4523 9.83542 19.8 10.6748 19.8 11.55C19.8 12.4252 19.4523 13.2646 18.8335 13.8835C18.2146 14.5023 17.3752 14.85 16.5 14.85C15.6248 14.85 14.7854 14.5023 14.1665 13.8835C13.5477 13.2646 13.2 12.4252 13.2 11.55C13.2 10.6748 13.5477 9.83542 14.1665 9.21655C14.7854 8.59768 15.6248 8.25 16.5 8.25ZM16.5 16.5C17.15 16.5 17.7937 16.372 18.3943 16.1232C18.9948 15.8744 19.5405 15.5098 20.0002 15.0502C20.4598 14.5905 20.8244 14.0448 21.0732 13.4443C21.322 12.8437 21.45 12.2 21.45 11.55C21.45 10.9 21.322 10.2563 21.0732 9.65572C20.8244 9.05516 20.4598 8.50947 20.0002 8.04982C19.5405 7.59017 18.9948 7.22556 18.3943 6.9768C17.7937 6.72804 17.15 6.6 16.5 6.6C15.85 6.6 15.2063 6.72804 14.6057 6.9768C14.0052 7.22556 13.4595 7.59017 12.9998 8.04982C12.5402 8.50947 12.1756 9.05516 11.9268 9.65572C11.678 10.2563 11.55 10.9 11.55 11.55C11.55 12.2 11.678 12.8437 11.9268 13.4443C12.1756 14.0448 12.5402 14.5905 12.9998 15.0502C13.4595 15.5098 14.0052 15.8744 14.6057 16.1232C15.2063 16.372 15.85 16.5 16.5 16.5ZM13.4733 19.8H19.5216C22.3163 19.8 24.5953 21.9914 24.7397 24.75H8.25516C8.39953 21.9914 10.6786 19.8 13.4733 19.8ZM13.4733 18.15C9.67828 18.15 6.6 21.2283 6.6 25.0233C6.6 25.7812 7.21359 26.4 7.97672 26.4H25.0284C25.7864 26.4 26.4052 25.7864 26.4052 25.0233C26.4 21.2283 23.3217 18.15 19.5267 18.15H13.4784H13.4733ZM26.4 1.65C27.0564 1.65 27.6859 1.91076 28.1501 2.37491C28.6142 2.83906 28.875 3.46859 28.875 4.125C28.875 4.78141 28.6142 5.41094 28.1501 5.87509C27.6859 6.33924 27.0564 6.6 26.4 6.6C25.7436 6.6 25.1141 6.33924 24.6499 5.87509C24.1858 5.41094 23.925 4.78141 23.925 4.125C23.925 3.46859 24.1858 2.83906 24.6499 2.37491C25.1141 1.91076 25.7436 1.65 26.4 1.65ZM26.4 8.25C27.494 8.25 28.5432 7.8154 29.3168 7.04182C30.0904 6.26823 30.525 5.21902 30.525 4.125C30.525 3.03098 30.0904 1.98177 29.3168 1.20818C28.5432 0.434597 27.494 0 26.4 0C25.306 0 24.2568 0.434597 23.4832 1.20818C22.7096 1.98177 22.275 3.03098 22.275 4.125C22.275 5.21902 22.7096 6.26823 23.4832 7.04182C24.2568 7.8154 25.306 8.25 26.4 8.25ZM27.225 11.55C29.5041 11.55 31.35 13.3959 31.35 15.675C31.35 16.1287 31.7212 16.5 32.175 16.5C32.6287 16.5 33 16.1287 33 15.675C33 12.4833 30.4167 9.9 27.225 9.9H22.8937C23.0278 10.4259 23.1 10.9828 23.1 11.55H27.225ZM9.9 11.55C9.9 10.9828 9.97219 10.4259 10.1062 9.9H5.775C2.58328 9.9 0 12.4833 0 15.675C0 16.1287 0.37125 16.5 0.825 16.5C1.27875 16.5 1.65 16.1287 1.65 15.675C1.65 13.3959 3.49594 11.55 5.775 11.55H9.9Z" fill="url(#paint0_linear_5120_90)"/>
<defs>
<linearGradient id="paint0_linear_5120_90" x1="1.48351" y1="18.6471" x2="45.9332" y2="14.675" gradientUnits="userSpaceOnUse">
<stop stop-color="#6645EB"/>
<stop offset="1" stop-color="#D445EB"/>
</linearGradient>
</defs>
</svg>
