<svg width="65" height="67" viewBox="0 0 65 67" fill="none" xmlns="http://www.w3.org/2000/svg">
<rect x="0.0136719" y="0.840576" width="64.9855" height="65.7817" rx="15" fill="url(#paint0_linear_5048_88)"/>
<path d="M20.95 25.125C20.95 24.4686 21.2108 23.8391 21.6749 23.3749C22.1391 22.9108 22.7686 22.65 23.425 22.65C24.0814 22.65 24.7109 22.9108 25.1751 23.3749C25.6392 23.8391 25.9 24.4686 25.9 25.125C25.9 25.7814 25.6392 26.4109 25.1751 26.8751C24.7109 27.3392 24.0814 27.6 23.425 27.6C22.7686 27.6 22.1391 27.3392 21.6749 26.8751C21.2108 26.4109 20.95 25.7814 20.95 25.125ZM27.55 25.125C27.55 24.031 27.1154 22.9818 26.3418 22.2082C25.5682 21.4346 24.519 21 23.425 21C22.331 21 21.2818 21.4346 20.5082 22.2082C19.7346 22.9818 19.3 24.031 19.3 25.125C19.3 26.219 19.7346 27.2682 20.5082 28.0418C21.2818 28.8154 22.331 29.25 23.425 29.25C24.519 29.25 25.5682 28.8154 26.3418 28.0418C27.1154 27.2682 27.55 26.219 27.55 25.125ZM32.5 29.25C33.3752 29.25 34.2146 29.5977 34.8335 30.2165C35.4523 30.8354 35.8 31.6748 35.8 32.55C35.8 33.4252 35.4523 34.2646 34.8335 34.8835C34.2146 35.5023 33.3752 35.85 32.5 35.85C31.6248 35.85 30.7854 35.5023 30.1665 34.8835C29.5477 34.2646 29.2 33.4252 29.2 32.55C29.2 31.6748 29.5477 30.8354 30.1665 30.2165C30.7854 29.5977 31.6248 29.25 32.5 29.25ZM32.5 37.5C33.15 37.5 33.7937 37.372 34.3943 37.1232C34.9948 36.8744 35.5405 36.5098 36.0002 36.0502C36.4598 35.5905 36.8244 35.0448 37.0732 34.4443C37.322 33.8437 37.45 33.2 37.45 32.55C37.45 31.9 37.322 31.2563 37.0732 30.6557C36.8244 30.0552 36.4598 29.5095 36.0002 29.0498C35.5405 28.5902 34.9948 28.2256 34.3943 27.9768C33.7937 27.728 33.15 27.6 32.5 27.6C31.85 27.6 31.2063 27.728 30.6057 27.9768C30.0052 28.2256 29.4595 28.5902 28.9998 29.0498C28.5402 29.5095 28.1756 30.0552 27.9268 30.6557C27.678 31.2563 27.55 31.9 27.55 32.55C27.55 33.2 27.678 33.8437 27.9268 34.4443C28.1756 35.0448 28.5402 35.5905 28.9998 36.0502C29.4595 36.5098 30.0052 36.8744 30.6057 37.1232C31.2063 37.372 31.85 37.5 32.5 37.5ZM29.4733 40.8H35.5216C38.3162 40.8 40.5953 42.9914 40.7397 45.75H24.2552C24.3995 42.9914 26.6786 40.8 29.4733 40.8ZM29.4733 39.15C25.6783 39.15 22.6 42.2283 22.6 46.0233C22.6 46.7812 23.2136 47.4 23.9767 47.4H41.0284C41.7864 47.4 42.4052 46.7864 42.4052 46.0233C42.4 42.2283 39.3217 39.15 35.5267 39.15H29.4784H29.4733ZM42.4 22.65C43.0564 22.65 43.6859 22.9108 44.1501 23.3749C44.6142 23.8391 44.875 24.4686 44.875 25.125C44.875 25.7814 44.6142 26.4109 44.1501 26.8751C43.6859 27.3392 43.0564 27.6 42.4 27.6C41.7436 27.6 41.1141 27.3392 40.6499 26.8751C40.1858 26.4109 39.925 25.7814 39.925 25.125C39.925 24.4686 40.1858 23.8391 40.6499 23.3749C41.1141 22.9108 41.7436 22.65 42.4 22.65ZM42.4 29.25C43.494 29.25 44.5432 28.8154 45.3168 28.0418C46.0904 27.2682 46.525 26.219 46.525 25.125C46.525 24.031 46.0904 22.9818 45.3168 22.2082C44.5432 21.4346 43.494 21 42.4 21C41.306 21 40.2568 21.4346 39.4832 22.2082C38.7096 22.9818 38.275 24.031 38.275 25.125C38.275 26.219 38.7096 27.2682 39.4832 28.0418C40.2568 28.8154 41.306 29.25 42.4 29.25ZM43.225 32.55C45.5041 32.55 47.35 34.3959 47.35 36.675C47.35 37.1287 47.7212 37.5 48.175 37.5C48.6287 37.5 49 37.1287 49 36.675C49 33.4833 46.4167 30.9 43.225 30.9H38.8937C39.0278 31.4259 39.1 31.9828 39.1 32.55H43.225ZM25.9 32.55C25.9 31.9828 25.9722 31.4259 26.1062 30.9H21.775C18.5833 30.9 16 33.4833 16 36.675C16 37.1287 16.3712 37.5 16.825 37.5C17.2787 37.5 17.65 37.1287 17.65 36.675C17.65 34.3959 19.4959 32.55 21.775 32.55H25.9Z" fill="#F5F5F5"/>
<defs>
<linearGradient id="paint0_linear_5048_88" x1="2.93509" y1="47.304" x2="90.729" y2="41.1037" gradientUnits="userSpaceOnUse">
<stop stop-color="#6645EB"/>
<stop offset="1" stop-color="#D445EB"/>
</linearGradient>
</defs>
</svg>
