<svg width="34" height="30" viewBox="0 0 34 30" fill="none" xmlns="http://www.w3.org/2000/svg">
<path d="M26.3858 1.88744L32.0519 11.7029L26.7871 14.7425L21.121 4.92709L26.3858 1.88744ZM20.3005 7.28799L24.1842 14.0165L21.9473 15.2265C21.1151 13.8926 19.6336 13.0014 17.9397 13.0014C15.3309 13.0014 13.2179 15.1144 13.2179 17.7231C13.2179 18.4314 13.3772 19.1102 13.6546 19.7122L7.92946 22.8109C7.92355 22.8109 7.92355 22.8109 7.92355 22.8109H7.91765C7.91765 22.8109 7.91175 22.8109 7.91175 22.805L7.90585 22.7991L4.68913 17.2274C4.68913 17.2215 4.68913 17.2215 4.68913 17.2215V17.2156C4.68913 17.2156 4.68913 17.2097 4.69503 17.2097L4.70093 17.2038L20.3005 7.28799ZM25.1227 15.6397L25.1522 15.6869C25.6716 16.5899 26.8284 16.8968 27.7315 16.3774L32.9963 13.3378C33.8993 12.8184 34.2062 11.6615 33.6868 10.7585L28.0207 0.943081C27.5013 0.0400389 26.3444 -0.266878 25.4414 0.252519L20.1766 3.29217C19.3444 3.77616 19.0139 4.79724 19.3798 5.65897L3.69165 15.622C2.83582 16.165 2.56432 17.2864 3.06601 18.1599L6.28273 23.7375C6.79623 24.6229 7.91765 24.9416 8.81479 24.4517L14.54 21.3589L11.4059 28.6836C11.1993 29.1617 11.4236 29.7165 11.9017 29.9231C12.3797 30.1297 12.9346 29.9054 13.1411 29.4273L16.2634 22.138C16.7828 22.3328 17.3494 22.4449 17.9397 22.4449C18.5299 22.4449 19.0965 22.3387 19.6159 22.138L22.7382 29.4273C22.9448 29.9054 23.4996 30.1297 23.9776 29.9231C24.4557 29.7165 24.68 29.1617 24.4734 28.6836L21.2272 21.111C22.1125 20.2552 22.6614 19.0512 22.6614 17.7231C22.6614 17.4753 22.6437 17.2333 22.6083 16.9972L25.1227 15.6338V15.6397ZM17.9397 14.8901C18.691 14.8901 19.4116 15.1886 19.9429 15.7199C20.4742 16.2512 20.7727 16.9718 20.7727 17.7231C20.7727 18.4745 20.4742 19.1951 19.9429 19.7264C19.4116 20.2577 18.691 20.5562 17.9397 20.5562C17.1883 20.5562 16.4677 20.2577 15.9364 19.7264C15.4051 19.1951 15.1066 18.4745 15.1066 17.7231C15.1066 16.9718 15.4051 16.2512 15.9364 15.7199C16.4677 15.1886 17.1883 14.8901 17.9397 14.8901ZM1.76162 20.5621C1.50192 20.1077 0.923497 19.9542 0.474927 20.208C0.026357 20.4618 -0.133004 21.0461 0.120793 21.4947L2.00951 24.7999C2.26921 25.2544 2.84763 25.4079 3.2962 25.1541C3.74477 24.9003 3.90413 24.3159 3.65033 23.8674L1.76162 20.5621Z" fill="url(#paint0_linear_2659_101)"/>
<defs>
<linearGradient id="paint0_linear_2659_101" x1="1.52574" y1="21.1898" x2="47.3062" y2="17.4873" gradientUnits="userSpaceOnUse">
<stop stop-color="#6645EB"/>
<stop offset="1" stop-color="#D445EB"/>
</linearGradient>
</defs>
</svg>
