<svg width="65" height="67" viewBox="0 0 65 67" fill="none" xmlns="http://www.w3.org/2000/svg">
<rect x="0.0136719" y="0.336426" width="64.9855" height="65.7817" rx="15" fill="white" fill-opacity="0.05"/>
<rect x="0.513672" y="0.836426" width="63.9855" height="64.7817" rx="14.5" stroke="white" stroke-opacity="0.1"/>
<mask id="mask0_2088_288" style="mask-type:alpha" maskUnits="userSpaceOnUse" x="0" y="0" width="65" height="67">
<rect x="0.0136719" y="0.336426" width="64.9855" height="65.7817" rx="15" fill="white"/>
</mask>
<g mask="url(#mask0_2088_288)">
<g filter="url(#filter0_f_2088_288)">
<circle cx="32.7792" cy="65.3189" r="11.0409" fill="#6645EB"/>
</g>
<path d="M42.3858 19.8874L48.0519 29.7029L42.7871 32.7425L37.121 22.9271L42.3858 19.8874ZM36.3005 25.288L40.1842 32.0165L37.9473 33.2265C37.1151 31.8926 35.6336 31.0014 33.9397 31.0014C31.3309 31.0014 29.2179 33.1144 29.2179 35.7231C29.2179 36.4314 29.3772 37.1102 29.6546 37.7122L23.9295 40.8109C23.9236 40.8109 23.9236 40.8109 23.9236 40.8109H23.9177C23.9177 40.8109 23.9117 40.8109 23.9117 40.805L23.9058 40.7991L20.6891 35.2274C20.6891 35.2215 20.6891 35.2215 20.6891 35.2215V35.2156C20.6891 35.2156 20.6891 35.2097 20.695 35.2097L20.7009 35.2038L36.3005 25.288ZM41.1227 33.6397L41.1522 33.6869C41.6716 34.5899 42.8284 34.8968 43.7315 34.3774L48.9963 31.3378C49.8993 30.8184 50.2062 29.6615 49.6868 28.7585L44.0207 18.9431C43.5013 18.04 42.3444 17.7331 41.4414 18.2525L36.1766 21.2922C35.3444 21.7762 35.0139 22.7972 35.3798 23.659L19.6916 33.622C18.8358 34.165 18.5643 35.2864 19.066 36.1599L22.2827 41.7375C22.7962 42.6229 23.9177 42.9416 24.8148 42.4517L30.54 39.3589L27.4059 46.6836C27.1993 47.1617 27.4236 47.7165 27.9017 47.9231C28.3797 48.1297 28.9346 47.9054 29.1411 47.4273L32.2634 40.138C32.7828 40.3328 33.3494 40.4449 33.9397 40.4449C34.5299 40.4449 35.0965 40.3387 35.6159 40.138L38.7382 47.4273C38.9448 47.9054 39.4996 48.1297 39.9776 47.9231C40.4557 47.7165 40.68 47.1617 40.4734 46.6836L37.2272 39.111C38.1125 38.2552 38.6614 37.0512 38.6614 35.7231C38.6614 35.4753 38.6437 35.2333 38.6083 34.9972L41.1227 33.6338V33.6397ZM33.9397 32.8901C34.691 32.8901 35.4116 33.1886 35.9429 33.7199C36.4742 34.2512 36.7727 34.9718 36.7727 35.7231C36.7727 36.4745 36.4742 37.1951 35.9429 37.7264C35.4116 38.2577 34.691 38.5562 33.9397 38.5562C33.1883 38.5562 32.4677 38.2577 31.9364 37.7264C31.4051 37.1951 31.1066 36.4745 31.1066 35.7231C31.1066 34.9718 31.4051 34.2512 31.9364 33.7199C32.4677 33.1886 33.1883 32.8901 33.9397 32.8901ZM17.7616 38.5621C17.5019 38.1077 16.9235 37.9542 16.4749 38.208C16.0264 38.4618 15.867 39.0461 16.1208 39.4947L18.0095 42.7999C18.2692 43.2544 18.8476 43.4079 19.2962 43.1541C19.7448 42.9003 19.9041 42.3159 19.6503 41.8674L17.7616 38.5621Z" fill="url(#paint0_linear_2088_288)"/>
</g>
<defs>
<filter id="filter0_f_2088_288" x="-6.76172" y="25.778" width="79.0818" height="79.0818" filterUnits="userSpaceOnUse" color-interpolation-filters="sRGB">
<feFlood flood-opacity="0" result="BackgroundImageFix"/>
<feBlend mode="normal" in="SourceGraphic" in2="BackgroundImageFix" result="shape"/>
<feGaussianBlur stdDeviation="14.25" result="effect1_foregroundBlur_2088_288"/>
</filter>
<linearGradient id="paint0_linear_2088_288" x1="17.5257" y1="39.1898" x2="63.3062" y2="35.4873" gradientUnits="userSpaceOnUse">
<stop stop-color="#6645EB"/>
<stop offset="1" stop-color="#D445EB"/>
</linearGradient>
</defs>
</svg>
