<svg width="65" height="67" viewBox="0 0 65 67" fill="none" xmlns="http://www.w3.org/2000/svg">
<rect x="0.0136719" y="0.336426" width="64.9855" height="65.7817" rx="15" fill="white" fill-opacity="0.05"/>
<rect x="0.513672" y="0.836426" width="63.9855" height="64.7817" rx="14.5" stroke="white" stroke-opacity="0.1"/>
<mask id="mask0_2088_310" style="mask-type:alpha" maskUnits="userSpaceOnUse" x="0" y="0" width="65" height="67">
<rect x="0.0136719" y="0.336426" width="64.9855" height="65.7817" rx="15" fill="white"/>
</mask>
<g mask="url(#mask0_2088_310)">
<g filter="url(#filter0_f_2088_310)">
<circle cx="32.7792" cy="65.3189" r="11.0409" fill="#6645EB"/>
</g>
<path d="M43.7275 18.2725C44.0908 18.6359 44.0908 19.2336 43.7275 19.597L40.5276 22.7968C40.0002 23.3243 39.2852 23.6232 38.5409 23.6232H31.813C29.7443 23.6232 28.0623 25.3051 28.0623 27.3739V33C28.0623 34.0373 28.9004 34.8754 29.9377 34.8754C30.975 34.8754 31.813 34.0373 31.813 33V27.8427C31.813 27.327 32.235 26.9051 32.7507 26.9051C33.2665 26.9051 33.6884 27.327 33.6884 27.8427V29.2493H40.2522C42.321 29.2493 44.0029 30.9312 44.0029 33C44.0029 34.4358 43.2 35.6783 42.0162 36.3112C42.0865 36.6042 42.1276 36.909 42.1276 37.2196C42.1276 38.9719 40.9262 40.4429 39.2969 40.859C39.1211 42.7636 37.5153 44.2522 35.5638 44.2522H27.9041C27.6579 44.2522 27.4177 44.3518 27.2418 44.5276L24.042 47.7275C23.6786 48.0908 23.0809 48.0908 22.7175 47.7275C22.3542 47.3641 22.3542 46.7664 22.7175 46.403L25.9174 43.2032C26.4448 42.6757 27.1598 42.3768 27.9041 42.3768H35.5638C36.6011 42.3768 37.4391 41.5388 37.4391 40.5015C37.4391 40.396 37.4274 40.2905 37.4157 40.185C37.3688 39.9096 37.445 39.6282 37.6267 39.4173C37.8084 39.2063 38.0721 39.0891 38.3534 39.0891H38.3768C39.4141 39.0891 40.2522 38.251 40.2522 37.2137C40.2522 36.8562 40.1526 36.528 39.9826 36.2409C39.8244 35.9771 39.8009 35.6548 39.9299 35.3735C40.0588 35.0922 40.3108 34.8929 40.6097 34.8343C41.477 34.6702 42.1276 33.9084 42.1276 32.9941C42.1276 31.9568 41.2895 31.1188 40.2522 31.1188H33.6884V32.9941C33.6884 35.0629 32.0064 36.7449 29.9377 36.7449C27.8689 36.7449 26.1869 35.0629 26.1869 32.9941V27.368C26.1869 24.262 28.707 21.7419 31.813 21.7419H38.5351C38.7812 21.7419 39.0215 21.6423 39.1973 21.4665L42.403 18.2725C42.7664 17.9092 43.3641 17.9092 43.7275 18.2725ZM21.3579 29.1496C21.897 27.7138 22.9754 26.6003 24.3116 25.9967V28.1709C23.7783 28.587 23.3563 29.1496 23.1102 29.806L21.5806 33.8849C21.4399 34.26 21.2172 34.5999 20.9359 34.8871L15.597 40.226C15.2336 40.5894 14.6359 40.5894 14.2725 40.226C13.9092 39.8627 13.9092 39.2649 14.2725 38.9015L19.6114 33.5626C19.7052 33.4688 19.7814 33.3516 19.8283 33.2286L21.3579 29.1496ZM51.2348 25.774C51.5982 26.1373 51.5982 26.7351 51.2348 27.0985L45.8549 32.4726C45.7845 31.74 45.5794 31.0426 45.2571 30.4214L49.9045 25.774C50.2678 25.4106 50.8656 25.4106 51.229 25.774H51.2348Z" fill="url(#paint0_linear_2088_310)"/>
</g>
<defs>
<filter id="filter0_f_2088_310" x="-6.76172" y="25.778" width="79.0818" height="79.0818" filterUnits="userSpaceOnUse" color-interpolation-filters="sRGB">
<feFlood flood-opacity="0" result="BackgroundImageFix"/>
<feBlend mode="normal" in="SourceGraphic" in2="BackgroundImageFix" result="shape"/>
<feGaussianBlur stdDeviation="14.25" result="effect1_foregroundBlur_2088_310"/>
</filter>
<linearGradient id="paint0_linear_2088_310" x1="15.6861" y1="39.1898" x2="66.2068" y2="34.6744" gradientUnits="userSpaceOnUse">
<stop stop-color="#6645EB"/>
<stop offset="1" stop-color="#D445EB"/>
</linearGradient>
</defs>
</svg>
