<svg width="38" height="30" viewBox="0 0 38 30" fill="none" xmlns="http://www.w3.org/2000/svg">
<path d="M29.7275 0.272514C30.0908 0.635866 30.0908 1.23364 29.7275 1.59699L26.5276 4.79684C26.0002 5.32428 25.2852 5.62317 24.5409 5.62317H17.813C15.7443 5.62317 14.0623 7.30514 14.0623 9.3739V15C14.0623 16.0373 14.9004 16.8754 15.9377 16.8754C16.975 16.8754 17.813 16.0373 17.813 15V9.84274C17.813 9.32702 18.235 8.90506 18.7507 8.90506C19.2665 8.90506 19.6884 9.32702 19.6884 9.84274V11.2493H26.2522C28.321 11.2493 30.0029 12.9312 30.0029 15C30.0029 16.4358 29.2 17.6783 28.0162 18.3112C28.0865 18.6042 28.1276 18.909 28.1276 19.2196C28.1276 20.9719 26.9262 22.4429 25.2969 22.859C25.1211 24.7636 23.5153 26.2522 21.5638 26.2522H13.9041C13.6579 26.2522 13.4177 26.3518 13.2418 26.5276L10.042 29.7275C9.67865 30.0908 9.08087 30.0908 8.71752 29.7275C8.35417 29.3641 8.35417 28.7664 8.71752 28.403L11.9174 25.2032C12.4448 24.6757 13.1598 24.3768 13.9041 24.3768H21.5638C22.6011 24.3768 23.4391 23.5388 23.4391 22.5015C23.4391 22.396 23.4274 22.2905 23.4157 22.185C23.3688 21.9096 23.445 21.6282 23.6267 21.4173C23.8084 21.2063 24.0721 21.0891 24.3534 21.0891H24.3768C25.4141 21.0891 26.2522 20.251 26.2522 19.2137C26.2522 18.8562 26.1526 18.528 25.9826 18.2409C25.8244 17.9771 25.8009 17.6548 25.9299 17.3735C26.0588 17.0922 26.3108 16.8929 26.6097 16.8343C27.477 16.6702 28.1276 15.9084 28.1276 14.9941C28.1276 13.9568 27.2895 13.1188 26.2522 13.1188H19.6884V14.9941C19.6884 17.0629 18.0064 18.7449 15.9377 18.7449C13.8689 18.7449 12.1869 17.0629 12.1869 14.9941V9.36804C12.1869 6.26196 14.707 3.74194 17.813 3.74194H24.5351C24.7812 3.74194 25.0215 3.64231 25.1973 3.4665L28.403 0.272514C28.7664 -0.0908381 29.3641 -0.0908381 29.7275 0.272514ZM7.35788 11.1496C7.89705 9.71381 8.97539 8.60031 10.3116 7.99668V10.1709C9.77828 10.587 9.35632 11.1496 9.11018 11.806L7.58058 15.8849C7.43993 16.26 7.21723 16.5999 6.93592 16.8871L1.59699 22.226C1.23364 22.5894 0.635866 22.5894 0.272514 22.226C-0.0908381 21.8627 -0.0908381 21.2649 0.272514 20.9015L5.61145 15.5626C5.70522 15.4688 5.7814 15.3516 5.82829 15.2286L7.35788 11.1496ZM37.2348 7.77398C37.5982 8.13733 37.5982 8.7351 37.2348 9.09846L31.8549 14.4726C31.7845 13.74 31.5794 13.0426 31.2571 12.4214L35.9045 7.77398C36.2678 7.41063 36.8656 7.41063 37.229 7.77398H37.2348Z" fill="url(#paint0_linear_2687_959)"/>
<defs>
<linearGradient id="paint0_linear_2687_959" x1="1.68614" y1="21.1898" x2="52.2068" y2="16.6744" gradientUnits="userSpaceOnUse">
<stop stop-color="#6645EB"/>
<stop offset="1" stop-color="#D445EB"/>
</linearGradient>
</defs>
</svg>
