<svg width="65" height="67" viewBox="0 0 65 67" fill="none" xmlns="http://www.w3.org/2000/svg">
<rect x="0.0136719" y="0.336426" width="64.9855" height="65.7817" rx="15" fill="white" fill-opacity="0.05"/>
<rect x="0.513672" y="0.836426" width="63.9855" height="64.7817" rx="14.5" stroke="white" stroke-opacity="0.1"/>
<mask id="mask0_2088_333" style="mask-type:alpha" maskUnits="userSpaceOnUse" x="0" y="0" width="65" height="67">
<rect x="0.0136719" y="0.336426" width="64.9855" height="65.7817" rx="15" fill="white"/>
</mask>
<g mask="url(#mask0_2088_333)">
<g filter="url(#filter0_f_2088_333)">
<circle cx="32.7792" cy="65.3189" r="11.0409" fill="#6645EB"/>
</g>
<path d="M23.5384 22.0986L23.1826 23.3928C23.1105 23.6609 22.9042 23.8775 22.6361 23.96C21.8833 24.1972 21.1975 24.5994 20.6251 25.1201C20.4189 25.3109 20.1301 25.3831 19.8569 25.3109L18.5626 24.9706C18.4492 25.1304 18.3409 25.2954 18.2378 25.4656L18.1141 25.6822C18.0212 25.8523 17.9336 26.0225 17.8562 26.1978L18.7998 27.1517C18.9958 27.3528 19.0783 27.6364 19.0164 27.9097C18.9287 28.2861 18.8875 28.6728 18.8875 29.075C18.8875 29.4772 18.9287 29.8639 19.0112 30.2351C19.0731 30.5084 18.9906 30.792 18.7947 30.9931L17.8511 31.9522C17.9284 32.1275 18.0161 32.2976 18.1089 32.4678L18.2378 32.6895C18.3409 32.8597 18.4492 33.0247 18.5626 33.1845L19.862 32.839C20.1353 32.7669 20.4241 32.839 20.6303 33.0298C21.2026 33.5558 21.8833 33.9528 22.6412 34.19C22.9094 34.2725 23.1156 34.489 23.1878 34.7572L23.5436 36.0514C23.7756 36.0772 24.0128 36.0875 24.2551 36.0875C24.4975 36.0875 24.7295 36.0772 24.9667 36.0514L25.3225 34.7572C25.3947 34.489 25.6009 34.2725 25.8691 34.19C26.6219 33.9528 27.3076 33.5506 27.88 33.0298C28.0862 32.839 28.375 32.7669 28.6483 32.839L29.9476 33.1794C30.0611 33.0247 30.1642 32.8648 30.2622 32.6998L30.4066 32.4523C30.4942 32.2873 30.5819 32.1223 30.6541 31.9522L29.7105 30.9983C29.5145 30.7972 29.432 30.5136 29.4939 30.2403C29.5764 29.869 29.6176 29.4772 29.6176 29.075C29.6176 28.6728 29.5764 28.2861 29.4939 27.9097C29.432 27.6364 29.5145 27.3528 29.7105 27.1517L30.6541 26.1978C30.5767 26.0276 30.4942 25.8626 30.4066 25.6976L30.2622 25.4501C30.1642 25.2851 30.0559 25.1253 29.9476 24.9706L28.638 25.3109C28.3647 25.3831 28.0759 25.3109 27.8697 25.1201C27.2973 24.5942 26.6167 24.1972 25.8587 23.96C25.5906 23.8775 25.3844 23.6609 25.3122 23.3928L24.9564 22.0986C24.7244 22.0728 24.4872 22.0625 24.2448 22.0625C24.0025 22.0625 23.7705 22.0728 23.5333 22.0986H23.5384ZM22.7444 20.5414C23.2342 20.4589 23.7395 20.4125 24.25 20.4125C24.7605 20.4125 25.2658 20.4589 25.7505 20.5414C26.065 20.5981 26.3176 20.8301 26.4053 21.1344L26.792 22.5369C27.4675 22.7998 28.0862 23.1608 28.6431 23.6042L30.0508 23.2381C30.3601 23.1556 30.685 23.2639 30.8912 23.5062C31.18 23.8517 31.443 24.2178 31.675 24.6045L31.6853 24.62L31.8348 24.8829L31.8451 24.8984C32.0566 25.2851 32.2422 25.6925 32.3969 26.1153C32.5051 26.4144 32.433 26.7495 32.2112 26.9764L31.1903 28.0128C31.2419 28.3634 31.2728 28.7192 31.2728 29.0801C31.2728 29.4411 31.247 29.7969 31.1903 30.1475L32.2112 31.1839C32.433 31.4108 32.5103 31.7459 32.3969 32.045C32.2422 32.4678 32.0566 32.87 31.8451 33.2619L31.8348 33.2773L31.6801 33.5403L31.6698 33.5558C31.4378 33.9425 31.1748 34.3086 30.8861 34.654C30.6798 34.8964 30.355 35.0047 30.0456 34.9222L28.638 34.5561C28.0862 34.9995 27.4623 35.3604 26.792 35.6234L26.4053 37.0156C26.3228 37.325 26.065 37.557 25.7505 37.6086C25.2606 37.6962 24.7605 37.7375 24.25 37.7375C23.7395 37.7375 23.2342 37.6911 22.7444 37.6086C22.4298 37.5519 22.1772 37.3198 22.0895 37.0156L21.7028 35.6131C21.0273 35.3501 20.4086 34.9892 19.8569 34.5458L18.4492 34.9119C18.1398 34.9944 17.815 34.8861 17.6087 34.6437C17.3148 34.2931 17.0467 33.9219 16.8147 33.53L16.8095 33.5197L16.6755 33.2876L16.6703 33.2773C16.4537 32.8854 16.263 32.4729 16.1083 32.045C16 31.7459 16.0722 31.4108 16.2939 31.1839L17.3148 30.1475C17.2633 29.7917 17.2375 29.4359 17.2375 29.075C17.2375 28.714 17.2633 28.3583 17.32 28.0076L16.2939 26.9712C16.0722 26.7444 15.9948 26.4092 16.1083 26.1101C16.263 25.6822 16.4537 25.2697 16.6703 24.8778L16.6755 24.8675L16.8095 24.6354L16.8147 24.6251C17.0519 24.2281 17.32 23.8569 17.6139 23.5062C17.8201 23.2639 18.145 23.1556 18.4544 23.2381L19.862 23.6042C20.4137 23.1608 21.0376 22.7998 21.708 22.5369L22.0947 21.1344C22.1772 20.825 22.435 20.5929 22.7495 20.5414H22.7444ZM21.3625 29.075C21.3625 28.6958 21.4372 28.3203 21.5823 27.97C21.7274 27.6196 21.9401 27.3013 22.2082 27.0332C22.4764 26.7651 22.7947 26.5524 23.145 26.4073C23.4953 26.2622 23.8708 26.1875 24.25 26.1875C24.6292 26.1875 25.0047 26.2622 25.355 26.4073C25.7053 26.5524 26.0236 26.7651 26.2918 27.0332C26.5599 27.3013 26.7726 27.6196 26.9177 27.97C27.0628 28.3203 27.1375 28.6958 27.1375 29.075C27.1375 29.4542 27.0628 29.8296 26.9177 30.18C26.7726 30.5303 26.5599 30.8486 26.2918 31.1167C26.0236 31.3849 25.7053 31.5976 25.355 31.7427C25.0047 31.8878 24.6292 31.9625 24.25 31.9625C23.8708 31.9625 23.4953 31.8878 23.145 31.7427C22.7947 31.5976 22.4764 31.3849 22.2082 31.1167C21.9401 30.8486 21.7274 30.5303 21.5823 30.18C21.4372 29.8296 21.3625 29.4542 21.3625 29.075ZM24.25 30.3125C24.4125 30.3125 24.5734 30.2805 24.7236 30.2183C24.8737 30.1561 25.0101 30.0649 25.125 29.95C25.2399 29.8351 25.3311 29.6987 25.3933 29.5485C25.4555 29.3984 25.4875 29.2375 25.4875 29.075C25.4875 28.9125 25.4555 28.7515 25.3933 28.6014C25.3311 28.4513 25.2399 28.3148 25.125 28.1999C25.0101 28.085 24.8737 27.9939 24.7236 27.9317C24.5734 27.8695 24.4125 27.8375 24.25 27.8375C24.0875 27.8375 23.9266 27.8695 23.7764 27.9317C23.6263 27.9939 23.4899 28.085 23.3749 28.1999C23.26 28.3148 23.1689 28.4513 23.1067 28.6014C23.0445 28.7515 23.0125 28.9125 23.0125 29.075C23.0125 29.2375 23.0445 29.3984 23.1067 29.5485C23.1689 29.6987 23.26 29.8351 23.3749 29.95C23.4899 30.0649 23.6263 30.1561 23.7764 30.2183C23.9266 30.2805 24.0875 30.3125 24.25 30.3125ZM32.9486 38.8615L34.2428 39.2173C34.5109 39.2895 34.7275 39.4958 34.81 39.7639C35.0472 40.5167 35.4494 41.2025 35.9701 41.7748C36.1609 41.9811 36.2331 42.2698 36.1609 42.5431L35.8206 43.8425C35.9805 43.9559 36.1455 44.0642 36.3156 44.1673L36.5322 44.2911C36.7023 44.3839 36.8725 44.4715 37.0478 44.5489L38.0017 43.6053C38.2028 43.4093 38.4864 43.3269 38.7597 43.3887C39.1309 43.4712 39.5228 43.5125 39.9198 43.5125C40.3169 43.5125 40.7087 43.4712 41.08 43.3887C41.3533 43.3269 41.6369 43.4093 41.838 43.6053L42.7919 44.5489C42.9672 44.4715 43.1373 44.3839 43.3075 44.2911L43.5292 44.1622C43.6994 44.059 43.8644 43.9508 44.0242 43.8373L43.6891 42.5379C43.6169 42.2647 43.6891 41.9759 43.8798 41.7697C44.4058 41.1973 44.8028 40.5167 45.04 39.7587C45.1225 39.4906 45.3391 39.2844 45.6072 39.2122L46.9014 38.8564C46.9272 38.6244 46.9375 38.3872 46.9375 38.1448C46.9375 37.9025 46.9272 37.6704 46.9014 37.4333L45.6072 37.0775C45.3391 37.0053 45.1225 36.799 45.04 36.5309C44.8028 35.7729 44.4006 35.0923 43.8798 34.52C43.6891 34.3137 43.6169 34.025 43.6891 33.7517L44.0294 32.4523C43.8747 32.3389 43.7148 32.2358 43.5498 32.1378L43.3023 31.9934C43.1373 31.9058 42.9723 31.8181 42.8022 31.7459L41.8483 32.6895C41.6472 32.8854 41.3636 32.9679 41.0903 32.9061C40.7191 32.8236 40.3272 32.7823 39.925 32.7823C39.5228 32.7823 39.1361 32.8236 38.7597 32.9061C38.4864 32.9679 38.2028 32.8854 38.0017 32.6895L37.0478 31.7459C36.8776 31.8233 36.7126 31.9058 36.5476 31.9934L36.3001 32.1378C36.1351 32.2358 35.9753 32.344 35.8206 32.4523L36.1609 33.7517C36.2331 34.025 36.1609 34.3137 35.9701 34.52C35.4442 35.0923 35.0472 35.7729 34.81 36.5309C34.7275 36.799 34.5109 37.0053 34.2428 37.0775L32.9486 37.4333C32.9228 37.6653 32.9125 37.9025 32.9125 38.1448C32.9125 38.3872 32.9228 38.6192 32.9486 38.8564V38.8615ZM31.3914 39.6556C31.3037 39.1658 31.2625 38.6656 31.2625 38.15C31.2625 37.6343 31.3089 37.1342 31.3914 36.6495C31.4481 36.335 31.6801 36.0823 31.9844 35.9947L33.3869 35.6079C33.6498 34.9325 34.0108 34.3137 34.4542 33.7568L34.0881 32.3492C34.0056 32.0398 34.1139 31.715 34.3562 31.5087C34.7017 31.22 35.0678 30.957 35.4545 30.725L35.47 30.7147L35.733 30.5651L35.7484 30.5548C36.1351 30.3434 36.5425 30.1578 36.9653 30.0031C37.2644 29.8948 37.5995 29.967 37.8264 30.1887L38.8628 31.2097C39.2134 31.1581 39.5692 31.1272 39.9301 31.1272C40.2911 31.1272 40.6469 31.1529 40.9975 31.2097L42.0339 30.1887C42.2608 29.967 42.5959 29.8897 42.895 30.0031C43.3178 30.1578 43.72 30.3434 44.1119 30.5548L44.1273 30.5651L44.3903 30.7198L44.4058 30.7301C44.7925 30.9622 45.1586 31.2251 45.5041 31.5139C45.7464 31.7201 45.8495 32.045 45.7722 32.3544L45.4061 33.762C45.8495 34.3137 46.2105 34.9376 46.4734 35.6079L47.8759 35.9947C48.1853 36.0772 48.4173 36.335 48.4689 36.6495C48.5566 37.1394 48.5978 37.6395 48.5978 38.15C48.5978 38.6604 48.5514 39.1658 48.4689 39.6556C48.4122 39.9701 48.1801 40.2228 47.8759 40.3104L46.4734 40.6972C46.2105 41.3726 45.8495 41.9914 45.4061 42.5431L45.7722 43.9508C45.8547 44.2601 45.7464 44.585 45.5041 44.7912C45.1534 45.0851 44.7822 45.3533 44.3903 45.5853L44.38 45.5904L44.148 45.7245L44.1376 45.7297C43.7458 45.9462 43.3333 46.137 42.9053 46.2917C42.6062 46.4 42.2711 46.3278 42.0442 46.1061L41.0078 45.0851C40.6572 45.1367 40.3014 45.1676 39.9405 45.1676C39.5795 45.1676 39.2237 45.1418 38.8731 45.0851L37.8367 46.1061C37.6098 46.3278 37.2747 46.4051 36.9756 46.2917C36.5476 46.137 36.1351 45.9462 35.7433 45.7297L35.733 45.7245L35.5009 45.5904L35.4906 45.5853C35.0987 45.3481 34.7223 45.08 34.3769 44.7912C34.1345 44.585 34.0262 44.2601 34.1087 43.9508L34.4748 42.5431C34.0314 41.9914 33.6705 41.3675 33.4075 40.6972L31.9844 40.3053C31.675 40.2228 31.443 39.965 31.3914 39.6504V39.6556ZM39.925 41.0375C39.1592 41.0375 38.4247 40.7333 37.8832 40.1917C37.3417 39.6502 37.0375 38.9158 37.0375 38.15C37.0375 37.3842 37.3417 36.6497 37.8832 36.1082C38.4247 35.5667 39.1592 35.2625 39.925 35.2625C40.6908 35.2625 41.4253 35.5667 41.9668 36.1082C42.5083 36.6497 42.8125 37.3842 42.8125 38.15C42.8125 38.9158 42.5083 39.6502 41.9668 40.1917C41.4253 40.7333 40.6908 41.0375 39.925 41.0375ZM41.1625 38.15C41.1625 37.8218 41.0321 37.507 40.8 37.2749C40.568 37.0429 40.2532 36.9125 39.925 36.9125C39.5968 36.9125 39.282 37.0429 39.0499 37.2749C38.8179 37.507 38.6875 37.8218 38.6875 38.15C38.6875 38.4782 38.8179 38.7929 39.0499 39.025C39.282 39.2571 39.5968 39.3875 39.925 39.3875C40.2532 39.3875 40.568 39.2571 40.8 39.025C41.0321 38.7929 41.1625 38.4782 41.1625 38.15Z" fill="url(#paint0_linear_2088_333)"/>
</g>
<defs>
<filter id="filter0_f_2088_333" x="-6.76172" y="25.778" width="79.0818" height="79.0818" filterUnits="userSpaceOnUse" color-interpolation-filters="sRGB">
<feFlood flood-opacity="0" result="BackgroundImageFix"/>
<feBlend mode="normal" in="SourceGraphic" in2="BackgroundImageFix" result="shape"/>
<feGaussianBlur stdDeviation="14.25" result="effect1_foregroundBlur_2088_333"/>
</filter>
<linearGradient id="paint0_linear_2088_333" x1="17.5193" y1="38.7283" x2="61.3485" y2="34.7963" gradientUnits="userSpaceOnUse">
<stop stop-color="#6645EB"/>
<stop offset="1" stop-color="#D445EB"/>
</linearGradient>
</defs>
</svg>
