<svg width="33" height="27" viewBox="0 0 33 27" fill="none" xmlns="http://www.w3.org/2000/svg">
<path d="M7.53843 2.09857L7.18265 3.39279C7.11046 3.66091 6.90421 3.87748 6.63609 3.95998C5.88327 4.19716 5.19749 4.59935 4.62515 5.12013C4.4189 5.31091 4.13015 5.3831 3.85687 5.31091L2.56265 4.9706C2.44921 5.13044 2.34093 5.29544 2.23781 5.4656L2.11406 5.68216C2.02124 5.85232 1.93359 6.02248 1.85624 6.19779L2.79984 7.15169C2.99577 7.35279 3.07827 7.63638 3.0164 7.90966C2.92874 8.28607 2.88749 8.67279 2.88749 9.07498C2.88749 9.47716 2.92874 9.86388 3.01124 10.2351C3.07312 10.5084 2.99062 10.792 2.79468 10.9931L1.85109 11.9522C1.92843 12.1275 2.01609 12.2976 2.1089 12.4678L2.23781 12.6895C2.34093 12.8597 2.44921 13.0247 2.56265 13.1845L3.86202 12.839C4.1353 12.7669 4.42406 12.839 4.63031 13.0298C5.20265 13.5558 5.88327 13.9528 6.64124 14.19C6.90937 14.2725 7.11562 14.489 7.1878 14.7572L7.54359 16.0514C7.77562 16.0772 8.0128 16.0875 8.25515 16.0875C8.49749 16.0875 8.72952 16.0772 8.96671 16.0514L9.32249 14.7572C9.39468 14.489 9.60093 14.2725 9.86905 14.19C10.6219 13.9528 11.3076 13.5506 11.88 13.0298C12.0862 12.839 12.375 12.7669 12.6483 12.839L13.9476 13.1794C14.0611 13.0247 14.1642 12.8648 14.2622 12.6998L14.4066 12.4523C14.4942 12.2873 14.5819 12.1223 14.6541 11.9522L13.7105 10.9983C13.5145 10.7972 13.432 10.5136 13.4939 10.2403C13.5764 9.86904 13.6176 9.47716 13.6176 9.07498C13.6176 8.67279 13.5764 8.28607 13.4939 7.90966C13.432 7.63638 13.5145 7.35279 13.7105 7.15169L14.6541 6.19779C14.5767 6.02763 14.4942 5.86263 14.4066 5.69763L14.2622 5.45013C14.1642 5.28513 14.0559 5.12529 13.9476 4.9706L12.638 5.31091C12.3647 5.3831 12.0759 5.31091 11.8697 5.12013C11.2973 4.59419 10.6167 4.19716 9.85874 3.95998C9.59062 3.87748 9.38437 3.66091 9.31218 3.39279L8.9564 2.09857C8.72437 2.07279 8.48718 2.06248 8.24484 2.06248C8.00249 2.06248 7.77046 2.07279 7.53327 2.09857H7.53843ZM6.74437 0.541382C7.23421 0.458882 7.73952 0.412476 8.24999 0.412476C8.76046 0.412476 9.26577 0.458882 9.75046 0.541382C10.065 0.598101 10.3176 0.830132 10.4053 1.13435L10.792 2.53685C11.4675 2.79982 12.0862 3.16076 12.6431 3.60419L14.0508 3.2381C14.3601 3.1556 14.685 3.26388 14.8912 3.50623C15.18 3.85169 15.443 4.21779 15.675 4.60451L15.6853 4.61998L15.8348 4.88294L15.8451 4.89841C16.0566 5.28513 16.2422 5.69248 16.3969 6.11529C16.5051 6.41435 16.433 6.74951 16.2112 6.97638L15.1903 8.01279C15.2419 8.36341 15.2728 8.71919 15.2728 9.08013C15.2728 9.44107 15.247 9.79685 15.1903 10.1475L16.2112 11.1839C16.433 11.4108 16.5103 11.7459 16.3969 12.045C16.2422 12.4678 16.0566 12.87 15.8451 13.2619L15.8348 13.2773L15.6801 13.5403L15.6698 13.5558C15.4378 13.9425 15.1748 14.3086 14.8861 14.654C14.6798 14.8964 14.355 15.0047 14.0456 14.9222L12.638 14.5561C12.0862 14.9995 11.4623 15.3604 10.792 15.6234L10.4053 17.0156C10.3228 17.325 10.065 17.557 9.75046 17.6086C9.26062 17.6962 8.76046 17.7375 8.24999 17.7375C7.73952 17.7375 7.23421 17.6911 6.74437 17.6086C6.42984 17.5519 6.17718 17.3198 6.08952 17.0156L5.70281 15.6131C5.02734 15.3501 4.40859 14.9892 3.85687 14.5458L2.44921 14.9119C2.13984 14.9944 1.81499 14.8861 1.60874 14.6437C1.31484 14.2931 1.04671 13.9219 0.81468 13.53L0.809524 13.5197L0.675462 13.2876L0.670305 13.2773C0.453743 12.8854 0.262962 12.4729 0.108274 12.045C-6.98492e-06 11.7459 0.0721805 11.4108 0.293899 11.1839L1.31484 10.1475C1.26327 9.79169 1.23749 9.43591 1.23749 9.07498C1.23749 8.71404 1.26327 8.35826 1.31999 8.00763L0.293899 6.97123C0.0721805 6.74435 -0.00516324 6.40919 0.108274 6.11013C0.262962 5.68216 0.453743 5.26966 0.670305 4.87779L0.675462 4.86748L0.809524 4.63544L0.81468 4.62513C1.05187 4.2281 1.31999 3.85685 1.6139 3.50623C1.82015 3.26388 2.14499 3.1556 2.45437 3.2381L3.86202 3.60419C4.41374 3.16076 5.03765 2.79982 5.70796 2.53685L6.09468 1.13435C6.17718 0.824976 6.43499 0.592944 6.74952 0.541382H6.74437ZM5.36249 9.07498C5.36249 8.69578 5.43718 8.3203 5.58229 7.96998C5.7274 7.61965 5.94009 7.30133 6.20822 7.03321C6.47635 6.76508 6.79467 6.55238 7.14499 6.40727C7.49532 6.26216 7.8708 6.18748 8.24999 6.18748C8.62918 6.18748 9.00466 6.26216 9.35499 6.40727C9.70532 6.55238 10.0236 6.76508 10.2918 7.03321C10.5599 7.30133 10.7726 7.61965 10.9177 7.96998C11.0628 8.3203 11.1375 8.69578 11.1375 9.07498C11.1375 9.45417 11.0628 9.82965 10.9177 10.18C10.7726 10.5303 10.5599 10.8486 10.2918 11.1167C10.0236 11.3849 9.70532 11.5976 9.35499 11.7427C9.00466 11.8878 8.62918 11.9625 8.24999 11.9625C7.8708 11.9625 7.49532 11.8878 7.14499 11.7427C6.79467 11.5976 6.47635 11.3849 6.20822 11.1167C5.94009 10.8486 5.7274 10.5303 5.58229 10.18C5.43718 9.82965 5.36249 9.45417 5.36249 9.07498ZM8.24999 10.3125C8.4125 10.3125 8.57342 10.2805 8.72356 10.2183C8.8737 10.1561 9.01012 10.0649 9.12504 9.95002C9.23995 9.83511 9.3311 9.69869 9.39329 9.54855C9.45548 9.39841 9.48749 9.23749 9.48749 9.07498C9.48749 8.91247 9.45548 8.75154 9.39329 8.60141C9.3311 8.45126 9.23995 8.31484 9.12504 8.19993C9.01012 8.08502 8.8737 7.99386 8.72356 7.93167C8.57342 7.86948 8.4125 7.83748 8.24999 7.83748C8.08748 7.83748 7.92656 7.86948 7.77642 7.93167C7.62628 7.99386 7.48986 8.08502 7.37495 8.19993C7.26004 8.31484 7.16888 8.45126 7.10669 8.60141C7.0445 8.75154 7.01249 8.91247 7.01249 9.07498C7.01249 9.23749 7.0445 9.39841 7.10669 9.54855C7.16888 9.69869 7.26004 9.83511 7.37495 9.95002C7.48986 10.0649 7.62628 10.1561 7.77642 10.2183C7.92656 10.2805 8.08748 10.3125 8.24999 10.3125ZM16.9486 18.8615L18.2428 19.2173C18.5109 19.2895 18.7275 19.4958 18.81 19.7639C19.0472 20.5167 19.4494 21.2025 19.9701 21.7748C20.1609 21.9811 20.2331 22.2698 20.1609 22.5431L19.8206 23.8425C19.9805 23.9559 20.1455 24.0642 20.3156 24.1673L20.5322 24.2911C20.7023 24.3839 20.8725 24.4715 21.0478 24.5489L22.0017 23.6053C22.2028 23.4093 22.4864 23.3269 22.7597 23.3887C23.1309 23.4712 23.5228 23.5125 23.9198 23.5125C24.3169 23.5125 24.7087 23.4712 25.08 23.3887C25.3533 23.3269 25.6369 23.4093 25.838 23.6053L26.7919 24.5489C26.9672 24.4715 27.1373 24.3839 27.3075 24.2911L27.5292 24.1622C27.6994 24.059 27.8644 23.9508 28.0242 23.8373L27.6891 22.5379C27.6169 22.2647 27.6891 21.9759 27.8798 21.7697C28.4058 21.1973 28.8028 20.5167 29.04 19.7587C29.1225 19.4906 29.3391 19.2844 29.6072 19.2122L30.9014 18.8564C30.9272 18.6244 30.9375 18.3872 30.9375 18.1448C30.9375 17.9025 30.9272 17.6704 30.9014 17.4333L29.6072 17.0775C29.3391 17.0053 29.1225 16.799 29.04 16.5309C28.8028 15.7729 28.4006 15.0923 27.8798 14.52C27.6891 14.3137 27.6169 14.025 27.6891 13.7517L28.0294 12.4523C27.8747 12.3389 27.7148 12.2358 27.5498 12.1378L27.3023 11.9934C27.1373 11.9058 26.9723 11.8181 26.8022 11.7459L25.8483 12.6895C25.6472 12.8854 25.3636 12.9679 25.0903 12.9061C24.7191 12.8236 24.3272 12.7823 23.925 12.7823C23.5228 12.7823 23.1361 12.8236 22.7597 12.9061C22.4864 12.9679 22.2028 12.8854 22.0017 12.6895L21.0478 11.7459C20.8776 11.8233 20.7126 11.9058 20.5476 11.9934L20.3001 12.1378C20.1351 12.2358 19.9753 12.344 19.8206 12.4523L20.1609 13.7517C20.2331 14.025 20.1609 14.3137 19.9701 14.52C19.4442 15.0923 19.0472 15.7729 18.81 16.5309C18.7275 16.799 18.5109 17.0053 18.2428 17.0775L16.9486 17.4333C16.9228 17.6653 16.9125 17.9025 16.9125 18.1448C16.9125 18.3872 16.9228 18.6192 16.9486 18.8564V18.8615ZM15.3914 19.6556C15.3037 19.1658 15.2625 18.6656 15.2625 18.15C15.2625 17.6343 15.3089 17.1342 15.3914 16.6495C15.4481 16.335 15.6801 16.0823 15.9844 15.9947L17.3869 15.6079C17.6498 14.9325 18.0108 14.3137 18.4542 13.7568L18.0881 12.3492C18.0056 12.0398 18.1139 11.715 18.3562 11.5087C18.7017 11.22 19.0678 10.957 19.4545 10.725L19.47 10.7147L19.733 10.5651L19.7484 10.5548C20.1351 10.3434 20.5425 10.1578 20.9653 10.0031C21.2644 9.89482 21.5995 9.96701 21.8264 10.1887L22.8628 11.2097C23.2134 11.1581 23.5692 11.1272 23.9301 11.1272C24.2911 11.1272 24.6469 11.1529 24.9975 11.2097L26.0339 10.1887C26.2608 9.96701 26.5959 9.88966 26.895 10.0031C27.3178 10.1578 27.72 10.3434 28.1119 10.5548L28.1273 10.5651L28.3903 10.7198L28.4058 10.7301C28.7925 10.9622 29.1586 11.2251 29.5041 11.5139C29.7464 11.7201 29.8495 12.045 29.7722 12.3544L29.4061 13.762C29.8495 14.3137 30.2105 14.9376 30.4734 15.6079L31.8759 15.9947C32.1853 16.0772 32.4173 16.335 32.4689 16.6495C32.5566 17.1394 32.5978 17.6395 32.5978 18.15C32.5978 18.6604 32.5514 19.1658 32.4689 19.6556C32.4122 19.9701 32.1801 20.2228 31.8759 20.3104L30.4734 20.6972C30.2105 21.3726 29.8495 21.9914 29.4061 22.5431L29.7722 23.9508C29.8547 24.2601 29.7464 24.585 29.5041 24.7912C29.1534 25.0851 28.7822 25.3533 28.3903 25.5853L28.38 25.5904L28.148 25.7245L28.1376 25.7297C27.7458 25.9462 27.3333 26.137 26.9053 26.2917C26.6062 26.4 26.2711 26.3278 26.0442 26.1061L25.0078 25.0851C24.6572 25.1367 24.3014 25.1676 23.9405 25.1676C23.5795 25.1676 23.2237 25.1418 22.8731 25.0851L21.8367 26.1061C21.6098 26.3278 21.2747 26.4051 20.9756 26.2917C20.5476 26.137 20.1351 25.9462 19.7433 25.7297L19.733 25.7245L19.5009 25.5904L19.4906 25.5853C19.0987 25.3481 18.7223 25.08 18.3769 24.7912C18.1345 24.585 18.0262 24.2601 18.1087 23.9508L18.4748 22.5431C18.0314 21.9914 17.6705 21.3675 17.4075 20.6972L15.9844 20.3053C15.675 20.2228 15.443 19.965 15.3914 19.6504V19.6556ZM23.925 21.0375C23.1592 21.0375 22.4247 20.7333 21.8832 20.1917C21.3417 19.6502 21.0375 18.9158 21.0375 18.15C21.0375 17.3842 21.3417 16.6497 21.8832 16.1082C22.4247 15.5667 23.1592 15.2625 23.925 15.2625C24.6908 15.2625 25.4253 15.5667 25.9668 16.1082C26.5083 16.6497 26.8125 17.3842 26.8125 18.15C26.8125 18.9158 26.5083 19.6502 25.9668 20.1917C25.4253 20.7333 24.6908 21.0375 23.925 21.0375ZM25.1625 18.15C25.1625 17.8218 25.0321 17.507 24.8 17.2749C24.568 17.0429 24.2532 16.9125 23.925 16.9125C23.5968 16.9125 23.282 17.0429 23.0499 17.2749C22.8179 17.507 22.6875 17.8218 22.6875 18.15C22.6875 18.4782 22.8179 18.7929 23.0499 19.025C23.282 19.2571 23.5968 19.3875 23.925 19.3875C24.2532 19.3875 24.568 19.2571 24.8 19.025C25.0321 18.7929 25.1625 18.4782 25.1625 18.15Z" fill="url(#paint0_linear_2659_105)"/>
<defs>
<linearGradient id="paint0_linear_2659_105" x1="1.51929" y1="18.7283" x2="45.3485" y2="14.7963" gradientUnits="userSpaceOnUse">
<stop stop-color="#6645EB"/>
<stop offset="1" stop-color="#D445EB"/>
</linearGradient>
</defs>
</svg>
