<svg width="30" height="30" viewBox="0 0 30 30" fill="none" xmlns="http://www.w3.org/2000/svg">
<g clip-path="url(#clip0_2685_885)">
<path d="M16.5 0.187489C16.084 -0.123058 15.498 -0.0410264 15.1875 0.374989C14.877 0.791005 14.959 1.37694 15.375 1.68749L16.875 2.81249H6.5625C2.93555 2.81249 0 5.74804 0 9.37499C0 13.0019 2.93555 15.9375 6.5625 15.9375H23.4375C26.0273 15.9375 28.125 18.0351 28.125 20.625C28.125 22.9394 26.4434 24.8613 24.2402 25.2422C23.8008 23.6601 22.3477 22.5 20.625 22.5C18.5566 22.5 16.875 24.1816 16.875 26.25C16.875 28.3183 18.5566 30 20.625 30C22.3887 30 23.8711 28.7812 24.2695 27.1348C27.5039 26.7246 30 23.9648 30 20.625C30 16.998 27.0645 14.0625 23.4375 14.0625H6.5625C3.97266 14.0625 1.875 11.9648 1.875 9.37499C1.875 6.78515 3.97266 4.68749 6.5625 4.68749H16.875L15.375 5.81249C14.959 6.12304 14.877 6.70897 15.1875 7.12499C15.498 7.541 16.084 7.62304 16.5 7.31249L20.25 4.49999C20.4844 4.32421 20.625 4.04296 20.625 3.74999C20.625 3.45702 20.4844 3.17577 20.25 2.99999L16.5 0.187489ZM20.6191 28.125C20.3729 28.1246 20.1292 28.0757 19.9018 27.9811C19.6745 27.8866 19.468 27.7481 19.2942 27.5737C19.1203 27.3994 18.9825 27.1924 18.8887 26.9648C18.7948 26.7372 18.7467 26.4933 18.7471 26.2471C18.7475 26.0008 18.7963 25.7571 18.8909 25.5298C18.9855 25.3024 19.1239 25.0959 19.2983 24.9221C19.4727 24.7483 19.6796 24.6105 19.9072 24.5166C20.1349 24.4227 20.3788 24.3746 20.625 24.375C21.1223 24.3758 21.5989 24.5741 21.95 24.9262C22.301 25.2784 22.4978 25.7556 22.4971 26.2529C22.4963 26.7502 22.298 27.2268 21.9458 27.5779C21.5936 27.929 21.1164 28.1258 20.6191 28.125ZM26.25 1.87499C26.7473 1.87499 27.2242 2.07253 27.5758 2.42416C27.9275 2.77579 28.125 3.25271 28.125 3.74999C28.125 4.24727 27.9275 4.72418 27.5758 5.07581C27.2242 5.42745 26.7473 5.62499 26.25 5.62499C25.7527 5.62499 25.2758 5.42745 24.9242 5.07581C24.5725 4.72418 24.375 4.24727 24.375 3.74999C24.375 3.25271 24.5725 2.77579 24.9242 2.42416C25.2758 2.07253 25.7527 1.87499 26.25 1.87499ZM26.25 7.49999C27.2446 7.49999 28.1984 7.1049 28.9016 6.40164C29.6049 5.69838 30 4.74455 30 3.74999C30 2.75543 29.6049 1.8016 28.9016 1.09834C28.1984 0.395077 27.2446 -1.07833e-05 26.25 -1.07833e-05C25.2554 -1.07833e-05 24.3016 0.395077 23.5984 1.09834C22.8951 1.8016 22.5 2.75543 22.5 3.74999C22.5 4.74455 22.8951 5.69838 23.5984 6.40164C24.3016 7.1049 25.2554 7.49999 26.25 7.49999ZM7.38281 25.3125C6.9668 23.6953 5.49609 22.5 3.75 22.5C1.68164 22.5 0 24.1816 0 26.25C0 28.3183 1.68164 30 3.75 30C5.49609 30 6.9668 28.8047 7.38281 27.1875H11.25L9.75 28.3125C9.33398 28.623 9.25195 29.209 9.5625 29.625C9.87305 30.041 10.459 30.123 10.875 29.8125L14.625 27C14.8594 26.8242 15 26.543 15 26.25C15 25.957 14.8594 25.6758 14.625 25.5L10.875 22.6875C10.459 22.3769 9.87305 22.459 9.5625 22.875C9.25195 23.291 9.33398 23.8769 9.75 24.1875L11.25 25.3125H7.38281ZM1.875 26.25C1.875 25.7527 2.07254 25.2758 2.42417 24.9242C2.77581 24.5725 3.25272 24.375 3.75 24.375C4.24728 24.375 4.72419 24.5725 5.07583 24.9242C5.42746 25.2758 5.625 25.7527 5.625 26.25C5.625 26.7473 5.42746 27.2242 5.07583 27.5758C4.72419 27.9274 4.24728 28.125 3.75 28.125C3.25272 28.125 2.77581 27.9274 2.42417 27.5758C2.07254 27.2242 1.875 26.7473 1.875 26.25Z" fill="url(#paint0_linear_2685_885)"/>
</g>
<defs>
<linearGradient id="paint0_linear_2685_885" x1="1.34865" y1="21.19" x2="41.873" y2="18.2931" gradientUnits="userSpaceOnUse">
<stop stop-color="#6645EB"/>
<stop offset="1" stop-color="#D445EB"/>
</linearGradient>
<clipPath id="clip0_2685_885">
<rect width="30" height="30" fill="white"/>
</clipPath>
</defs>
</svg>
