<svg width="38" height="30" viewBox="0 0 38 30" fill="none" xmlns="http://www.w3.org/2000/svg">
<path d="M31.875 1.875H5.625C4.58789 1.875 3.75 2.71289 3.75 3.75V13.4473C3.05273 13.6934 2.41406 14.0742 1.875 14.5605V3.75C1.875 1.68164 3.55664 0 5.625 0H31.875C33.9434 0 35.625 1.68164 35.625 3.75V14.5547C35.0859 14.0684 34.4473 13.6875 33.75 13.4414V3.75C33.75 2.71289 32.9121 1.875 31.875 1.875ZM5.625 20.625C6.12228 20.625 6.59919 20.4275 6.95083 20.0758C7.30246 19.7242 7.5 19.2473 7.5 18.75C7.5 18.2527 7.30246 17.7758 6.95083 17.4242C6.59919 17.0725 6.12228 16.875 5.625 16.875C5.12772 16.875 4.65081 17.0725 4.29917 17.4242C3.94754 17.7758 3.75 18.2527 3.75 18.75C3.75 19.2473 3.94754 19.7242 4.29917 20.0758C4.65081 20.4275 5.12772 20.625 5.625 20.625ZM5.625 15C6.61956 15 7.57339 15.3951 8.27665 16.0984C8.97991 16.8016 9.375 17.7554 9.375 18.75C9.375 19.7446 8.97991 20.6984 8.27665 21.4016C7.57339 22.1049 6.61956 22.5 5.625 22.5C4.63044 22.5 3.67661 22.1049 2.97335 21.4016C2.27009 20.6984 1.875 19.7446 1.875 18.75C1.875 17.7554 2.27009 16.8016 2.97335 16.0984C3.67661 15.3951 4.63044 15 5.625 15ZM18.75 20.625C19.2473 20.625 19.7242 20.4275 20.0758 20.0758C20.4275 19.7242 20.625 19.2473 20.625 18.75C20.625 18.2527 20.4275 17.7758 20.0758 17.4242C19.7242 17.0725 19.2473 16.875 18.75 16.875C18.2527 16.875 17.7758 17.0725 17.4242 17.4242C17.0725 17.7758 16.875 18.2527 16.875 18.75C16.875 19.2473 17.0725 19.7242 17.4242 20.0758C17.7758 20.4275 18.2527 20.625 18.75 20.625ZM18.75 15C19.7446 15 20.6984 15.3951 21.4016 16.0984C22.1049 16.8016 22.5 17.7554 22.5 18.75C22.5 19.7446 22.1049 20.6984 21.4016 21.4016C20.6984 22.1049 19.7446 22.5 18.75 22.5C17.7554 22.5 16.8016 22.1049 16.0984 21.4016C15.3951 20.6984 15 19.7446 15 18.75C15 17.7554 15.3951 16.8016 16.0984 16.0984C16.8016 15.3951 17.7554 15 18.75 15ZM33.75 18.75C33.75 18.2527 33.5525 17.7758 33.2008 17.4242C32.8492 17.0725 32.3723 16.875 31.875 16.875C31.3777 16.875 30.9008 17.0725 30.5492 17.4242C30.1975 17.7758 30 18.2527 30 18.75C30 19.2473 30.1975 19.7242 30.5492 20.0758C30.9008 20.4275 31.3777 20.625 31.875 20.625C32.3723 20.625 32.8492 20.4275 33.2008 20.0758C33.5525 19.7242 33.75 19.2473 33.75 18.75ZM28.125 18.75C28.125 17.7554 28.5201 16.8016 29.2234 16.0984C29.9266 15.3951 30.8804 15 31.875 15C32.8696 15 33.8234 15.3951 34.5266 16.0984C35.2299 16.8016 35.625 17.7554 35.625 18.75C35.625 19.7446 35.2299 20.6984 34.5266 21.4016C33.8234 22.1049 32.8696 22.5 31.875 22.5C30.8804 22.5 29.9266 22.1049 29.2234 21.4016C28.5201 20.6984 28.125 19.7446 28.125 18.75ZM1.875 28.125V29.0625C1.875 29.5781 1.45312 30 0.9375 30C0.421875 30 0 29.5781 0 29.0625V28.125C0 26.0566 1.68164 24.375 3.75 24.375H7.5C9.56836 24.375 11.25 26.0566 11.25 28.125V29.0625C11.25 29.5781 10.8281 30 10.3125 30C9.79688 30 9.375 29.5781 9.375 29.0625V28.125C9.375 27.0879 8.53711 26.25 7.5 26.25H3.75C2.71289 26.25 1.875 27.0879 1.875 28.125ZM16.875 26.25C15.8379 26.25 15 27.0879 15 28.125V29.0625C15 29.5781 14.5781 30 14.0625 30C13.5469 30 13.125 29.5781 13.125 29.0625V28.125C13.125 26.0566 14.8066 24.375 16.875 24.375H20.625C22.6934 24.375 24.375 26.0566 24.375 28.125V29.0625C24.375 29.5781 23.9531 30 23.4375 30C22.9219 30 22.5 29.5781 22.5 29.0625V28.125C22.5 27.0879 21.6621 26.25 20.625 26.25H16.875ZM28.125 28.125V29.0625C28.125 29.5781 27.7031 30 27.1875 30C26.6719 30 26.25 29.5781 26.25 29.0625V28.125C26.25 26.0566 27.9316 24.375 30 24.375H33.75C35.8184 24.375 37.5 26.0566 37.5 28.125V29.0625C37.5 29.5781 37.0781 30 36.5625 30C36.0469 30 35.625 29.5781 35.625 29.0625V28.125C35.625 27.0879 34.7871 26.25 33.75 26.25H30C28.9629 26.25 28.125 27.0879 28.125 28.125Z" fill="url(#paint0_linear_2685_936)"/>
<defs>
<linearGradient id="paint0_linear_2685_936" x1="1.68581" y1="21.1898" x2="52.1968" y2="16.6761" gradientUnits="userSpaceOnUse">
<stop stop-color="#6645EB"/>
<stop offset="1" stop-color="#D445EB"/>
</linearGradient>
</defs>
</svg>
