<svg width="23" height="30" viewBox="0 0 23 30" fill="none" xmlns="http://www.w3.org/2000/svg">
<path d="M18.75 28.125H3.75C2.71289 28.125 1.875 27.2871 1.875 26.25V3.75C1.875 2.71289 2.71289 1.875 3.75 1.875H11.25V8.4375C11.25 9.99023 12.5098 11.25 14.0625 11.25H20.625V26.25C20.625 27.2871 19.7871 28.125 18.75 28.125ZM14.0625 9.375C13.5469 9.375 13.125 8.95312 13.125 8.4375V1.9043C13.2891 1.94531 13.4414 2.02734 13.5586 2.15039L20.3496 8.94141C20.4727 9.06445 20.5547 9.21094 20.5957 9.375H14.0625ZM3.75 0C1.68164 0 0 1.68164 0 3.75V26.25C0 28.3184 1.68164 30 3.75 30H18.75C20.8184 30 22.5 28.3184 22.5 26.25V9.60352C22.5 8.85938 22.2012 8.14453 21.6738 7.61719L14.8887 0.826172C14.3613 0.298828 13.6465 0 12.9023 0H3.75ZM3.75 4.6875C3.75 5.20312 4.17188 5.625 4.6875 5.625H8.4375C8.95312 5.625 9.375 5.20312 9.375 4.6875C9.375 4.17188 8.95312 3.75 8.4375 3.75H4.6875C4.17188 3.75 3.75 4.17188 3.75 4.6875ZM3.75 8.4375C3.75 8.95312 4.17188 9.375 4.6875 9.375H8.4375C8.95312 9.375 9.375 8.95312 9.375 8.4375C9.375 7.92188 8.95312 7.5 8.4375 7.5H4.6875C4.17188 7.5 3.75 7.92188 3.75 8.4375ZM13.125 25.3125C13.125 25.8281 13.5469 26.25 14.0625 26.25H17.8125C18.3281 26.25 18.75 25.8281 18.75 25.3125C18.75 24.7969 18.3281 24.375 17.8125 24.375H14.0625C13.5469 24.375 13.125 24.7969 13.125 25.3125ZM16.875 19.6875H5.625V15.9375H16.875V19.6875ZM5.625 14.0625C4.58789 14.0625 3.75 14.9004 3.75 15.9375V19.6875C3.75 20.7246 4.58789 21.5625 5.625 21.5625H16.875C17.9121 21.5625 18.75 20.7246 18.75 19.6875V15.9375C18.75 14.9004 17.9121 14.0625 16.875 14.0625H5.625Z" fill="url(#paint0_linear_2685_939)"/>
<defs>
<linearGradient id="paint0_linear_2685_939" x1="1.01149" y1="21.1898" x2="31.4725" y2="19.5566" gradientUnits="userSpaceOnUse">
<stop stop-color="#6645EB"/>
<stop offset="1" stop-color="#D445EB"/>
</linearGradient>
</defs>
</svg>
