<svg width="30" height="24" viewBox="0 0 30 24" fill="none" xmlns="http://www.w3.org/2000/svg">
<path d="M1.61719 0.75C0.726563 0.75 0 1.47656 0 2.36719C0 2.75977 0.140625 3.14063 0.398438 3.43359L6.5625 10.4766V18.0938C6.5625 18.6797 6.83789 19.2363 7.30664 19.5879L11.7715 22.957C12.0176 23.1445 12.3223 23.2441 12.6328 23.2441C13.4238 23.2441 14.0625 22.6055 14.0625 21.8145V10.4766L20.2266 3.43359C20.4844 3.14063 20.625 2.75977 20.625 2.36719C20.625 1.47656 19.8984 0.75 19.0078 0.75H1.61719ZM8.20312 9.50977L2.18555 2.625H18.4453L12.4219 9.50977C12.2695 9.67969 12.1875 9.90234 12.1875 10.125V20.9238L8.4375 18.0938V10.125C8.4375 9.89648 8.35547 9.67969 8.20312 9.50977ZM19.6875 20.4375C19.1719 20.4375 18.75 20.8594 18.75 21.375C18.75 21.8906 19.1719 22.3125 19.6875 22.3125H29.0625C29.5781 22.3125 30 21.8906 30 21.375C30 20.8594 29.5781 20.4375 29.0625 20.4375H19.6875ZM18.75 12C18.75 12.5156 19.1719 12.9375 19.6875 12.9375H29.0625C29.5781 12.9375 30 12.5156 30 12C30 11.4844 29.5781 11.0625 29.0625 11.0625H19.6875C19.1719 11.0625 18.75 11.4844 18.75 12ZM23.4375 1.6875C22.9219 1.6875 22.5 2.10938 22.5 2.625C22.5 3.14062 22.9219 3.5625 23.4375 3.5625H29.0625C29.5781 3.5625 30 3.14062 30 2.625C30 2.10938 29.5781 1.6875 29.0625 1.6875H23.4375Z" fill="url(#paint0_linear_2685_943)"/>
<defs>
<linearGradient id="paint0_linear_2685_943" x1="1.34865" y1="16.6382" x2="41.7132" y2="12.7898" gradientUnits="userSpaceOnUse">
<stop stop-color="#6645EB"/>
<stop offset="1" stop-color="#D445EB"/>
</linearGradient>
</defs>
</svg>
