<svg width="30" height="30" viewBox="0 0 30 30" fill="none" xmlns="http://www.w3.org/2000/svg">
<path d="M5.625 3.75C4.58789 3.75 3.75 4.58789 3.75 5.625C3.75 6.66211 4.58789 7.5 5.625 7.5H24.375C25.4121 7.5 26.25 6.66211 26.25 5.625C26.25 4.58789 25.4121 3.75 24.375 3.75H5.625ZM1.875 5.625C1.875 3.55664 3.55664 1.875 5.625 1.875H24.375C26.4434 1.875 28.125 3.55664 28.125 5.625C28.125 7.69336 26.4434 9.375 24.375 9.375H15.9375V10.7812L16.3242 11.168L18.8262 13.6699L19.2188 14.0625H22.5C25.0898 14.0625 27.1875 16.1602 27.1875 18.75V20.625H28.125C29.1621 20.625 30 21.4629 30 22.5V26.25C30 27.2871 29.1621 28.125 28.125 28.125H24.375C23.3379 28.125 22.5 27.2871 22.5 26.25V22.5C22.5 21.4629 23.3379 20.625 24.375 20.625H25.3125V18.75C25.3125 17.1973 24.0527 15.9375 22.5 15.9375H19.2188L18.832 16.3242L16.3301 18.8262L15.9375 19.2188V20.625H16.875C17.9121 20.625 18.75 21.4629 18.75 22.5V26.25C18.75 27.2871 17.9121 28.125 16.875 28.125H13.125C12.0879 28.125 11.25 27.2871 11.25 26.25V22.5C11.25 21.4629 12.0879 20.625 13.125 20.625H14.0625V19.2188L13.6758 18.832L11.1738 16.3301L10.7812 15.9375H7.5C5.94727 15.9375 4.6875 17.1973 4.6875 18.75V20.625H5.625C6.66211 20.625 7.5 21.4629 7.5 22.5V26.25C7.5 27.2871 6.66211 28.125 5.625 28.125H1.875C0.837891 28.125 0 27.2871 0 26.25V22.5C0 21.4629 0.837891 20.625 1.875 20.625H2.8125V18.75C2.8125 16.1602 4.91016 14.0625 7.5 14.0625H10.7812L11.168 13.6758L13.6699 11.1738L14.0625 10.7812V9.375H5.625C3.55664 9.375 1.875 7.69336 1.875 5.625ZM2.8125 22.5H1.875V26.25H5.625V22.5H4.6875H2.8125ZM14.0625 22.5H13.125V26.25H16.875V22.5H15.9375H14.0625ZM25.3125 22.5H24.375V26.25H28.125V22.5H27.1875H25.3125ZM12.498 15L15 17.502L17.502 15L15 12.498L12.498 15Z" fill="url(#paint0_linear_2685_955)"/>
<defs>
<linearGradient id="paint0_linear_2685_955" x1="1.34865" y1="20.4161" x2="41.81" y2="17.1104" gradientUnits="userSpaceOnUse">
<stop stop-color="#6645EB"/>
<stop offset="1" stop-color="#D445EB"/>
</linearGradient>
</defs>
</svg>
