<svg width="38" height="30" viewBox="0 0 38 30" fill="none" xmlns="http://www.w3.org/2000/svg">
<g clip-path="url(#clip0_2685_947)">
<path d="M13.125 1.875C13.6223 1.875 14.0992 2.07254 14.4508 2.42417C14.8025 2.77581 15 3.25272 15 3.75C15 4.24728 14.8025 4.72419 14.4508 5.07583C14.0992 5.42746 13.6223 5.625 13.125 5.625C12.6277 5.625 12.1508 5.42746 11.7992 5.07583C11.4475 4.72419 11.25 4.24728 11.25 3.75C11.25 3.25272 11.4475 2.77581 11.7992 2.42417C12.1508 2.07254 12.6277 1.875 13.125 1.875ZM13.125 7.5C13.3887 7.5 13.6465 7.4707 13.8926 7.42383L16.125 12.2988C14.5664 13.3066 13.4648 14.959 13.1895 16.875H7.38281C6.9668 15.2578 5.49609 14.0625 3.75 14.0625C1.68164 14.0625 0 15.7441 0 17.8125C0 19.8809 1.68164 21.5625 3.75 21.5625C5.49609 21.5625 6.9668 20.3672 7.38281 18.75H13.1953C13.6523 21.9316 16.3828 24.375 19.6934 24.375C21.7441 24.375 23.5781 23.4316 24.7793 21.9609L30.1582 25.1895C30.0586 25.5293 30.0059 25.8867 30.0059 26.2559C30.0059 28.3242 31.6875 30.0059 33.7559 30.0059C35.8242 30.0059 37.5059 28.3242 37.5059 26.2559C37.5059 24.1875 35.8242 22.5059 33.7559 22.5059C32.7305 22.5059 31.7988 22.916 31.125 23.584L25.7461 20.3555C26.0742 19.5762 26.2559 18.7148 26.2559 17.8184C26.2559 16.7227 25.9863 15.6914 25.5117 14.7832L31.4766 10.4883C32.1094 10.9688 32.8945 11.2559 33.75 11.2559C35.8184 11.2559 37.5 9.57422 37.5 7.50586C37.5 5.4375 35.8184 3.75586 33.75 3.75586C31.6816 3.75586 30 5.4375 30 7.50586C30 8.03906 30.1113 8.54883 30.3164 9.01172L24.4102 13.2539C23.2148 12.0176 21.5391 11.25 19.6875 11.25C19.043 11.25 18.4219 11.3438 17.8301 11.5137L15.5742 6.58594C16.3711 5.90039 16.875 4.88672 16.875 3.75C16.875 1.68164 15.1934 0 13.125 0C11.0566 0 9.375 1.68164 9.375 3.75C9.375 5.81836 11.0566 7.5 13.125 7.5ZM33.75 5.625C34.2473 5.625 34.7242 5.82254 35.0758 6.17417C35.4275 6.52581 35.625 7.00272 35.625 7.5C35.625 7.99728 35.4275 8.47419 35.0758 8.82582C34.7242 9.17746 34.2473 9.375 33.75 9.375C33.2527 9.375 32.7758 9.17746 32.4242 8.82582C32.0725 8.47419 31.875 7.99728 31.875 7.5C31.875 7.00272 32.0725 6.52581 32.4242 6.17417C32.7758 5.82254 33.2527 5.625 33.75 5.625ZM31.875 26.25C31.875 25.7527 32.0725 25.2758 32.4242 24.9242C32.7758 24.5725 33.2527 24.375 33.75 24.375C34.2473 24.375 34.7242 24.5725 35.0758 24.9242C35.4275 25.2758 35.625 25.7527 35.625 26.25C35.625 26.7473 35.4275 27.2242 35.0758 27.5758C34.7242 27.9275 34.2473 28.125 33.75 28.125C33.2527 28.125 32.7758 27.9275 32.4242 27.5758C32.0725 27.2242 31.875 26.7473 31.875 26.25ZM3.75 15.9375C4.24728 15.9375 4.7242 16.135 5.07583 16.4867C5.42746 16.8383 5.625 17.3152 5.625 17.8125C5.625 18.3098 5.42746 18.7867 5.07583 19.1383C4.7242 19.49 4.24728 19.6875 3.75 19.6875C3.25272 19.6875 2.77581 19.49 2.42417 19.1383C2.07254 18.7867 1.875 18.3098 1.875 17.8125C1.875 17.3152 2.07254 16.8383 2.42417 16.4867C2.77581 16.135 3.25272 15.9375 3.75 15.9375ZM19.6875 13.125C20.9307 13.125 22.123 13.6189 23.0021 14.4979C23.8811 15.377 24.375 16.5693 24.375 17.8125C24.375 19.0557 23.8811 20.248 23.0021 21.1271C22.123 22.0061 20.9307 22.5 19.6875 22.5C18.4443 22.5 17.252 22.0061 16.3729 21.1271C15.4939 20.248 15 19.0557 15 17.8125C15 16.5693 15.4939 15.377 16.3729 14.4979C17.252 13.6189 18.4443 13.125 19.6875 13.125Z" fill="url(#paint0_linear_2685_947)"/>
</g>
<defs>
<linearGradient id="paint0_linear_2685_947" x1="1.68607" y1="21.194" x2="52.2049" y2="16.6797" gradientUnits="userSpaceOnUse">
<stop stop-color="#6645EB"/>
<stop offset="1" stop-color="#D445EB"/>
</linearGradient>
<clipPath id="clip0_2685_947">
<rect width="37.5" height="30" fill="white"/>
</clipPath>
</defs>
</svg>
