<svg width="30" height="30" viewBox="0 0 30 30" fill="none" xmlns="http://www.w3.org/2000/svg">
<g clip-path="url(#clip0_2685_915)">
<path d="M12.1875 1.875C13.5418 1.875 14.8828 2.14174 16.1339 2.65999C17.3851 3.17824 18.5219 3.93786 19.4795 4.89546C20.4371 5.85307 21.1968 6.98991 21.715 8.24108C22.2333 9.49225 22.5 10.8332 22.5 12.1875C22.5 13.5418 22.2333 14.8828 21.715 16.1339C21.1968 17.3851 20.4371 18.5219 19.4795 19.4795C18.5219 20.4371 17.3851 21.1968 16.1339 21.715C14.8828 22.2333 13.5418 22.5 12.1875 22.5C10.8332 22.5 9.49225 22.2333 8.24108 21.715C6.98991 21.1968 5.85307 20.4371 4.89546 19.4795C3.93786 18.5219 3.17824 17.3851 2.65999 16.1339C2.14174 14.8828 1.875 13.5418 1.875 12.1875C1.875 10.8332 2.14174 9.49225 2.65999 8.24108C3.17824 6.98991 3.93786 5.85307 4.89546 4.89546C5.85307 3.93786 6.98991 3.17824 8.24108 2.65999C9.49225 2.14174 10.8332 1.875 12.1875 1.875ZM12.1875 24.375C15.2168 24.375 17.9883 23.2734 20.1152 21.4453L28.4004 29.7246C28.7637 30.0879 29.3613 30.0879 29.7246 29.7246C30.0879 29.3613 30.0879 28.7637 29.7246 28.4004L21.4453 20.1152C23.2734 17.9824 24.375 15.2109 24.375 12.1875C24.375 5.45508 18.9199 0 12.1875 0C5.45508 0 0 5.45508 0 12.1875C0 18.9199 5.45508 24.375 12.1875 24.375ZM7.5 13.125V16.875C7.5 17.3906 7.92188 17.8125 8.4375 17.8125C8.95312 17.8125 9.375 17.3906 9.375 16.875V13.125C9.375 12.6094 8.95312 12.1875 8.4375 12.1875C7.92188 12.1875 7.5 12.6094 7.5 13.125ZM11.25 7.5V16.875C11.25 17.3906 11.6719 17.8125 12.1875 17.8125C12.7031 17.8125 13.125 17.3906 13.125 16.875V7.5C13.125 6.98438 12.7031 6.5625 12.1875 6.5625C11.6719 6.5625 11.25 6.98438 11.25 7.5ZM15 11.25V16.875C15 17.3906 15.4219 17.8125 15.9375 17.8125C16.4531 17.8125 16.875 17.3906 16.875 16.875V11.25C16.875 10.7344 16.4531 10.3125 15.9375 10.3125C15.4219 10.3125 15 10.7344 15 11.25Z" fill="url(#paint0_linear_2685_915)"/>
</g>
<defs>
<linearGradient id="paint0_linear_2685_915" x1="1.34852" y1="21.1878" x2="41.8689" y2="18.291" gradientUnits="userSpaceOnUse">
<stop stop-color="#6645EB"/>
<stop offset="1" stop-color="#D445EB"/>
</linearGradient>
<clipPath id="clip0_2685_915">
<rect width="30" height="30" fill="white"/>
</clipPath>
</defs>
</svg>
