<svg width="38" height="30" viewBox="0 0 38 30" fill="none" xmlns="http://www.w3.org/2000/svg">
<g clip-path="url(#clip0_2685_918)">
<path d="M18.75 1.875H3.75C2.71289 1.875 1.875 2.71289 1.875 3.75V26.25C1.875 27.2871 2.71289 28.125 3.75 28.125H7.5V24.375C7.5 22.3066 9.18164 20.625 11.25 20.625C13.3184 20.625 15 22.3066 15 24.375V28.125H17.0684C17.2676 28.8223 17.6074 29.4551 18.0527 30H15H13.125H9.375H7.5H3.75C1.68164 30 0 28.3184 0 26.25V3.75C0 1.68164 1.68164 0 3.75 0H18.75C20.8184 0 22.5 1.68164 22.5 3.75H22.0312C21.5449 3.75 21.0703 3.82031 20.625 3.94336V3.75C20.625 2.71289 19.7871 1.875 18.75 1.875ZM17.9473 5.75977C17.5547 6.26953 17.25 6.86133 17.0684 7.5H16.875H15V9.375H16.875V11.25H14.5312C13.752 11.25 13.125 10.623 13.125 9.84375V7.03125C13.125 6.25195 13.752 5.625 14.5312 5.625H17.3438C17.5605 5.625 17.7656 5.67188 17.9473 5.75977ZM16.875 13.125V15H15V16.875H16.875V18.75H14.5312C13.752 18.75 13.125 18.123 13.125 17.3438V14.5312C13.125 13.752 13.752 13.125 14.5312 13.125H16.875ZM11.25 22.5C10.2129 22.5 9.375 23.3379 9.375 24.375V28.125H13.125V24.375C13.125 23.3379 12.2871 22.5 11.25 22.5ZM5.15625 5.625H7.96875C8.74805 5.625 9.375 6.25195 9.375 7.03125V9.84375C9.375 10.623 8.74805 11.25 7.96875 11.25H5.15625C4.37695 11.25 3.75 10.623 3.75 9.84375V7.03125C3.75 6.25195 4.37695 5.625 5.15625 5.625ZM5.625 9.375H7.5V7.5H5.625V9.375ZM5.15625 13.125H7.96875C8.74805 13.125 9.375 13.752 9.375 14.5312V17.3438C9.375 18.123 8.74805 18.75 7.96875 18.75H5.15625C4.37695 18.75 3.75 18.123 3.75 17.3438V14.5312C3.75 13.752 4.37695 13.125 5.15625 13.125ZM5.625 16.875H7.5V15H5.625V16.875ZM22.5 7.5C21.4629 7.5 20.625 8.33789 20.625 9.375V26.25C20.625 27.2871 21.4629 28.125 22.5 28.125H33.75C34.7871 28.125 35.625 27.2871 35.625 26.25V9.375C35.625 8.33789 34.7871 7.5 33.75 7.5H22.5ZM18.75 9.375C18.75 7.30664 20.4316 5.625 22.5 5.625H33.75C35.8184 5.625 37.5 7.30664 37.5 9.375V26.25C37.5 28.3184 35.8184 30 33.75 30H22.5C20.4316 30 18.75 28.3184 18.75 26.25V9.375ZM22.0312 12.1875C22.0312 12.0028 22.0676 11.82 22.1383 11.6494C22.209 11.4787 22.3125 11.3237 22.4431 11.1931C22.5737 11.0625 22.7287 10.959 22.8994 10.8883C23.07 10.8176 23.2528 10.7812 23.4375 10.7812C23.6222 10.7812 23.805 10.8176 23.9756 10.8883C24.1463 10.959 24.3013 11.0625 24.4319 11.1931C24.5625 11.3237 24.666 11.4787 24.7367 11.6494C24.8074 11.82 24.8438 12.0028 24.8438 12.1875C24.8438 12.3722 24.8074 12.555 24.7367 12.7256C24.666 12.8963 24.5625 13.0513 24.4319 13.1819C24.3013 13.3125 24.1463 13.416 23.9756 13.4867C23.805 13.5574 23.6222 13.5938 23.4375 13.5938C23.2528 13.5938 23.07 13.5574 22.8994 13.4867C22.7287 13.416 22.5737 13.3125 22.4431 13.1819C22.3125 13.0513 22.209 12.8963 22.1383 12.7256C22.0676 12.555 22.0312 12.3722 22.0312 12.1875ZM23.4375 16.4062C23.8105 16.4062 24.1681 16.5544 24.4319 16.8181C24.6956 17.0819 24.8438 17.4395 24.8438 17.8125C24.8438 18.1855 24.6956 18.5431 24.4319 18.8069C24.1681 19.0706 23.8105 19.2188 23.4375 19.2188C23.0645 19.2188 22.7069 19.0706 22.4431 18.8069C22.1794 18.5431 22.0312 18.1855 22.0312 17.8125C22.0312 17.4395 22.1794 17.0819 22.4431 16.8181C22.7069 16.5544 23.0645 16.4062 23.4375 16.4062ZM22.0312 23.4375C22.0312 23.2528 22.0676 23.07 22.1383 22.8994C22.209 22.7287 22.3125 22.5737 22.4431 22.4431C22.5737 22.3125 22.7287 22.209 22.8994 22.1383C23.07 22.0676 23.2528 22.0312 23.4375 22.0312C23.6222 22.0312 23.805 22.0676 23.9756 22.1383C24.1463 22.209 24.3013 22.3125 24.4319 22.4431C24.5625 22.5737 24.666 22.7287 24.7367 22.8994C24.8074 23.07 24.8438 23.2528 24.8438 23.4375C24.8438 23.6222 24.8074 23.805 24.7367 23.9756C24.666 24.1463 24.5625 24.3013 24.4319 24.4319C24.3013 24.5625 24.1463 24.666 23.9756 24.7367C23.805 24.8074 23.6222 24.8438 23.4375 24.8438C23.2528 24.8438 23.07 24.8074 22.8994 24.7367C22.7287 24.666 22.5737 24.5625 22.4431 24.4319C22.3125 24.3013 22.209 24.1463 22.1383 23.9756C22.0676 23.805 22.0312 23.6222 22.0312 23.4375ZM27.1875 11.25H32.8125C33.3281 11.25 33.75 11.6719 33.75 12.1875C33.75 12.7031 33.3281 13.125 32.8125 13.125H27.1875C26.6719 13.125 26.25 12.7031 26.25 12.1875C26.25 11.6719 26.6719 11.25 27.1875 11.25ZM26.25 17.8125C26.25 17.2969 26.6719 16.875 27.1875 16.875H32.8125C33.3281 16.875 33.75 17.2969 33.75 17.8125C33.75 18.3281 33.3281 18.75 32.8125 18.75H27.1875C26.6719 18.75 26.25 18.3281 26.25 17.8125ZM27.1875 22.5H32.8125C33.3281 22.5 33.75 22.9219 33.75 23.4375C33.75 23.9531 33.3281 24.375 32.8125 24.375H27.1875C26.6719 24.375 26.25 23.9531 26.25 23.4375C26.25 22.9219 26.6719 22.5 27.1875 22.5Z" fill="url(#paint0_linear_2685_918)"/>
</g>
<defs>
<linearGradient id="paint0_linear_2685_918" x1="1.68581" y1="21.1898" x2="52.1968" y2="16.6761" gradientUnits="userSpaceOnUse">
<stop stop-color="#6645EB"/>
<stop offset="1" stop-color="#D445EB"/>
</linearGradient>
<clipPath id="clip0_2685_918">
<rect width="37.5" height="30" fill="white"/>
</clipPath>
</defs>
</svg>
