<svg width="27" height="27" viewBox="0 0 27 27" fill="none" xmlns="http://www.w3.org/2000/svg">
<path d="M5.87695 26.25H0.433594V8.72461H5.87695V26.25ZM3.15234 6.33398C1.41211 6.33398 0 4.89258 0 3.15234C0 2.31629 0.332121 1.51448 0.9233 0.9233C1.51448 0.332121 2.31629 0 3.15234 0C3.9884 0 4.79021 0.332121 5.38139 0.9233C5.97257 1.51448 6.30469 2.31629 6.30469 3.15234C6.30469 4.89258 4.89258 6.33398 3.15234 6.33398ZM26.2441 26.25H20.8125V17.7188C20.8125 15.6855 20.7715 13.0781 17.9824 13.0781C15.1523 13.0781 14.7188 15.2871 14.7188 17.5723V26.25H9.28125V8.72461H14.502V11.1152H14.5781C15.3047 9.73828 17.0801 8.28516 19.7285 8.28516C25.2363 8.28516 26.25 11.9121 26.25 16.623V26.25H26.2441Z" fill="url(#paint0_linear_2685_922)"/>
<defs>
<linearGradient id="paint0_linear_2685_922" x1="1.18007" y1="18.5411" x2="36.6389" y2="16.0062" gradientUnits="userSpaceOnUse">
<stop stop-color="#6645EB"/>
<stop offset="1" stop-color="#D445EB"/>
</linearGradient>
</defs>
</svg>
