<svg width="29" height="30" viewBox="0 0 29 30" fill="none" xmlns="http://www.w3.org/2000/svg">
<path d="M28.5938 15.3398C28.5938 23.6309 22.916 29.5312 14.5312 29.5312C6.49219 29.5312 0 23.0391 0 15C0 6.96094 6.49219 0.46875 14.5312 0.46875C18.4453 0.46875 21.7383 1.9043 24.2754 4.27148L20.3203 8.07422C15.1465 3.08203 5.52539 6.83203 5.52539 15C5.52539 20.0684 9.57422 24.1758 14.5312 24.1758C20.2852 24.1758 22.4414 20.0508 22.7812 17.9121H14.5312V12.9141H28.3652C28.5 13.6582 28.5938 14.373 28.5938 15.3398Z" fill="url(#paint0_linear_2685_927)"/>
<defs>
<linearGradient id="paint0_linear_2685_927" x1="1.28543" y1="20.9964" x2="39.9165" y2="18.2793" gradientUnits="userSpaceOnUse">
<stop stop-color="#6645EB"/>
<stop offset="1" stop-color="#D445EB"/>
</linearGradient>
</defs>
</svg>
