<svg width="38" height="26" viewBox="0 0 38 26" fill="none" xmlns="http://www.w3.org/2000/svg">
<path d="M37.5 16.627C37.5 21.9766 35.1914 25.3281 31.0371 25.3281C27.3691 25.3281 25.4238 23.3008 21.8438 17.3242L20.0039 14.2422C19.5176 13.5098 19.1543 12.8242 18.7617 12.1914C17.584 14.1719 16.002 17.0547 16.002 17.0547C12.0762 23.8867 9.87305 25.3281 6.80859 25.3281C2.54297 25.3281 0 21.9707 0 16.7793C0 8.40039 4.67578 0.484375 10.7754 0.484375C13.7168 0.484375 16.2715 1.93164 19.2598 5.72852C21.4336 2.79297 23.8359 0.484375 26.9121 0.484375C32.7188 0.484375 37.5 7.84961 37.5 16.627ZM16.8398 9.26172C14.3262 5.62305 12.6855 4.54492 10.7227 4.54492C7.0957 4.54492 4.05469 10.7617 4.05469 16.8496C4.05469 19.6914 5.13867 21.2852 6.96094 21.2852C8.73047 21.2852 9.83203 20.1719 13.0078 15.2031C13.0078 15.2031 14.4551 12.9121 16.8398 9.26172ZM31.125 21.2852C33.0117 21.2852 33.873 19.6738 33.873 16.8965C33.873 9.61914 30.6914 3.68945 26.6543 3.68945C24.709 3.68945 23.0742 5.20703 21.0938 8.25977C21.6445 9.06836 22.2129 9.95898 22.8105 10.9199L25.0078 14.5762C28.4473 20.0898 29.3145 21.2852 31.125 21.2852Z" fill="url(#paint0_linear_2685_930)"/>
<defs>
<linearGradient id="paint0_linear_2685_930" x1="1.68581" y1="18.0322" x2="52.0141" y2="12.6014" gradientUnits="userSpaceOnUse">
<stop stop-color="#6645EB"/>
<stop offset="1" stop-color="#D445EB"/>
</linearGradient>
</defs>
</svg>
