<svg width="38" height="30" viewBox="0 0 38 30" fill="none" xmlns="http://www.w3.org/2000/svg">
<path d="M6.5625 1.875H23.4375C23.9531 1.875 24.375 2.29688 24.375 2.8125V3.75H26.25V2.8125C26.25 1.25977 24.9902 0 23.4375 0H6.5625C5.00977 0 3.75 1.25977 3.75 2.8125V11.25H5.625V2.8125C5.625 2.29688 6.04688 1.875 6.5625 1.875ZM13.125 8.4375C13.125 7.92188 13.5469 7.5 14.0625 7.5H34.6875C35.2031 7.5 35.625 7.92188 35.625 8.4375V21.5625C35.625 22.0781 35.2031 22.5 34.6875 22.5H24.375V24.375H34.6875C36.2402 24.375 37.5 23.1152 37.5 21.5625V8.4375C37.5 6.88477 36.2402 5.625 34.6875 5.625H14.0625C12.5098 5.625 11.25 6.88477 11.25 8.4375V11.25H13.125V8.4375ZM2.8125 15H19.6875C20.2031 15 20.625 15.4219 20.625 15.9375V16.2305L11.5371 22.9629C11.4551 23.0215 11.3555 23.0566 11.25 23.0566C11.1445 23.0566 11.0449 23.0215 10.9629 22.9629L1.875 16.2305V15.9375C1.875 15.4219 2.29688 15 2.8125 15ZM1.875 27.1875V18.5625L9.84375 24.4688C10.248 24.7676 10.7402 24.9316 11.25 24.9316C11.7598 24.9316 12.2461 24.7676 12.6562 24.4688L20.625 18.5625V27.1875C20.625 27.7031 20.2031 28.125 19.6875 28.125H2.8125C2.29688 28.125 1.875 27.7031 1.875 27.1875ZM2.8125 13.125C1.25977 13.125 0 14.3848 0 15.9375V27.1875C0 28.7402 1.25977 30 2.8125 30H19.6875C21.2402 30 22.5 28.7402 22.5 27.1875V15.9375C22.5 14.3848 21.2402 13.125 19.6875 13.125H2.8125ZM29.0625 9.375C28.5469 9.375 28.125 9.79688 28.125 10.3125V14.0625C28.125 14.5781 28.5469 15 29.0625 15H32.8125C33.3281 15 33.75 14.5781 33.75 14.0625V10.3125C33.75 9.79688 33.3281 9.375 32.8125 9.375H29.0625ZM30 13.125V11.25H31.875V13.125H30Z" fill="url(#paint0_linear_2685_933)"/>
<defs>
<linearGradient id="paint0_linear_2685_933" x1="1.68581" y1="21.1898" x2="52.1968" y2="16.6761" gradientUnits="userSpaceOnUse">
<stop stop-color="#6645EB"/>
<stop offset="1" stop-color="#D445EB"/>
</linearGradient>
</defs>
</svg>
