<svg width="66" height="67" viewBox="0 0 66 67" fill="none" xmlns="http://www.w3.org/2000/svg">
<rect x="0.326172" y="0.536133" width="64.9855" height="65.7817" rx="15" fill="white" fill-opacity="0.05"/>
<rect x="0.826172" y="1.03613" width="63.9855" height="64.7817" rx="14.5" stroke="white" stroke-opacity="0.1"/>
<mask id="mask0_2088_1671" style="mask-type:alpha" maskUnits="userSpaceOnUse" x="0" y="0" width="66" height="67">
<rect x="0.326172" y="0.536133" width="64.9855" height="65.7817" rx="15" fill="white"/>
</mask>
<g mask="url(#mask0_2088_1671)">
<g filter="url(#filter0_f_2088_1671)">
<circle cx="33.0917" cy="65.5186" r="11.0409" fill="#6645EB"/>
</g>
<path d="M43.0571 46.1012C39.6588 47.6755 36.0409 45.4868 35.5488 42.05C35.4645 41.4614 35.4708 40.8634 35.6164 40.2789C35.6935 39.9698 35.6334 39.7761 35.3127 39.6192C33.3504 38.6589 31.3971 37.6802 29.4475 36.6943C29.1778 36.5579 29.0383 36.6006 28.8364 36.8276C27.379 38.466 25.5591 39.0754 23.4482 38.4697C21.3893 37.879 20.1357 36.4429 19.706 34.3473C19.2536 32.1415 20.4268 29.818 22.4561 28.7759C24.5609 27.6949 27.0399 28.0989 28.6406 29.8429C29.0084 30.2436 29.2604 30.2786 29.7289 30.0346C31.5424 29.0901 33.3765 28.1844 35.2142 27.2876C35.5673 27.1153 35.6874 26.9396 35.6171 26.5337C35.0457 23.2329 37.2768 20.3581 40.627 20.2367C43.5661 20.1303 45.7033 22.4078 45.9775 24.9113C46.3406 28.2262 43.5756 30.8923 40.5201 30.732C39.0722 30.656 37.8494 30.073 36.8965 28.9794C36.6263 28.6693 36.4133 28.636 36.053 28.8196C34.1379 29.7952 32.213 30.7516 30.2833 31.6979C30.0094 31.8322 29.9432 31.9758 30.0089 32.2647C30.1853 33.0405 30.1867 33.8249 30.0108 34.6018C29.9515 34.8637 29.9999 35.013 30.2569 35.1396C32.2158 36.1047 34.1721 37.0754 36.1177 38.0668C36.4568 38.2396 36.632 38.1565 36.8691 37.9005C38.3274 36.3251 40.1157 35.742 42.1898 36.3394C44.2076 36.9207 45.4452 38.3012 45.9081 40.3528C46.4163 42.6057 45.3036 44.8557 43.0571 46.1012ZM42.9426 28.1861C44.1737 27.1471 44.5731 25.5086 43.9458 24.0712C43.3389 22.6807 41.8893 21.8301 40.3265 22.045C38.4045 22.3093 37.2521 23.7849 37.2913 25.5911C37.3208 26.9531 38.0124 28.024 39.2851 28.6176C40.5491 29.2072 41.7578 29.0459 42.9426 28.1861ZM26.7573 36.3403C28.4344 35.1763 28.8509 33.1161 27.7428 31.4658C26.7206 29.9436 24.5633 29.5049 22.9994 30.5013C21.4166 31.5097 20.93 33.6525 21.9203 35.2529C22.9289 36.8828 25.004 37.3729 26.7573 36.3403ZM42.4678 44.3973C43.832 43.5294 44.4786 42.1223 44.1662 40.7012C43.8149 39.103 42.7485 38.1078 41.0332 37.9333C39.0356 37.73 37.1835 39.2733 37.2984 41.5108C37.434 44.1528 40.0225 45.579 42.4678 44.3973Z" fill="url(#paint0_linear_2088_1671)"/>
</g>
<defs>
<filter id="filter0_f_2088_1671" x="-6.44922" y="25.9777" width="79.082" height="79.0818" filterUnits="userSpaceOnUse" color-interpolation-filters="sRGB">
<feFlood flood-opacity="0" result="BackgroundImageFix"/>
<feBlend mode="normal" in="SourceGraphic" in2="BackgroundImageFix" result="shape"/>
<feGaussianBlur stdDeviation="14.25" result="effect1_foregroundBlur_2088_1671"/>
</filter>
<linearGradient id="paint0_linear_2088_1671" x1="20.7971" y1="38.8716" x2="56.4853" y2="36.3172" gradientUnits="userSpaceOnUse">
<stop stop-color="#6645EB"/>
<stop offset="1" stop-color="#D445EB"/>
</linearGradient>
</defs>
</svg>
