<svg width="28" height="27" viewBox="0 0 28 27" fill="none" xmlns="http://www.w3.org/2000/svg">
<path d="M24.0571 26.1012C20.6588 27.6755 17.0409 25.4868 16.5488 22.05C16.4645 21.4614 16.4708 20.8634 16.6164 20.2789C16.6935 19.9698 16.6334 19.7761 16.3127 19.6192C14.3504 18.6589 12.3971 17.6802 10.4475 16.6943C10.1778 16.5579 10.0383 16.6006 9.83642 16.8276C8.37904 18.466 6.55915 19.0754 4.44823 18.4697C2.38928 17.879 1.1357 16.4429 0.705962 14.3473C0.253627 12.1415 1.42679 9.81799 3.45606 8.77588C5.56093 7.69493 8.03988 8.09891 9.64063 9.84294C10.0084 10.2436 10.2604 10.2786 10.7289 10.0346C12.5424 9.09005 14.3765 8.18437 16.2142 7.28761C16.5673 7.11533 16.6874 6.93956 16.6171 6.53368C16.0457 3.2329 18.2768 0.358092 21.627 0.236744C24.5661 0.130289 26.7033 2.40776 26.9775 4.91133C27.3406 8.22617 24.5756 10.8923 21.5201 10.732C20.0722 10.656 18.8494 10.073 17.8965 8.97939C17.6263 8.6693 17.4133 8.63601 17.053 8.81961C15.1379 9.79521 13.213 10.7516 11.2833 11.6979C11.0094 11.8322 10.9432 11.9758 11.0089 12.2647C11.1853 13.0405 11.1867 13.8249 11.0108 14.6018C10.9515 14.8637 10.9999 15.013 11.2569 15.1396C13.2158 16.1047 15.1721 17.0754 17.1177 18.0668C17.4568 18.2396 17.632 18.1565 17.8691 17.9005C19.3274 16.3251 21.1157 15.742 23.1898 16.3394C25.2076 16.9207 26.4452 18.3012 26.9081 20.3528C27.4163 22.6057 26.3036 24.8557 24.0571 26.1012ZM23.9426 8.18611C25.1737 7.14706 25.5731 5.50865 24.9458 4.07125C24.3389 2.68073 22.8893 1.83011 21.3265 2.04501C19.4045 2.3093 18.2521 3.78491 18.2913 5.59105C18.3208 6.95307 19.0124 8.02402 20.2851 8.6176C21.5491 9.20715 22.7578 9.04587 23.9426 8.18611ZM7.7573 16.3403C9.4344 15.1763 9.85091 13.1161 8.74275 11.4658C7.72061 9.9436 5.56325 9.50493 3.99937 10.5013C2.41665 11.5097 1.93005 13.6525 2.92034 15.2529C3.92889 16.8828 6.00396 17.3729 7.7573 16.3403ZM23.4678 24.3973C24.832 23.5294 25.4786 22.1223 25.1662 20.7012C24.8149 19.103 23.7485 18.1078 22.0332 17.9333C20.0356 17.73 18.1835 19.2733 18.2984 21.5108C18.434 24.1528 21.0225 25.579 23.4678 24.3973Z" fill="url(#paint0_linear_2088_1675)"/>
<defs>
<linearGradient id="paint0_linear_2088_1675" x1="1.79709" y1="18.8716" x2="37.4853" y2="16.3172" gradientUnits="userSpaceOnUse">
<stop stop-color="#6645EB"/>
<stop offset="1" stop-color="#D445EB"/>
</linearGradient>
</defs>
</svg>
