<svg width="65" height="67" viewBox="0 0 65 67" fill="none" xmlns="http://www.w3.org/2000/svg">
<rect x="0.0136719" y="0.536011" width="64.9855" height="65.7817" rx="15" fill="white" fill-opacity="0.05"/>
<rect x="0.513672" y="1.03601" width="63.9855" height="64.7817" rx="14.5" stroke="white" stroke-opacity="0.1"/>
<mask id="mask0_2088_1662" style="mask-type:alpha" maskUnits="userSpaceOnUse" x="0" y="0" width="65" height="67">
<rect x="0.0136719" y="0.536011" width="64.9855" height="65.7817" rx="15" fill="white"/>
</mask>
<g mask="url(#mask0_2088_1662)">
<g filter="url(#filter0_f_2088_1662)">
<circle cx="32.7792" cy="65.5184" r="11.0409" fill="#6645EB"/>
</g>
<path d="M44.8522 44.3662C44.2679 45.8063 43.152 46.2598 41.7458 46.2583C34.7175 46.2512 27.6892 46.2535 20.6608 46.2484C20.3784 46.2482 20.0948 46.2167 19.8138 46.1825C18.4846 46.0206 17.5586 45.083 17.4041 43.7404C17.3693 43.4376 17.3443 43.1318 17.344 42.8274C17.3411 38.833 17.3394 34.8386 17.3496 30.8443C17.3509 30.3447 17.3621 29.8314 17.4734 29.3485C17.7438 28.1744 18.8428 27.3476 20.0694 27.3462C24.0637 27.3418 28.0581 27.3344 32.0524 27.3549C32.6059 27.3577 32.8201 27.2165 32.9422 26.6351C33.6917 23.0694 36.6345 20.5821 40.1709 20.5955C44.8662 20.6133 47.8 24.4906 47.6677 28.1965C47.5945 30.2459 46.8661 31.971 45.4289 33.4034C45.1233 33.7081 45.0056 34.0211 45.0074 34.4435C45.0199 37.3246 45.0112 40.2058 45.0161 43.087C45.0168 43.5046 44.9908 43.9146 44.8522 44.3662ZM40.1982 34.0268C44.0452 34.0111 46.7516 30.4874 46.1246 27.0035C45.6117 24.1535 42.8023 21.8594 39.9212 22.0704C36.8614 22.2944 34.3477 24.8309 34.2738 27.7691C34.1885 31.1538 36.6724 33.8302 40.1982 34.0268ZM34.8192 44.7689C37.2738 44.7689 39.7284 44.7689 42.2264 44.7689C42.1668 44.6353 42.16 44.5864 42.1319 44.5619C39.6293 42.3842 37.1234 40.2104 34.6238 38.0293C34.3529 37.7929 34.1474 37.8191 33.8924 38.0545C33.4276 38.4834 32.9558 38.9083 32.4555 39.2941C31.6255 39.9342 30.6866 39.9152 29.8677 39.2593C29.4081 38.8911 28.956 38.5101 28.532 38.1021C28.2084 37.7907 27.978 37.8286 27.6505 38.1163C25.7327 39.8011 23.7957 41.464 21.8659 43.135C21.3013 43.6239 20.7391 44.1153 20.1758 44.6056C20.1986 44.66 20.2214 44.7144 20.2442 44.7688C25.0589 44.7688 29.8736 44.7688 34.8192 44.7689ZM24.5991 32.7604C26.5776 34.4726 28.5641 36.1755 30.5287 37.9035C31.0019 38.3197 31.3853 38.3017 31.8412 37.9022C33.1038 36.7958 34.3835 35.7089 35.6531 34.6105C35.7797 34.5009 35.9421 34.4073 35.9562 34.1542C34.3412 32.9523 33.2589 31.3605 32.9127 29.3327C32.8274 28.833 32.592 28.7359 32.1662 28.7533C31.4259 28.7836 30.6847 28.8103 29.944 28.8078C26.9138 28.7975 23.8836 28.7743 20.8534 28.7606C20.6317 28.7596 20.3922 28.7213 20.1344 28.9043C21.629 30.1957 23.0786 31.4482 24.5991 32.7604ZM20.5391 42.3228C22.6438 40.4973 24.7485 38.6717 26.9423 36.7689C24.25 34.4367 21.6324 32.1693 18.8829 29.7876C18.8829 34.5412 18.8829 39.071 18.8829 43.7374C19.4823 43.2259 19.9757 42.8048 20.5391 42.3228ZM38.4981 35.2869C38.1206 35.245 37.7394 34.8763 37.3796 35.1393C36.7184 35.6227 36.1119 36.1811 35.4189 36.7616C38.1238 39.1019 40.748 41.3723 43.4558 43.715C43.4558 40.6765 43.4558 37.7897 43.4558 34.8095C41.8384 35.4231 40.2526 35.7241 38.4981 35.2869Z" fill="url(#paint0_linear_2088_1662)"/>
<path d="M41.5343 28.537C40.8412 29.2342 40.1884 29.9066 39.5177 30.5606C39.005 31.0606 38.6982 31.0592 38.1743 30.5661C37.7621 30.1781 37.3628 29.7755 36.9726 29.3652C36.6451 29.0209 36.5562 28.6337 36.9386 28.2751C37.2866 27.9487 37.6439 28.0337 37.9915 28.3199C38.9056 29.0724 38.9083 29.0685 39.7628 28.2135C40.6405 27.3352 41.5207 26.4593 42.3962 25.5787C42.7532 25.2196 43.1516 24.987 43.5851 25.4032C44.0248 25.8253 43.797 26.2259 43.4397 26.588C42.8125 27.2237 42.191 27.8652 41.5343 28.537Z" fill="url(#paint1_linear_2088_1662)"/>
</g>
<defs>
<filter id="filter0_f_2088_1662" x="-6.76172" y="25.9775" width="79.082" height="79.0818" filterUnits="userSpaceOnUse" color-interpolation-filters="sRGB">
<feFlood flood-opacity="0" result="BackgroundImageFix"/>
<feBlend mode="normal" in="SourceGraphic" in2="BackgroundImageFix" result="shape"/>
<feGaussianBlur stdDeviation="14.25" result="effect1_foregroundBlur_2088_1662"/>
</filter>
<linearGradient id="paint0_linear_2088_1662" x1="18.7053" y1="38.7219" x2="59.5931" y2="35.2673" gradientUnits="userSpaceOnUse">
<stop stop-color="#6645EB"/>
<stop offset="1" stop-color="#D445EB"/>
</linearGradient>
<linearGradient id="paint1_linear_2088_1662" x1="18.7053" y1="38.7219" x2="59.5931" y2="35.2673" gradientUnits="userSpaceOnUse">
<stop stop-color="#6645EB"/>
<stop offset="1" stop-color="#D445EB"/>
</linearGradient>
</defs>
</svg>
