<svg width="31" height="27" viewBox="0 0 31 27" fill="none" xmlns="http://www.w3.org/2000/svg">
<path d="M27.8522 24.3662C27.2679 25.8063 26.152 26.2598 24.7458 26.2583C17.7175 26.2512 10.6892 26.2535 3.66084 26.2484C3.3784 26.2482 3.09475 26.2167 2.81378 26.1825C1.48464 26.0206 0.558598 25.083 0.404113 23.7404C0.369283 23.4376 0.344272 23.1318 0.344048 22.8274C0.341125 18.833 0.3394 14.8386 0.34964 10.8443C0.350921 10.3447 0.362126 9.83138 0.473352 9.34853C0.743811 8.1744 1.84275 7.34756 3.06937 7.34621C7.06373 7.3418 11.0581 7.33443 15.0524 7.35491C15.6059 7.35775 15.8201 7.21646 15.9422 6.63508C16.6917 3.06942 19.6345 0.582131 23.1709 0.595513C27.8662 0.613281 30.8 4.49061 30.6677 8.19647C30.5945 10.2459 29.8661 11.971 28.4289 13.4034C28.1233 13.7081 28.0056 14.0211 28.0074 14.4435C28.0199 17.3246 28.0112 20.2058 28.0161 23.087C28.0168 23.5046 27.9908 23.9146 27.8522 24.3662ZM23.1982 14.0268C27.0452 14.0111 29.7516 10.4874 29.1246 7.00348C28.6117 4.15354 25.8023 1.85936 22.9212 2.07036C19.8614 2.29444 17.3477 4.83092 17.2738 7.76906C17.1885 11.1538 19.6724 13.8302 23.1982 14.0268ZM17.8192 24.7689C20.2738 24.7689 22.7284 24.7689 25.2264 24.7689C25.1668 24.6353 25.16 24.5864 25.1319 24.5619C22.6293 22.3842 20.1234 20.2104 17.6238 18.0293C17.3529 17.7929 17.1474 17.8191 16.8924 18.0545C16.4276 18.4834 15.9558 18.9083 15.4555 19.2941C14.6255 19.9342 13.6866 19.9152 12.8677 19.2593C12.4081 18.8911 11.956 18.5101 11.532 18.1021C11.2084 17.7907 10.978 17.8286 10.6505 18.1163C8.73269 19.8011 6.79569 21.464 4.86586 23.135C4.30133 23.6239 3.73906 24.1153 3.17575 24.6056C3.19857 24.66 3.22139 24.7144 3.24421 24.7688C8.05888 24.7688 12.8736 24.7688 17.8192 24.7689ZM7.59913 12.7604C9.5776 14.4726 11.5641 16.1755 13.5287 17.9035C14.0019 18.3197 14.3853 18.3017 14.8412 17.9022C16.1038 16.7958 17.3835 15.7089 18.6531 14.6105C18.7797 14.5009 18.9421 14.4073 18.9562 14.1542C17.3412 12.9523 16.2589 11.3605 15.9127 9.33269C15.8274 8.83296 15.592 8.73587 15.1662 8.7533C14.4259 8.78362 13.6847 8.81028 12.944 8.80776C9.91378 8.79745 6.88359 8.77425 3.85336 8.76056C3.63166 8.75955 3.39219 8.72129 3.13438 8.9043C4.62903 10.1957 6.07855 11.4482 7.59913 12.7604ZM3.53912 22.3228C5.64381 20.4973 7.7485 18.6717 9.94233 16.7689C7.24999 14.4367 4.63244 12.1693 1.88291 9.7876C1.88291 14.5412 1.88291 19.071 1.88291 23.7374C2.48229 23.2259 2.97565 22.8048 3.53912 22.3228ZM21.4981 15.2869C21.1206 15.245 20.7394 14.8763 20.3796 15.1393C19.7184 15.6227 19.1119 16.1811 18.4189 16.7616C21.1238 19.1019 23.748 21.3723 26.4558 23.715C26.4558 20.6765 26.4558 17.7897 26.4558 14.8095C24.8384 15.4231 23.2526 15.7241 21.4981 15.2869Z" fill="url(#paint0_linear_2088_1666)"/>
<path d="M24.5343 8.537C23.8412 9.23425 23.1884 9.9066 22.5177 10.5606C22.005 11.0606 21.6982 11.0592 21.1743 10.5661C20.7621 10.1781 20.3628 9.7755 19.9726 9.36522C19.6451 9.02086 19.5562 8.63369 19.9386 8.27508C20.2866 7.94867 20.6439 8.03367 20.9915 8.31987C21.9056 9.07245 21.9083 9.06854 22.7628 8.21352C23.6405 7.33518 24.5207 6.45926 25.3962 5.57867C25.7532 5.21961 26.1516 4.987 26.5851 5.4032C27.0248 5.82532 26.797 6.22587 26.4397 6.58797C25.8125 7.22374 25.191 7.86517 24.5343 8.537Z" fill="url(#paint1_linear_2088_1666)"/>
<defs>
<linearGradient id="paint0_linear_2088_1666" x1="1.70529" y1="18.7219" x2="42.5931" y2="15.2673" gradientUnits="userSpaceOnUse">
<stop stop-color="#6645EB"/>
<stop offset="1" stop-color="#D445EB"/>
</linearGradient>
<linearGradient id="paint1_linear_2088_1666" x1="1.70529" y1="18.7219" x2="42.5931" y2="15.2673" gradientUnits="userSpaceOnUse">
<stop stop-color="#6645EB"/>
<stop offset="1" stop-color="#D445EB"/>
</linearGradient>
</defs>
</svg>
