<svg width="29" height="34" viewBox="0 0 29 34" fill="none" xmlns="http://www.w3.org/2000/svg">
<path d="M5.16212 17.8226C3.55968 12.0427 7.37455 6.30226 13.2931 5.51925C18.6282 4.81344 23.6299 8.69321 24.1492 14.0156C24.455 17.1501 23.5411 19.9049 21.2269 22.1186C20.6762 22.6453 20.204 23.2155 19.9411 23.9371C19.8629 24.1519 19.731 24.369 19.8552 24.6112C20.797 24.937 20.8214 24.9704 20.8219 25.9852C20.8228 27.5499 20.8269 29.1146 20.8202 30.6793C20.817 31.4472 20.5965 31.7051 19.8315 31.692C19.289 31.6827 19.011 31.8513 18.7605 32.3611C18.2621 33.3754 17.3937 33.9269 16.2302 33.9312C15.0728 33.9353 13.9151 33.945 12.7579 33.9282C11.5805 33.9112 10.6913 33.3732 10.2012 32.3027C9.99996 31.8631 9.76777 31.6967 9.29056 31.6986C8.35127 31.7023 8.15961 31.4854 8.157 30.5609C8.15276 29.0605 8.15253 27.5601 8.15447 26.0597C8.15588 24.9747 8.16344 24.9675 9.16867 24.5835C9.08757 23.6962 8.64539 22.9886 8.00884 22.3915C6.66651 21.1322 5.69879 19.643 5.16212 17.8226ZM6.30822 13.0449C6.19419 13.6761 6.03621 14.3028 6.03365 14.9481C6.0237 17.4587 6.92786 19.5899 8.74321 21.3204C9.5555 22.0948 10.1657 22.9763 10.4093 24.0827C10.5013 24.5005 10.6417 24.7829 11.1677 24.7215C11.7149 24.6578 11.6 24.2772 11.6008 23.958C11.6079 21.3422 11.6065 18.7262 11.6037 16.1103C11.6033 15.7848 11.6208 15.4753 11.8138 15.1892C12.4972 14.1767 13.1546 13.1465 13.8515 12.1435C14.28 11.5268 14.7421 11.5471 15.169 12.174C15.7845 13.0776 16.3709 14.0012 16.9947 14.8989C17.2653 15.2882 17.3768 15.6894 17.3664 16.1604C17.3088 18.7961 17.4774 21.4319 17.3698 24.0682C17.3584 24.348 17.2916 24.6936 17.7705 24.7187C18.1874 24.7406 18.4671 24.6607 18.5503 24.1834C18.7457 23.0626 19.3472 22.1689 20.1611 21.3955C22.4099 19.2587 23.3251 16.653 22.7946 13.5905C22.1198 9.69468 18.7158 6.63321 14.3911 6.68489C10.5521 6.73077 7.45803 9.22852 6.30822 13.0449ZM10.9444 26.0266C10.6236 26.0277 10.3028 26.0294 9.98193 26.0297C9.36337 26.0302 9.48914 26.4912 9.47698 26.8571C9.46533 27.2072 9.44202 27.5533 9.9728 27.5518C13.0101 27.5433 16.0474 27.5488 19.0847 27.5487C19.2839 27.5487 19.4637 27.5222 19.5532 27.2975C19.8408 26.5757 19.4842 26.0289 18.7079 26.028C16.1625 26.0251 13.6172 26.027 10.9444 26.0266ZM10.4416 28.8673C10.3772 28.8669 10.312 28.8733 10.2487 28.8651C9.67069 28.7908 9.4501 29.0218 9.45613 29.6216C9.46185 30.1904 9.61277 30.4262 10.2237 30.4041C11.4231 30.3607 12.6251 30.3873 13.8261 30.3873C15.5202 30.3874 17.2144 30.3927 18.9086 30.3882C19.1744 30.3874 19.478 30.452 19.5704 30.0539C19.7576 29.2468 19.484 28.8695 18.6722 28.8688C15.9701 28.8668 13.268 28.8684 10.4416 28.8673ZM16.1156 17.7651C16.0837 17.4782 16.1998 17.1724 16.0037 16.8743C15.4386 16.9956 15.1244 17.2331 15.1377 17.9022C15.1786 19.9532 15.1528 22.0055 15.1546 24.0572C15.1549 24.3776 15.1038 24.7085 15.6091 24.7206C16.1433 24.7333 16.1156 24.3976 16.1153 24.0417C16.1135 21.9899 16.1149 19.9381 16.1156 17.7651ZM13.8369 20.4408C13.8377 19.6067 13.8088 18.7711 13.8487 17.9389C13.8809 17.2654 13.5701 16.9677 12.9606 16.8905C12.8013 17.0526 12.8547 17.2333 12.8544 17.3966C12.8496 19.6209 12.8509 21.8453 12.8488 24.0696C12.8485 24.4006 12.8166 24.7176 13.3165 24.7192C13.8355 24.7209 13.8347 24.3965 13.8343 24.0343C13.8329 22.8794 13.8358 21.7244 13.8369 20.4408ZM16.6811 32.5895C17.0591 32.4388 17.4135 32.2624 17.5789 31.7544C15.4851 31.7544 13.4501 31.7544 11.408 31.7544C11.6434 32.3025 12.0215 32.6498 12.6055 32.6636C13.9306 32.695 15.2584 32.7569 16.6811 32.5895ZM14.2025 13.8931C13.8902 14.416 13.4621 14.8722 13.2492 15.4495C14.4427 16.2187 14.5802 16.2174 15.764 15.4348C15.4987 14.8296 15.0585 14.3285 14.7155 13.7686C14.5278 13.462 14.3812 13.616 14.2025 13.8931Z" fill="url(#paint0_linear_2088_1684)"/>
<path d="M14.5874 4.38835C14.0558 4.36736 13.8651 4.05326 13.8518 3.6265C13.8312 2.96432 13.8288 2.3003 13.8544 1.63843C13.8694 1.24871 14.0215 0.910208 14.497 0.915923C14.968 0.921586 15.1201 1.26394 15.1362 1.64939C15.1637 2.31116 15.1524 2.97509 15.1394 3.63777C15.1326 3.98137 14.997 4.26232 14.5874 4.38835Z" fill="url(#paint1_linear_2088_1684)"/>
<path d="M20.645 5.69595C20.322 5.95587 20.018 5.99229 19.751 5.71943C19.5104 5.47354 19.5412 5.17039 19.6994 4.88852C20.0441 4.2747 20.3883 3.66012 20.7551 3.05954C20.941 2.75514 21.2315 2.61282 21.5748 2.80311C21.9264 2.99803 22.0353 3.31231 21.8352 3.67131C21.4615 4.34165 21.0649 4.99919 20.645 5.69595Z" fill="url(#paint2_linear_2088_1684)"/>
<path d="M8.48846 3.4622C8.77566 3.96739 9.05585 4.42243 9.29931 4.89635C9.47901 5.24616 9.51787 5.62842 9.09883 5.83519C8.71062 6.02675 8.39893 5.85359 8.19003 5.488C7.91485 5.00644 7.6361 4.52692 7.36253 4.04445C7.12685 3.62881 6.83118 3.15211 7.39989 2.82598C7.98001 2.49331 8.22016 3.01806 8.48846 3.4622Z" fill="url(#paint3_linear_2088_1684)"/>
<path d="M26.3866 9.00069C25.8101 9.33441 25.274 9.64515 24.7353 9.95145C24.3596 10.1651 24.0241 10.1246 23.8083 9.72942C23.5822 9.31532 23.8081 9.03976 24.1557 8.83487C24.6896 8.5202 25.2257 8.20946 25.7643 7.90298C26.1223 7.69925 26.521 7.56888 26.7875 7.9842C27.0636 8.41457 26.8473 8.7537 26.3866 9.00069Z" fill="url(#paint4_linear_2088_1684)"/>
<path d="M26.3137 22.5767C25.462 22.2703 24.7446 21.8042 24.0243 21.349C23.7233 21.1588 23.6081 20.8519 23.8168 20.5154C24.0197 20.1882 24.3276 20.1275 24.6519 20.3039C25.3088 20.6613 25.9726 21.0123 26.5964 21.4223C27.1067 21.7577 26.9865 22.2618 26.3137 22.5767Z" fill="url(#paint5_linear_2088_1684)"/>
<path d="M4.60314 10.0804C3.88075 9.70447 3.20559 9.34013 2.53786 8.96266C2.16246 8.75043 1.93379 8.44484 2.18917 8.01663C2.42809 7.61603 2.79232 7.67516 3.14099 7.86986C3.69974 8.18185 4.24877 8.51118 4.80642 8.82518C5.08699 8.98316 5.28403 9.17994 5.24876 9.53251C5.21255 9.89458 4.98378 10.0436 4.60314 10.0804Z" fill="url(#paint6_linear_2088_1684)"/>
<path d="M4.5927 20.2201C4.98984 20.2386 5.19945 20.4115 5.24465 20.7615C5.28645 21.0852 5.10439 21.2844 4.85076 21.4329C4.26176 21.778 3.66964 22.1176 3.07874 22.4594C2.72833 22.6621 2.40287 22.6243 2.18735 22.2796C1.97115 21.9338 2.07827 21.5928 2.41617 21.3974C3.11625 20.9926 3.78464 20.5278 4.5927 20.2201Z" fill="url(#paint7_linear_2088_1684)"/>
<path d="M27.8211 15.781C27.1844 15.78 26.6072 15.7862 26.0304 15.7745C25.5994 15.7657 25.251 15.6068 25.2694 15.1098C25.2868 14.6385 25.6356 14.5375 26.0392 14.5401C26.6376 14.544 27.2362 14.5496 27.8343 14.538C28.2762 14.5295 28.7017 14.585 28.7187 15.1271C28.7353 15.6591 28.3287 15.7765 27.8211 15.781Z" fill="url(#paint8_linear_2088_1684)"/>
<path d="M0.29742 14.987C0.42234 14.6248 0.664501 14.5388 0.967289 14.5409C1.64871 14.5456 2.33018 14.5425 3.01162 14.544C3.39747 14.5449 3.69087 14.6759 3.7061 15.1138C3.72221 15.5769 3.4284 15.7625 3.01697 15.7717C2.33591 15.7869 1.65385 15.7887 0.972949 15.7697C0.523483 15.7571 0.254622 15.5305 0.29742 14.987Z" fill="url(#paint9_linear_2088_1684)"/>
<defs>
<linearGradient id="paint0_linear_2088_1684" x1="1.57087" y1="24.2401" x2="40.0199" y2="21.874" gradientUnits="userSpaceOnUse">
<stop stop-color="#6645EB"/>
<stop offset="1" stop-color="#D445EB"/>
</linearGradient>
<linearGradient id="paint1_linear_2088_1684" x1="1.57087" y1="24.2401" x2="40.0199" y2="21.874" gradientUnits="userSpaceOnUse">
<stop stop-color="#6645EB"/>
<stop offset="1" stop-color="#D445EB"/>
</linearGradient>
<linearGradient id="paint2_linear_2088_1684" x1="1.57087" y1="24.2401" x2="40.0199" y2="21.874" gradientUnits="userSpaceOnUse">
<stop stop-color="#6645EB"/>
<stop offset="1" stop-color="#D445EB"/>
</linearGradient>
<linearGradient id="paint3_linear_2088_1684" x1="1.57087" y1="24.2401" x2="40.0199" y2="21.874" gradientUnits="userSpaceOnUse">
<stop stop-color="#6645EB"/>
<stop offset="1" stop-color="#D445EB"/>
</linearGradient>
<linearGradient id="paint4_linear_2088_1684" x1="1.57087" y1="24.2401" x2="40.0199" y2="21.874" gradientUnits="userSpaceOnUse">
<stop stop-color="#6645EB"/>
<stop offset="1" stop-color="#D445EB"/>
</linearGradient>
<linearGradient id="paint5_linear_2088_1684" x1="1.57087" y1="24.2401" x2="40.0199" y2="21.874" gradientUnits="userSpaceOnUse">
<stop stop-color="#6645EB"/>
<stop offset="1" stop-color="#D445EB"/>
</linearGradient>
<linearGradient id="paint6_linear_2088_1684" x1="1.57087" y1="24.2401" x2="40.0199" y2="21.874" gradientUnits="userSpaceOnUse">
<stop stop-color="#6645EB"/>
<stop offset="1" stop-color="#D445EB"/>
</linearGradient>
<linearGradient id="paint7_linear_2088_1684" x1="1.57087" y1="24.2401" x2="40.0199" y2="21.874" gradientUnits="userSpaceOnUse">
<stop stop-color="#6645EB"/>
<stop offset="1" stop-color="#D445EB"/>
</linearGradient>
<linearGradient id="paint8_linear_2088_1684" x1="1.57087" y1="24.2401" x2="40.0199" y2="21.874" gradientUnits="userSpaceOnUse">
<stop stop-color="#6645EB"/>
<stop offset="1" stop-color="#D445EB"/>
</linearGradient>
<linearGradient id="paint9_linear_2088_1684" x1="1.57087" y1="24.2401" x2="40.0199" y2="21.874" gradientUnits="userSpaceOnUse">
<stop stop-color="#6645EB"/>
<stop offset="1" stop-color="#D445EB"/>
</linearGradient>
</defs>
</svg>
