<svg width="65" height="67" viewBox="0 0 65 67" fill="none" xmlns="http://www.w3.org/2000/svg">
<rect x="0.0136719" y="0.536011" width="64.9855" height="65.7817" rx="15" fill="white" fill-opacity="0.05"/>
<rect x="0.513672" y="1.03601" width="63.9855" height="64.7817" rx="14.5" stroke="white" stroke-opacity="0.1"/>
<mask id="mask0_2088_1680" style="mask-type:alpha" maskUnits="userSpaceOnUse" x="0" y="0" width="65" height="67">
<rect x="0.0136719" y="0.536011" width="64.9855" height="65.7817" rx="15" fill="white"/>
</mask>
<g mask="url(#mask0_2088_1680)">
<g filter="url(#filter0_f_2088_1680)">
<circle cx="32.7792" cy="65.5184" r="11.0409" fill="#6645EB"/>
</g>
<path d="M23.1621 33.8226C21.5597 28.0427 25.3745 22.3023 31.2931 21.5193C36.6282 20.8134 41.6299 24.6932 42.1492 30.0156C42.455 33.1501 41.5411 35.9049 39.2269 38.1186C38.6762 38.6453 38.204 39.2155 37.9411 39.9371C37.8629 40.1519 37.731 40.369 37.8552 40.6112C38.797 40.937 38.8214 40.9704 38.8219 41.9852C38.8228 43.5499 38.8269 45.1146 38.8202 46.6793C38.817 47.4472 38.5965 47.7051 37.8315 47.692C37.289 47.6827 37.011 47.8513 36.7605 48.3611C36.2621 49.3754 35.3937 49.9269 34.2302 49.9312C33.0728 49.9353 31.9151 49.945 30.7579 49.9282C29.5805 49.9112 28.6913 49.3732 28.2012 48.3027C28 47.8631 27.7678 47.6967 27.2906 47.6986C26.3513 47.7023 26.1596 47.4854 26.157 46.5609C26.1528 45.0605 26.1525 43.5601 26.1545 42.0597C26.1559 40.9747 26.1634 40.9675 27.1687 40.5835C27.0876 39.6962 26.6454 38.9886 26.0088 38.3915C24.6665 37.1322 23.6988 35.643 23.1621 33.8226ZM24.3082 29.0449C24.1942 29.6761 24.0362 30.3028 24.0336 30.9481C24.0237 33.4587 24.9279 35.5899 26.7432 37.3204C27.5555 38.0948 28.1657 38.9763 28.4093 40.0827C28.5013 40.5005 28.6417 40.7829 29.1677 40.7215C29.7149 40.6578 29.6 40.2772 29.6008 39.958C29.6079 37.3422 29.6065 34.7262 29.6037 32.1103C29.6033 31.7848 29.6208 31.4753 29.8138 31.1892C30.4972 30.1767 31.1546 29.1465 31.8515 28.1435C32.28 27.5268 32.7421 27.5471 33.169 28.174C33.7845 29.0776 34.3709 30.0012 34.9947 30.8989C35.2653 31.2882 35.3768 31.6894 35.3664 32.1604C35.3088 34.7961 35.4774 37.4319 35.3698 40.0682C35.3584 40.348 35.2916 40.6936 35.7705 40.7187C36.1874 40.7406 36.4671 40.6607 36.5503 40.1834C36.7457 39.0626 37.3472 38.1689 38.1611 37.3955C40.4099 35.2587 41.3251 32.653 40.7946 29.5905C40.1198 25.6947 36.7158 22.6332 32.3911 22.6849C28.5521 22.7308 25.458 25.2285 24.3082 29.0449ZM28.9444 42.0266C28.6236 42.0277 28.3028 42.0294 27.9819 42.0297C27.3634 42.0302 27.4891 42.4912 27.477 42.8571C27.4653 43.2072 27.442 43.5533 27.9728 43.5518C31.0101 43.5433 34.0474 43.5488 37.0847 43.5487C37.2839 43.5487 37.4637 43.5222 37.5532 43.2975C37.8408 42.5757 37.4842 42.0289 36.7079 42.028C34.1625 42.0251 31.6172 42.027 28.9444 42.0266ZM28.4416 44.8673C28.3772 44.8669 28.312 44.8733 28.2487 44.8651C27.6707 44.7908 27.4501 45.0218 27.4561 45.6216C27.4618 46.1904 27.6128 46.4262 28.2237 46.4041C29.4231 46.3607 30.6251 46.3873 31.8261 46.3873C33.5202 46.3874 35.2144 46.3927 36.9086 46.3882C37.1744 46.3874 37.478 46.452 37.5704 46.0539C37.7576 45.2468 37.484 44.8695 36.6722 44.8688C33.9701 44.8668 31.268 44.8684 28.4416 44.8673ZM34.1156 33.7651C34.0837 33.4782 34.1998 33.1724 34.0037 32.8743C33.4386 32.9956 33.1244 33.2331 33.1377 33.9022C33.1786 35.9532 33.1528 38.0055 33.1546 40.0572C33.1549 40.3776 33.1038 40.7085 33.6091 40.7206C34.1433 40.7333 34.1156 40.3976 34.1153 40.0417C34.1135 37.9899 34.1149 35.9381 34.1156 33.7651ZM31.8369 36.4408C31.8377 35.6067 31.8088 34.7711 31.8487 33.9389C31.8809 33.2654 31.5701 32.9677 30.9606 32.8905C30.8013 33.0526 30.8547 33.2333 30.8544 33.3966C30.8496 35.6209 30.8509 37.8453 30.8488 40.0696C30.8485 40.4006 30.8166 40.7176 31.3165 40.7192C31.8355 40.7209 31.8347 40.3965 31.8343 40.0343C31.8329 38.8794 31.8358 37.7244 31.8369 36.4408ZM34.6811 48.5895C35.0591 48.4388 35.4135 48.2624 35.5789 47.7544C33.4851 47.7544 31.4501 47.7544 29.408 47.7544C29.6434 48.3025 30.0215 48.6498 30.6055 48.6636C31.9306 48.695 33.2584 48.7569 34.6811 48.5895ZM32.2025 29.8931C31.8902 30.416 31.4621 30.8722 31.2492 31.4495C32.4427 32.2187 32.5802 32.2174 33.764 31.4348C33.4987 30.8296 33.0585 30.3285 32.7155 29.7686C32.5278 29.462 32.3812 29.616 32.2025 29.8931Z" fill="url(#paint0_linear_2088_1680)"/>
<path d="M32.5874 20.3884C32.0558 20.3674 31.8651 20.0533 31.8518 19.6265C31.8312 18.9643 31.8288 18.3003 31.8544 17.6384C31.8694 17.2487 32.0215 16.9102 32.497 16.9159C32.968 16.9216 33.1201 17.2639 33.1362 17.6494C33.1637 18.3112 33.1524 18.9751 33.1394 19.6378C33.1326 19.9814 32.997 20.2623 32.5874 20.3884Z" fill="url(#paint1_linear_2088_1680)"/>
<path d="M38.645 21.6959C38.322 21.9559 38.018 21.9923 37.751 21.7194C37.5104 21.4735 37.5412 21.1704 37.6994 20.8885C38.0441 20.2747 38.3883 19.6601 38.7551 19.0595C38.941 18.7551 39.2315 18.6128 39.5748 18.8031C39.9264 18.998 40.0353 19.3123 39.8352 19.6713C39.4615 20.3417 39.0649 20.9992 38.645 21.6959Z" fill="url(#paint2_linear_2088_1680)"/>
<path d="M26.4885 19.4622C26.7757 19.9674 27.0559 20.4224 27.2993 20.8963C27.479 21.2462 27.5179 21.6284 27.0988 21.8352C26.7106 22.0268 26.3989 21.8536 26.19 21.488C25.9149 21.0064 25.6361 20.5269 25.3625 20.0445C25.1268 19.6288 24.8312 19.1521 25.3999 18.826C25.98 18.4933 26.2202 19.0181 26.4885 19.4622Z" fill="url(#paint3_linear_2088_1680)"/>
<path d="M44.3866 25.0007C43.8101 25.3344 43.274 25.6451 42.7353 25.9515C42.3596 26.1651 42.0241 26.1246 41.8083 25.7294C41.5822 25.3153 41.8081 25.0398 42.1557 24.8349C42.6896 24.5202 43.2257 24.2095 43.7643 23.903C44.1223 23.6993 44.521 23.5689 44.7875 23.9842C45.0636 24.4146 44.8473 24.7537 44.3866 25.0007Z" fill="url(#paint4_linear_2088_1680)"/>
<path d="M44.3137 38.5767C43.462 38.2703 42.7446 37.8042 42.0243 37.349C41.7233 37.1588 41.6081 36.8519 41.8168 36.5154C42.0197 36.1882 42.3276 36.1275 42.6519 36.3039C43.3088 36.6613 43.9726 37.0123 44.5964 37.4223C45.1067 37.7577 44.9865 38.2618 44.3137 38.5767Z" fill="url(#paint5_linear_2088_1680)"/>
<path d="M22.6031 26.0804C21.8808 25.7045 21.2056 25.3401 20.5379 24.9627C20.1625 24.7504 19.9338 24.4448 20.1892 24.0166C20.4281 23.616 20.7923 23.6752 21.141 23.8699C21.6997 24.1818 22.2488 24.5112 22.8064 24.8252C23.087 24.9832 23.284 25.1799 23.2488 25.5325C23.2125 25.8946 22.9838 26.0436 22.6031 26.0804Z" fill="url(#paint6_linear_2088_1680)"/>
<path d="M22.5927 36.2201C22.9898 36.2386 23.1995 36.4115 23.2446 36.7615C23.2864 37.0852 23.1044 37.2844 22.8508 37.4329C22.2618 37.778 21.6696 38.1176 21.0787 38.4594C20.7283 38.6621 20.4029 38.6243 20.1873 38.2796C19.9711 37.9338 20.0783 37.5928 20.4162 37.3974C21.1162 36.9926 21.7846 36.5278 22.5927 36.2201Z" fill="url(#paint7_linear_2088_1680)"/>
<path d="M45.8211 31.781C45.1844 31.78 44.6072 31.7862 44.0304 31.7745C43.5994 31.7657 43.251 31.6068 43.2694 31.1098C43.2868 30.6385 43.6356 30.5375 44.0392 30.5401C44.6376 30.544 45.2362 30.5496 45.8343 30.538C46.2762 30.5295 46.7017 30.585 46.7187 31.1271C46.7353 31.6591 46.3287 31.7765 45.8211 31.781Z" fill="url(#paint8_linear_2088_1680)"/>
<path d="M18.2974 30.987C18.4223 30.6248 18.6645 30.5388 18.9673 30.5409C19.6487 30.5456 20.3302 30.5425 21.0116 30.544C21.3975 30.5449 21.6909 30.6759 21.7061 31.1138C21.7222 31.5769 21.4284 31.7625 21.017 31.7717C20.3359 31.7869 19.6538 31.7887 18.9729 31.7697C18.5235 31.7571 18.2546 31.5305 18.2974 30.987Z" fill="url(#paint9_linear_2088_1680)"/>
</g>
<defs>
<filter id="filter0_f_2088_1680" x="-6.76172" y="25.9775" width="79.082" height="79.0818" filterUnits="userSpaceOnUse" color-interpolation-filters="sRGB">
<feFlood flood-opacity="0" result="BackgroundImageFix"/>
<feBlend mode="normal" in="SourceGraphic" in2="BackgroundImageFix" result="shape"/>
<feGaussianBlur stdDeviation="14.25" result="effect1_foregroundBlur_2088_1680"/>
</filter>
<linearGradient id="paint0_linear_2088_1680" x1="19.5709" y1="40.2401" x2="58.0199" y2="37.874" gradientUnits="userSpaceOnUse">
<stop stop-color="#6645EB"/>
<stop offset="1" stop-color="#D445EB"/>
</linearGradient>
<linearGradient id="paint1_linear_2088_1680" x1="19.5709" y1="40.2401" x2="58.0199" y2="37.874" gradientUnits="userSpaceOnUse">
<stop stop-color="#6645EB"/>
<stop offset="1" stop-color="#D445EB"/>
</linearGradient>
<linearGradient id="paint2_linear_2088_1680" x1="19.5709" y1="40.2401" x2="58.0199" y2="37.874" gradientUnits="userSpaceOnUse">
<stop stop-color="#6645EB"/>
<stop offset="1" stop-color="#D445EB"/>
</linearGradient>
<linearGradient id="paint3_linear_2088_1680" x1="19.5709" y1="40.2401" x2="58.0199" y2="37.874" gradientUnits="userSpaceOnUse">
<stop stop-color="#6645EB"/>
<stop offset="1" stop-color="#D445EB"/>
</linearGradient>
<linearGradient id="paint4_linear_2088_1680" x1="19.5709" y1="40.2401" x2="58.0199" y2="37.874" gradientUnits="userSpaceOnUse">
<stop stop-color="#6645EB"/>
<stop offset="1" stop-color="#D445EB"/>
</linearGradient>
<linearGradient id="paint5_linear_2088_1680" x1="19.5709" y1="40.2401" x2="58.0199" y2="37.874" gradientUnits="userSpaceOnUse">
<stop stop-color="#6645EB"/>
<stop offset="1" stop-color="#D445EB"/>
</linearGradient>
<linearGradient id="paint6_linear_2088_1680" x1="19.5709" y1="40.2401" x2="58.0199" y2="37.874" gradientUnits="userSpaceOnUse">
<stop stop-color="#6645EB"/>
<stop offset="1" stop-color="#D445EB"/>
</linearGradient>
<linearGradient id="paint7_linear_2088_1680" x1="19.5709" y1="40.2401" x2="58.0199" y2="37.874" gradientUnits="userSpaceOnUse">
<stop stop-color="#6645EB"/>
<stop offset="1" stop-color="#D445EB"/>
</linearGradient>
<linearGradient id="paint8_linear_2088_1680" x1="19.5709" y1="40.2401" x2="58.0199" y2="37.874" gradientUnits="userSpaceOnUse">
<stop stop-color="#6645EB"/>
<stop offset="1" stop-color="#D445EB"/>
</linearGradient>
<linearGradient id="paint9_linear_2088_1680" x1="19.5709" y1="40.2401" x2="58.0199" y2="37.874" gradientUnits="userSpaceOnUse">
<stop stop-color="#6645EB"/>
<stop offset="1" stop-color="#D445EB"/>
</linearGradient>
</defs>
</svg>
