<svg width="29" height="32" viewBox="0 0 29 32" fill="none" xmlns="http://www.w3.org/2000/svg">
<path d="M25.5867 24.9509C24.152 26.8657 22.2513 27.8445 19.9303 28.0327C19.6232 28.0576 19.4817 28.1667 19.3775 28.4605C18.7331 30.278 16.9494 31.3412 15.1205 31.0235C13.311 30.7092 11.9258 29.1069 11.88 27.275C11.8366 25.5403 13.2064 23.853 14.9352 23.5116C16.7685 23.1497 18.6506 24.1026 19.2436 25.774C19.4435 26.3376 19.7356 26.4771 20.2612 26.3946C21.8091 26.1516 23.0848 25.4438 24.1023 24.2244C24.0261 24.1543 23.9897 24.0906 23.9451 24.0843C22.8421 23.9265 22.7089 23.7781 22.7089 22.6774C22.709 19.9486 22.7098 17.2199 22.7116 14.4911C22.7118 14.1909 22.7135 13.8931 22.7845 13.5947C22.8919 13.1429 23.1345 12.8653 23.6193 12.9099C24.1389 12.9577 24.2421 12.7117 24.2629 12.2392C24.373 9.73895 23.9478 7.38464 22.3252 5.39752C19.8217 2.33161 16.5725 1.12133 12.7336 2.07184C8.91444 3.01746 6.64196 5.60978 5.81759 9.4482C5.61066 10.4117 5.66662 11.4027 5.66458 12.3852C5.66373 12.7958 5.87551 12.886 6.22787 12.9057C6.92602 12.9447 7.21122 13.2012 7.21543 13.9097C7.23377 16.9995 7.22839 20.0894 7.21903 23.1792C7.21758 23.6606 6.94333 24.0267 6.46003 24.0341C5.30046 24.0517 4.13055 24.1887 2.98138 23.9497C1.66108 23.675 0.730098 22.5929 0.647376 21.2401C0.53345 19.377 0.527009 17.5105 0.65963 15.6485C0.76355 14.1894 2.01311 12.976 3.46252 12.9163C3.92785 12.8971 4.03967 12.7053 4.0315 12.2887C4.0095 11.1665 4.04042 10.0501 4.2478 8.93679C5.0768 4.48629 8.87896 0.897528 13.3537 0.248536C19.1939 -0.598485 24.6475 3.24823 25.7459 9.1692C25.9339 10.1827 25.9068 11.206 25.8904 12.2276C25.8838 12.6418 25.958 12.8578 26.4464 12.9494C27.6609 13.1773 28.7798 14.541 28.8903 15.9263C29.0404 17.8068 29.0331 19.6937 28.9165 21.577C28.8446 22.7371 28.1854 23.5305 27.0958 23.7707C26.3524 23.9346 25.9523 24.3349 25.5867 24.9509ZM5.58527 18.6672C5.58528 17.8457 5.58528 17.0241 5.58532 16.2026C5.58538 14.5071 5.58539 14.5071 3.86453 14.5349C2.86057 14.5512 2.29535 15.0801 2.28311 16.0876C2.26341 17.7104 2.269 19.3337 2.28455 20.9565C2.29271 21.8077 2.86091 22.3741 3.71627 22.4137C4.15618 22.4341 4.59869 22.4008 5.03832 22.424C5.46408 22.4465 5.59803 22.26 5.59095 21.8533C5.57317 20.8317 5.58516 19.8096 5.58527 18.6672ZM27.2785 16.4177C27.1607 14.8602 26.2005 14.1755 24.6672 14.5422C24.4174 14.602 24.3438 14.7533 24.3447 14.9732C24.3545 17.3202 24.3657 19.6672 24.3782 22.0141C24.3794 22.2403 24.4608 22.4146 24.7229 22.4117C25.2234 22.4061 25.732 22.4445 26.2224 22.3685C27.0222 22.2446 27.2779 21.9098 27.2816 21.1041C27.2884 19.5794 27.2828 18.0545 27.2785 16.4177ZM15.9918 29.4015C16.203 29.3421 16.4234 29.3045 16.6238 29.2196C17.686 28.7693 18.1794 27.6208 17.795 26.52C17.4184 25.4415 16.2901 24.8347 15.1975 25.1228C14.0734 25.4192 13.4535 26.3552 13.6017 27.5323C13.7393 28.6252 14.664 29.3812 15.9918 29.4015Z" fill="url(#paint0_linear_2634_2184)"/>
<defs>
<linearGradient id="paint0_linear_2634_2184" x1="1.83967" y1="21.9909" x2="40.2905" y2="19.4646" gradientUnits="userSpaceOnUse">
<stop stop-color="#6645EB"/>
<stop offset="1" stop-color="#D445EB"/>
</linearGradient>
</defs>
</svg>
