<svg width="70" height="70" viewBox="0 0 70 70" fill="none" xmlns="http://www.w3.org/2000/svg">
<g filter="url(#filter0_b_2093_3470)">
<rect width="69.5782" height="69.5782" rx="20" fill="white" fill-opacity="0.05"/>
<rect x="0.5" y="0.5" width="68.5782" height="68.5782" rx="19.5" stroke="white" stroke-opacity="0.1"/>
</g>
<g clip-path="url(#clip0_2093_3470)">
<path d="M42.3479 30.372V26.2617C42.8911 26.0078 43.351 25.6049 43.6741 25.0998C43.9972 24.5948 44.1702 24.0083 44.1729 23.4087V23.3144C44.1729 21.5663 42.7558 20.1491 41.0078 20.1491H40.9133C39.1652 20.1491 37.748 21.5663 37.748 23.3144V23.4087C37.7508 24.0083 37.9238 24.5948 38.2469 25.0998C38.57 25.6049 39.0299 26.0078 39.5731 26.2617V30.372C38.0119 30.6111 36.5417 31.2584 35.3112 32.2485L24.0383 23.4681C24.1187 23.1779 24.1606 22.8795 24.1654 22.58C24.1668 21.8746 23.9589 21.1846 23.5681 20.5973C23.1772 20.01 22.621 19.5519 21.9698 19.2807C21.3185 19.0096 20.6015 18.9377 19.9094 19.0742C19.2173 19.2106 18.5812 19.5493 18.0816 20.0473C17.5819 20.5453 17.2412 21.1803 17.1026 21.8719C16.9639 22.5636 17.0334 23.2809 17.3024 23.933C17.5714 24.5851 18.0278 25.1428 18.6138 25.5355C19.1998 25.9282 19.8891 26.1383 20.5946 26.1393C21.2117 26.1363 21.8173 25.9716 22.3508 25.6614L33.4513 34.2993C31.4105 37.3823 31.4651 41.4003 33.5888 44.4268L30.2126 47.804C29.9396 47.7168 29.6554 47.6704 29.3688 47.6665C27.7519 47.6679 26.442 48.9792 26.4425 50.5961C26.4429 52.2129 27.7536 53.5234 29.3704 53.5239C30.9873 53.5243 32.2986 52.2144 32.3 50.5975C32.2962 50.311 32.2498 50.0267 32.1623 49.7538L35.5023 46.4126C38.4866 48.71 42.5854 48.908 45.7773 46.9088C48.9691 44.9095 50.5799 41.1352 49.8151 37.4475C49.0503 33.7597 46.0715 30.9373 42.3479 30.372ZM40.9635 43.8906C40.3464 43.9072 39.7323 43.8 39.1574 43.5754C38.5825 43.3507 38.0584 43.0131 37.6161 42.5826C37.1738 42.152 36.8222 41.6372 36.5822 41.0685C36.3421 40.4998 36.2185 39.8888 36.2185 39.2716C36.2185 38.6543 36.3421 38.0433 36.5822 37.4746C36.8222 36.9059 37.1738 36.3911 37.6161 35.9605C38.0584 35.53 38.5825 35.1924 39.1574 34.9677C39.7323 34.7431 40.3464 34.6359 40.9635 34.6525C43.4501 34.7395 45.4213 36.7799 45.4226 39.2682C45.4238 41.7562 43.4547 43.7987 40.9681 43.8883" fill="#FF7A59"/>
</g>
<defs>
<filter id="filter0_b_2093_3470" x="-16.7" y="-16.7" width="102.978" height="102.978" filterUnits="userSpaceOnUse" color-interpolation-filters="sRGB">
<feFlood flood-opacity="0" result="BackgroundImageFix"/>
<feGaussianBlur in="BackgroundImageFix" stdDeviation="8.35"/>
<feComposite in2="SourceAlpha" operator="in" result="effect1_backgroundBlur_2093_3470"/>
<feBlend mode="normal" in="SourceGraphic" in2="effect1_backgroundBlur_2093_3470" result="shape"/>
</filter>
<clipPath id="clip0_2093_3470">
<rect width="35" height="35" fill="white" transform="translate(16.0659 18.5242)"/>
</clipPath>
</defs>
</svg>
