<svg width="36" height="36" viewBox="0 0 36 36" fill="none" xmlns="http://www.w3.org/2000/svg">
<g clip-path="url(#clip0_2093_3472)">
<path d="M26.3479 12.372V8.26171C26.8911 8.00784 27.351 7.60492 27.6741 7.09984C27.9972 6.59476 28.1702 6.00831 28.1729 5.40874V5.31443C28.1729 3.56629 26.7558 2.14914 25.0078 2.14914H24.9133C23.1652 2.14914 21.748 3.56629 21.748 5.31443V5.40874C21.7508 6.00831 21.9238 6.59476 22.2469 7.09984C22.57 7.60492 23.0299 8.00784 23.5731 8.26171V12.372C22.0119 12.6111 20.5417 13.2584 19.3112 14.2485L8.03833 5.46808C8.11871 5.17791 8.16064 4.87952 8.16538 4.58001C8.16675 3.87458 7.95889 3.18459 7.56807 2.59732C7.17725 2.01004 6.62104 1.55186 5.96979 1.28074C5.31854 1.00962 4.60151 0.937737 3.9094 1.07418C3.21729 1.21062 2.5812 1.54927 2.08157 2.04727C1.58195 2.54528 1.24125 3.18027 1.10256 3.87193C0.963872 4.5636 1.03343 5.28085 1.30244 5.93298C1.57145 6.58511 2.02781 7.1428 2.61382 7.53552C3.19983 7.92824 3.88914 8.13835 4.59457 8.13926C5.21169 8.13635 5.81725 7.97159 6.35079 7.66144L17.4513 16.2993C15.4105 19.3823 15.4651 23.4003 17.5888 26.4268L14.2126 29.804C13.9396 29.7168 13.6554 29.6704 13.3688 29.6665C11.7519 29.6679 10.442 30.9792 10.4425 32.5961C10.4429 34.2129 11.7536 35.5234 13.3704 35.5239C14.9873 35.5243 16.2986 34.2144 16.3 32.5975C16.2962 32.311 16.2498 32.0267 16.1623 31.7538L19.5023 28.4126C22.4866 30.71 26.5854 30.908 29.7773 28.9088C32.9691 26.9095 34.5799 23.1352 33.8151 19.4475C33.0503 15.7597 30.0715 12.9373 26.3479 12.372ZM24.9635 25.8906C24.3464 25.9072 23.7323 25.8 23.1574 25.5754C22.5825 25.3507 22.0584 25.0131 21.6161 24.5826C21.1738 24.152 20.8222 23.6372 20.5822 23.0685C20.3421 22.4998 20.2185 21.8888 20.2185 21.2716C20.2185 20.6543 20.3421 20.0433 20.5822 19.4746C20.8222 18.9059 21.1738 18.3911 21.6161 17.9605C22.0584 17.53 22.5825 17.1924 23.1574 16.9677C23.7323 16.7431 24.3464 16.6359 24.9635 16.6525C27.4501 16.7395 29.4213 18.7799 29.4226 21.2682C29.4238 23.7562 27.4547 25.7987 24.9681 25.8883" fill="#FF7A59"/>
</g>
<defs>
<clipPath id="clip0_2093_3472">
<rect width="35" height="35" fill="white" transform="translate(0.065918 0.52417)"/>
</clipPath>
</defs>
</svg>
