<svg width="127" height="35" viewBox="0 0 127 35" fill="none" xmlns="http://www.w3.org/2000/svg">
<g clip-path="url(#clip0_2249_568)">
<path d="M45.2171 10.4386H48.3148V24.2118H45.2171V18.3682H40.0111V24.2118H36.9133V10.4386H40.0111V15.7045H45.2171V10.4386Z" fill="white"/>
<path d="M55.3303 10.2805C57.399 10.2805 58.9786 10.6405 60.0797 11.3822C60.6285 11.7615 61.069 12.2773 61.3576 12.879C61.6463 13.4805 61.7732 14.1471 61.7258 14.8127C61.7643 15.6487 61.5307 16.4747 61.06 17.1666C60.564 17.8082 59.9005 18.3003 59.1426 18.5884C59.4231 18.9483 59.7145 19.3266 60.0169 19.7693C60.3193 20.2122 60.6266 20.6764 60.9235 21.1626C61.2204 21.6487 61.5063 22.1489 61.7868 22.6711C62.0672 23.1932 62.3226 23.7147 62.5458 24.2118H59.081L58.3147 22.8406C58.0558 22.3774 57.7895 21.9275 57.516 21.4908C57.2429 21.0515 56.9764 20.6368 56.71 20.2488C56.4436 19.8609 56.1778 19.5034 55.9113 19.1691H54.3823V24.2088H51.2827V10.6368C51.9757 10.5026 52.676 10.4101 53.38 10.3599C54.1177 10.3056 54.7639 10.2805 55.3303 10.2805ZM55.5132 12.9224C55.2876 12.9224 55.0863 12.9295 54.909 12.9438L54.4018 12.9834V16.7195H55.2761C56.1326 16.7801 56.991 16.6293 57.7757 16.2803C58.0282 16.1273 58.2329 15.9066 58.3663 15.6432C58.4998 15.3799 58.5569 15.0843 58.5311 14.7901C58.5543 14.5024 58.4948 14.2141 58.3596 13.959C58.2245 13.7041 58.0193 13.493 57.7684 13.3506C57.0636 13.0226 56.2889 12.8731 55.5126 12.9151L55.5132 12.9224Z" fill="white"/>
<path d="M74.5418 21.5542V24.2179H65.3426V10.4386H68.4404V21.5542H74.5418Z" fill="white"/>
<path d="M85.9325 18.966C85.9399 19.732 85.8185 20.4938 85.5728 21.2192C85.3553 21.8685 85.0031 22.4646 84.5399 22.9687C84.0879 23.456 83.5361 23.8392 82.921 24.0916C81.5671 24.6242 80.0621 24.6242 78.7083 24.0916C78.094 23.8393 77.5414 23.4561 77.0894 22.9687C76.6239 22.4628 76.2665 21.8676 76.0386 21.2192C75.7862 20.4955 75.6641 19.7325 75.6789 18.966C75.6693 18.2001 75.7996 17.439 76.0639 16.7201C76.3037 16.0765 76.6709 15.4879 77.143 14.9889C77.6032 14.5108 78.1565 14.1324 78.7686 13.877C80.0964 13.349 81.5753 13.349 82.9024 13.877C83.513 14.1308 84.0641 14.5096 84.5198 14.9889C84.983 15.4895 85.3397 16.0783 85.5705 16.7201C85.8237 17.441 85.9459 18.2019 85.9302 18.966H85.9325ZM82.9143 18.966C82.956 18.2069 82.7638 17.4532 82.3654 16.8061C82.1845 16.5616 81.9484 16.3629 81.6774 16.2261C81.4055 16.0892 81.1062 16.0179 80.8024 16.0179C80.4978 16.0179 80.1984 16.0892 79.9266 16.2261C79.6555 16.3629 79.4195 16.5616 79.2385 16.8061C78.8334 17.4506 78.6383 18.2056 78.6808 18.966C78.6443 19.7258 78.8386 20.4789 79.2385 21.1259C79.4091 21.3838 79.6429 21.5934 79.9177 21.7346C80.1925 21.8759 80.4985 21.9439 80.8076 21.9323C81.1151 21.9445 81.4197 21.8766 81.693 21.7353C81.9663 21.5939 82.1979 21.384 82.3654 21.1259C82.7616 20.4775 82.956 19.7255 82.9232 18.966H82.9143Z" fill="white"/>
<path d="M87.4628 18.9843C87.4553 18.257 87.5774 17.5341 87.8224 16.8494C88.0525 16.1967 88.4159 15.5991 88.8888 15.0942C89.3624 14.5893 89.9351 14.1881 90.5711 13.916C91.2874 13.6141 92.0597 13.4658 92.8379 13.4804C93.3509 13.4749 93.8633 13.5244 94.3667 13.628C94.8299 13.7271 95.2834 13.8701 95.7198 14.055L95.1009 16.4199C94.8098 16.3115 94.5119 16.2224 94.2088 16.1534C93.8447 16.0676 93.4716 16.0266 93.097 16.0313C92.7299 16.0045 92.3613 16.0645 92.0209 16.2065C91.6814 16.3485 91.3798 16.5685 91.14 16.8488C90.6842 17.4734 90.4571 18.2361 90.4966 19.0086C90.4474 19.7841 90.6604 20.5535 91.1005 21.1936C91.3694 21.4779 91.7 21.6961 92.0671 21.831C92.4342 21.9661 92.8274 22.014 93.2162 21.9713C93.6034 21.9695 93.9891 21.9358 94.3712 21.8707C94.7591 21.8112 95.1382 21.7048 95.5008 21.5541L95.9179 23.9763C95.5008 24.1393 95.0682 24.2599 94.6266 24.3362C94.0644 24.4489 93.4924 24.5033 92.919 24.4984C92.0738 24.5205 91.2331 24.3754 90.4437 24.0715C89.7981 23.8167 89.2172 23.4192 88.7458 22.9088C88.2953 22.4097 87.9617 21.8156 87.7703 21.1704C87.5603 20.4602 87.4575 19.7225 87.4657 18.9818L87.4628 18.9843Z" fill="white"/>
<path d="M100.608 17.5125L101.512 16.5127C101.821 16.1528 102.121 15.8326 102.414 15.4977L103.238 14.5401C103.494 14.235 103.717 13.9715 103.9 13.747H107.422C106.717 14.5535 106.031 15.3238 105.365 16.0582C104.698 16.7926 103.966 17.5498 103.17 18.3298C103.607 18.7298 104.019 19.1577 104.401 19.6107C104.825 20.1121 105.236 20.627 105.634 21.1552C106.021 21.6666 106.381 22.1975 106.714 22.7461C107.044 23.2785 107.323 23.7647 107.548 24.1856H104.144C103.933 23.8399 103.693 23.4583 103.425 23.0407C103.155 22.6228 102.867 22.2056 102.561 21.7841C102.256 21.3626 101.939 20.9667 101.601 20.5819C101.294 20.2283 100.96 19.9009 100.6 19.6028V24.2069H97.6403V9.2625L100.601 8.78732L100.608 17.5125Z" fill="white"/>
<path d="M107.923 19.0636C107.906 18.2326 108.051 17.406 108.35 16.6304C108.604 15.9818 108.986 15.3906 109.473 14.892C109.926 14.4341 110.47 14.075 111.07 13.8374C111.661 13.6007 112.293 13.4787 112.929 13.4775C113.578 13.4442 114.227 13.5482 114.832 13.7827C115.438 14.0172 115.987 14.3769 116.444 14.8383C117.306 15.7455 117.736 17.0798 117.736 18.841C117.739 19.0307 117.733 19.2205 117.715 19.4094C117.694 19.6181 117.69 19.7944 117.675 19.9585H110.963C110.99 20.2465 111.081 20.5248 111.228 20.7737C111.377 21.0225 111.577 21.2357 111.817 21.398C112.421 21.7832 113.13 21.9706 113.845 21.9342C114.381 21.9347 114.916 21.884 115.443 21.7829C115.882 21.7122 116.312 21.5914 116.723 21.423L117.123 23.8276C116.917 23.9262 116.704 24.0079 116.486 24.0715C116.195 24.156 115.899 24.2257 115.601 24.2802C115.277 24.3375 114.93 24.3881 114.557 24.4278C114.189 24.4678 113.818 24.4882 113.446 24.4888C112.61 24.5082 111.777 24.3689 110.992 24.0782C110.34 23.8272 109.751 23.4364 109.266 22.9334C108.8 22.4445 108.45 21.8579 108.24 21.2163C108.022 20.5211 107.915 19.7958 107.924 19.0673L107.923 19.0636ZM114.877 17.9297C114.863 17.6856 114.819 17.444 114.749 17.2099C114.678 16.977 114.56 16.7611 114.403 16.5753C114.245 16.3896 114.052 16.2381 113.834 16.1302C113.564 16.0042 113.268 15.9439 112.97 15.954C112.677 15.9457 112.385 16.0035 112.117 16.1229C111.889 16.2268 111.686 16.3792 111.523 16.5695C111.364 16.7596 111.242 16.9781 111.164 17.2135C111.079 17.456 111.016 17.7055 110.976 17.959L114.877 17.9297Z" fill="white"/>
<path d="M126.102 16.3816C125.839 16.3133 125.526 16.2449 125.17 16.173C124.791 16.0976 124.406 16.0602 124.019 16.0614C123.796 16.0647 123.574 16.0816 123.353 16.112C123.155 16.1337 122.959 16.1711 122.767 16.2236V24.2106H119.806V14.3132C120.422 14.1015 121.048 13.9249 121.684 13.7843C122.476 13.6113 123.286 13.528 124.098 13.5361C124.29 13.5322 124.482 13.543 124.674 13.5684C124.889 13.6007 125.124 13.6117 125.35 13.6477C125.576 13.6837 125.8 13.7196 126.02 13.7666C126.217 13.8035 126.41 13.8601 126.596 13.9356L126.102 16.3816Z" fill="white"/>
<path d="M15.0498 17.3861V0L0 8.69281V26.0771L15.0498 17.3861Z" fill="#A7CE3A"/>
<path d="M7.52643 15.2012C8.49414 15.2012 9.27859 14.2326 9.27859 13.0377C9.27859 11.8427 8.49414 10.8741 7.52643 10.8741C6.55868 10.8741 5.7742 11.8427 5.7742 13.0377C5.7742 14.2326 6.55868 15.2012 7.52643 15.2012Z" fill="white"/>
<path d="M30.1025 26.0789V8.6946L15.0497 0V17.3844L30.1025 26.0789Z" fill="#1E97AF"/>
<path d="M30.1026 26.0789L15.0498 17.3861L0 26.0789L15.0498 34.7724L30.1026 26.0789Z" fill="#22B473"/>
<path d="M21.36 24.7724C19.6153 26.4563 17.2808 27.3899 14.8566 27.373C12.4324 27.3561 10.111 26.3902 8.38986 24.6821C7.55522 23.8891 5.73475 24.8907 6.74924 25.8593C8.97369 27.9816 11.9341 29.158 15.0078 29.1412C18.0814 29.1244 21.0288 27.9156 23.2299 25.7691C24.17 24.8767 22.152 24.0093 21.36 24.7724Z" fill="white"/>
<path d="M22.5763 15.2012C23.5441 15.2012 24.3286 14.2326 24.3286 13.0377C24.3286 11.8427 23.5441 10.8741 22.5763 10.8741C21.6086 10.8741 20.8242 11.8427 20.8242 13.0377C20.8242 14.2326 21.6086 15.2012 22.5763 15.2012Z" fill="white"/>
<path d="M28.008 15.158L27.2887 14.7547C27.1244 14.6634 26.9344 14.6295 26.7488 14.6582C26.5631 14.6869 26.3922 14.7767 26.2632 14.9134C26.2153 14.9799 26.1829 15.0562 26.1684 15.1368C26.1538 15.2174 26.1575 15.3003 26.1791 15.3793C26.2008 15.4584 26.2398 15.5315 26.2934 15.5935C26.347 15.6554 26.4138 15.7047 26.4887 15.7374L27.1905 16.1553C27.3547 16.2466 27.5447 16.2805 27.7304 16.2519C27.9161 16.2231 28.087 16.1334 28.216 15.9967C28.2673 15.9313 28.3031 15.855 28.3206 15.7738C28.3382 15.6924 28.337 15.6083 28.3173 15.5275C28.2976 15.4467 28.2598 15.3715 28.2067 15.3075C28.1537 15.2435 28.0868 15.1923 28.0111 15.158H28.008Z" fill="#22B473"/>
</g>
<defs>
<clipPath id="clip0_2249_568">
<rect width="126.596" height="35" fill="white"/>
</clipPath>
</defs>
</svg>
