<svg width="131" height="22" viewBox="0 0 131 22" fill="none" xmlns="http://www.w3.org/2000/svg">
<path d="M32.9869 8.21265C33.4206 9.05686 33.6502 10.0034 33.6502 11.0011V11.0523C33.6502 11.3848 33.6247 11.7174 33.5737 12.05L39.5435 12.3825C39.5945 11.9221 39.62 11.4616 39.62 11.0011V10.9499C39.62 9.90107 39.467 8.90336 39.2119 7.93124L32.9869 8.21265Z" fill="white"/>
<path d="M23.0883 12.5598L16.9399 12.1249C16.9655 12.5086 17.042 12.8924 17.1185 13.2761L23.7772 14.1459C23.4455 13.6598 23.2159 13.1226 23.0883 12.5598Z" fill="white"/>
<path d="M22.8844 11.0001V10.9489C22.8844 10.1558 23.0374 9.38838 23.2926 8.69766L17.0676 8.95348C16.9401 9.61862 16.889 10.2838 16.889 10.9745V11.0256C16.889 11.0512 16.889 11.0768 16.889 11.1024L22.9099 11.4349C22.8844 11.307 22.8844 11.1535 22.8844 11.0001Z" fill="white"/>
<path d="M9.46527 10.7455L15.282 11.0525V9.05707L9.46527 9.31289V10.7455Z" fill="white"/>
<path d="M9.46527 8.46783L15.282 8.13526V6.42126L9.46527 7.29106V8.46783Z" fill="white"/>
<path d="M47.0696 1.66269L41.1253 2.53248V6.57445L47.0696 6.19072V1.66269Z" fill="white"/>
<path d="M79.6229 4.22097L85.4907 3.86282V0.434814H79.6229V4.22097Z" fill="white"/>
<path d="M68.7035 6.54947L62.8357 6.83087V13.6613L68.7035 13.9683V6.54947Z" fill="white"/>
<path d="M54.8506 12.3307C54.8506 12.6377 54.8251 12.9447 54.7996 13.2261L60.7184 13.5587C60.7694 13.1238 60.7694 12.6377 60.7694 12.1517V6.93292L54.8506 7.21433V12.3307Z" fill="white"/>
<path d="M47.0696 12.1771V7.5723L41.1253 7.8537V12.305C41.1253 12.3562 41.1253 12.4329 41.1253 12.4841L47.0951 12.8166C47.0696 12.5864 47.0696 12.3817 47.0696 12.1771Z" fill="white"/>
<path d="M129.524 20.0309L123.095 19.5704L123.912 21.5658H130.162L129.524 20.0309Z" fill="white"/>
<path d="M50.9732 16.6795C49.2384 16.6795 47.9628 15.8865 47.4015 14.2748L41.2276 13.8399C41.3296 14.8376 41.5337 15.733 41.8144 16.5516L58.8564 18.8028C59.6218 17.8307 60.183 16.6284 60.4892 15.1958L54.3663 14.7609C53.754 16.0655 52.5294 16.6795 50.9732 16.6795Z" fill="white"/>
<path d="M68.7035 0.434814H62.8357V5.24425L68.7035 4.8861V0.434814Z" fill="white"/>
<path d="M79.6229 21.5651H79.725H85.4907V16.9348L79.6229 16.5255V21.5651Z" fill="white"/>
<path d="M126.948 13.9422L110.059 13.2771L108.859 16.1679L128.351 17.2423L126.948 13.9422Z" fill="white"/>
<path d="M9.46509 13.814C9.46509 13.9675 9.46509 14.1466 9.43958 14.3001L15.1543 15.6559C15.2308 15.1187 15.2818 14.5303 15.2818 13.8908V12.0233L9.46509 11.614V13.814Z" fill="white"/>
<path d="M7.04168 16.7824C5.74057 16.7824 4.77111 16.0661 3.75063 14.8126L2.42401 16.0661L11.7869 20.8755C12.2972 20.5685 12.7819 20.2104 13.1901 19.8011C14.0065 18.9824 14.5677 18.0103 14.8994 16.8335L9.2102 15.3498C8.85303 16.2963 8.08767 16.7824 7.04168 16.7824Z" fill="white"/>
<path d="M28.2164 5.29571C29.8747 5.29571 31.2778 6.012 32.2218 7.11203L38.7528 6.7283C38.2171 5.42362 37.4262 4.24684 36.4312 3.27472L18.0881 6.012C17.7565 6.65156 17.5013 7.31669 17.2972 8.00741L23.8538 7.5981C24.7723 6.21666 26.303 5.29571 28.2164 5.29571Z" fill="white"/>
<path d="M28.267 0C24.134 0 20.6389 1.9954 18.6489 5.01409L35.3593 2.32797C33.4714 0.869792 31.0223 0 28.267 0Z" fill="white"/>
<path d="M93.1444 11V10.9488C93.1444 7.87897 95.2364 5.34634 98.1702 5.34634C100.186 5.34634 101.563 6.31847 102.788 7.82781L106.717 4.78354L88.4757 5.62775C87.6083 7.21384 87.149 9.03017 87.149 11V11.0512C87.149 11.1279 87.149 11.2046 87.149 11.2814L93.1699 11.307C93.1699 11.2046 93.1444 11.1023 93.1444 11Z" fill="white"/>
<path d="M28.2672 16.7051C26.7619 16.7051 25.4863 16.1167 24.5679 15.1957L17.3225 14.1725C17.5521 14.9399 17.8583 15.6818 18.2409 16.3725L34.5431 20.2098C35.8442 19.3912 36.9412 18.3168 37.7576 17.0888L30.8184 16.0911C30.0785 16.4748 29.2366 16.7051 28.2672 16.7051Z" fill="white"/>
<path d="M9.46527 3.35117L15.282 1.48368V0.434814H9.46527V3.35117Z" fill="white"/>
<path d="M28.2164 22.0002C29.6196 22.0002 30.9717 21.77 32.1963 21.3351L19.3383 17.9838C21.3792 20.4397 24.5172 22.0002 28.2164 22.0002Z" fill="white"/>
<path d="M0 18.3675C1.4797 20.3885 3.72475 21.9234 7.42399 21.9234C8.03628 21.9234 8.62306 21.8722 9.18432 21.7699L1.32662 17.114L0 18.3675Z" fill="white"/>
<path d="M121.182 0.281647H115.544L114.778 2.09798L121.794 1.68866L121.182 0.281647Z" fill="white"/>
<path d="M118.325 7.21359L120.008 11.4858L125.927 11.537L122.764 4.04141L113.783 4.45073L110.85 11.4346L116.641 11.4602L118.325 7.21359Z" fill="white"/>
<path d="M50.8967 21.9752C53.7031 21.9752 56.0247 21.3357 57.734 19.9286L42.3247 17.7286C43.8809 20.6194 46.8914 21.9752 50.8967 21.9752Z" fill="white"/>
<path d="M106.563 21.5657H112.712L113.783 18.9307L107.865 18.5214L106.563 21.5657Z" fill="white"/>
<path d="M101.206 15.7584L105.62 15.9886L102.941 14.0699C102.405 14.7607 101.844 15.3235 101.206 15.7584Z" fill="white"/>
<path d="M98.0172 21.9995C101.997 21.9995 104.523 20.5413 106.411 18.418L88.9094 17.1901C90.8483 20.132 94.1904 21.9995 98.0172 21.9995Z" fill="white"/>
<path d="M62.8357 21.5652H69.2392L62.8357 20.6698V21.5652Z" fill="white"/>
<path d="M9.46527 6.49733L15.282 5.55079V3.09491L9.46527 4.73216V6.49733Z" fill="white"/>
<path d="M79.6229 11.2313L85.4907 11.2825V5.78235L79.6229 6.03817V11.2313Z" fill="white"/>
<path d="M54.8506 5.73031L60.7949 5.37216V0.434814H54.8506V5.73031Z" fill="white"/>
<path d="M47.0696 0.434814H41.1253V1.38135L47.0696 0.434814Z" fill="white"/>
<path d="M98.2466 0C94.828 0 91.8941 1.38143 89.9042 3.60708L105.671 2.66054C103.885 1.02328 101.487 0 98.2466 0Z" fill="white"/>
<path d="M68.7035 15.7597L62.8357 15.3503V19.3412L78.0409 21.3621V16.4504H68.7035V15.7597Z" fill="white"/>
<path d="M79.6229 14.5816L85.4907 14.8886V12.3304L79.6229 12.1001V14.5816Z" fill="white"/>
<path d="M93.3488 12.637L87.2004 12.4068C87.3025 13.3277 87.5066 14.1975 87.8127 15.0161L94.9561 15.3999C94.1907 14.7092 93.6295 13.7626 93.3488 12.637Z" fill="white"/>
<path d="M31.9664 15.2469L38.3699 16.0911C38.7781 15.3493 39.0843 14.5306 39.2884 13.712L33.242 13.2771C32.9359 14.019 32.5022 14.7097 31.9664 15.2469Z" fill="white"/>
</svg>
