<svg width="121" height="35" viewBox="0 0 121 35" fill="none" xmlns="http://www.w3.org/2000/svg">
<g clip-path="url(#clip0_2249_666)">
<path d="M13.4778 5.61584V15.1844H4.68719V5.61584H0.516541V28.4573H4.68831V19.1992H13.4767V28.4573H17.6496V5.61584H13.4778ZM31.0027 21.0746C31.0027 21.9901 30.639 22.8681 29.9916 23.5155C29.3442 24.1629 28.4662 24.5266 27.5507 24.5266C26.6351 24.5266 25.7571 24.1629 25.1097 23.5155C24.4623 22.8681 24.0986 21.9901 24.0986 21.0746V11.2904H20.1414V21.0746C20.1414 23.0377 20.9212 24.9204 22.3094 26.3085C23.6975 27.6966 25.5802 28.4765 27.5433 28.4765C29.5064 28.4765 31.3891 27.6966 32.7773 26.3085C34.1654 24.9204 34.9452 23.0377 34.9452 21.0746V11.2904H31.0027V21.0746ZM60.3248 12.2986C60.3248 10.2923 61.6514 9.65665 63.1044 9.65665C64.2764 9.65665 65.8232 10.5486 66.8359 11.6302L69.427 8.57504C68.1332 6.82504 65.5093 5.61584 63.3607 5.61584C59.067 5.61584 55.9622 8.1302 55.9622 12.2986C55.9622 20.0325 65.4144 17.5779 65.4144 21.9067C65.4144 23.2412 64.1183 24.4199 62.6348 24.4199C60.2943 24.4199 59.5356 23.2762 58.4607 22.0658L55.584 25.0567C57.4243 27.3147 59.6936 28.4618 62.4112 28.4618C66.4904 28.4618 69.7714 25.917 69.7714 21.9383C69.7714 13.3531 60.318 16.021 60.318 12.2986M118.802 24.8083C116.464 24.8083 115.799 23.7967 115.799 22.2476V15.3887H119.434V11.9136H115.799V7.32859L111.786 9.12939V23.1C111.786 26.6734 114.252 28.4742 117.632 28.4742C118.163 28.4833 118.693 28.4404 119.215 28.3478L120.194 24.7439C119.753 24.7744 119.246 24.8049 118.802 24.8049M46.0662 11.4044C44.1062 11.4044 42.7378 11.9734 41.4146 13.2707V5.75246H37.4517V19.6881C37.4517 24.9042 41.2227 28.4788 45.4611 28.4788C50.1623 28.4788 54.298 24.841 54.298 19.9433C54.298 15.1065 50.492 11.4078 46.0662 11.4078M46.0414 24.4899C45.4508 24.4899 44.8659 24.3735 44.3203 24.1475C43.7746 23.9215 43.2788 23.5902 42.8612 23.1726C42.4435 22.755 42.1123 22.2592 41.8862 21.7135C41.6602 21.1678 41.5439 20.583 41.5439 19.9924C41.5439 19.4018 41.6602 18.8169 41.8862 18.2713C42.1123 17.7256 42.4435 17.2298 42.8612 16.8122C43.2788 16.3945 43.7746 16.0632 44.3203 15.8372C44.8659 15.6112 45.4508 15.4949 46.0414 15.4949C47.2342 15.4949 48.3781 15.9687 49.2216 16.8122C50.065 17.6556 50.5389 18.7996 50.5389 19.9924C50.5389 21.1852 50.065 22.3291 49.2216 23.1726C48.3781 24.016 47.2342 24.4899 46.0414 24.4899ZM89.1049 19.7355C89.1049 14.8287 84.9783 11.2 80.268 11.2C76.0307 11.2 72.2586 14.7734 72.2586 19.9907V33.9342H76.2215V26.4058C77.5425 27.7008 78.9131 28.2721 80.8709 28.2721C85.2967 28.2721 89.1049 24.5734 89.1049 19.7355ZM85.352 19.6858C85.352 20.8787 84.8782 22.0226 84.0347 22.8661C83.1913 23.7095 82.0473 24.1833 80.8545 24.1833C79.6617 24.1833 78.5178 23.7095 77.6743 22.8661C76.8309 22.0226 76.357 20.8787 76.357 19.6858C76.357 18.493 76.8309 17.3491 77.6743 16.5056C78.5178 15.6622 79.6617 15.1883 80.8545 15.1883C82.0473 15.1883 83.1913 15.6622 84.0347 16.5056C84.8782 17.3491 85.352 18.493 85.352 19.6858Z" fill="white"/>
<path d="M101.91 11.0081V7.02603C102.437 6.78009 102.882 6.38975 103.195 5.90045C103.508 5.41115 103.676 4.84301 103.679 4.26216V4.17071C103.679 2.47716 102.306 1.10425 100.612 1.10425H100.521C99.7073 1.10425 98.9274 1.42732 98.3523 2.0024C97.7772 2.57747 97.4542 3.35743 97.4542 4.17071V4.26216C97.4568 4.84301 97.6244 5.41115 97.9375 5.90045C98.2505 6.38975 98.696 6.78009 99.2222 7.02603V11.0081C97.7098 11.2397 96.2855 11.8668 95.0934 12.8259L84.1722 4.31974C84.2501 4.03861 84.2908 3.74958 84.2953 3.45941C84.2966 2.77602 84.0953 2.10757 83.7167 1.53864C83.338 0.9697 82.7992 0.525829 82.1683 0.26317C81.5374 0.000510052 80.8428 -0.0691375 80.1723 0.0630366C79.5018 0.195211 78.8855 0.523268 78.4015 1.00571C77.9175 1.48816 77.5874 2.10332 77.4531 2.77338C77.3187 3.44343 77.3861 4.13829 77.6467 4.77005C77.9073 5.40182 78.3494 5.9421 78.9171 6.32257C79.4848 6.70303 80.1525 6.90659 80.8359 6.90748C81.4338 6.90466 82.0205 6.74505 82.5374 6.44458L93.2914 14.813C92.3253 16.2724 91.8213 17.9891 91.8451 19.7392C91.8689 21.4892 92.4193 23.1916 93.4246 24.6243L90.1538 27.8962C89.8894 27.8116 89.614 27.7667 89.3364 27.763C88.7755 27.7634 88.2272 27.9301 87.761 28.2421C87.2947 28.554 86.9314 28.9971 86.717 29.5155C86.5025 30.0338 86.4465 30.6041 86.556 31.1543C86.6656 31.7045 86.9358 32.2098 87.3324 32.6065C87.7291 33.0031 88.2344 33.2733 88.7846 33.3829C89.3348 33.4924 89.9051 33.4364 90.4234 33.2219C90.9418 33.0075 91.3849 32.6442 91.6968 32.1779C92.0088 31.7117 92.1755 31.1634 92.1759 30.6025C92.1723 30.3249 92.1274 30.0494 92.0427 29.7851L95.2785 26.5481C96.3337 27.3605 97.5608 27.9205 98.8659 28.1854C100.171 28.4502 101.519 28.4128 102.808 28.076C104.096 27.7393 105.29 27.1121 106.299 26.2425C107.307 25.3729 108.103 24.284 108.626 23.0592C109.149 21.8345 109.384 20.5063 109.314 19.1765C109.244 17.8467 108.871 16.5505 108.223 15.3873C107.575 14.224 106.669 13.2246 105.575 12.4656C104.48 11.7065 103.227 11.208 101.91 11.0081ZM100.569 24.1049C99.9711 24.1214 99.3759 24.0178 98.8186 23.8003C98.2613 23.5828 97.7532 23.2558 97.3244 22.8387C96.8956 22.4215 96.5548 21.9226 96.3221 21.3715C96.0893 20.8204 95.9694 20.2282 95.9694 19.63C95.9694 19.0317 96.0893 18.4396 96.3221 17.8885C96.5548 17.3373 96.8956 16.8385 97.3244 16.4213C97.7532 16.0041 98.2613 15.6772 98.8186 15.4597C99.3759 15.2422 99.9711 15.1386 100.569 15.1551C101.728 15.1957 102.826 15.6845 103.632 16.5186C104.438 17.3527 104.889 18.4669 104.889 19.6267C104.89 20.7864 104.44 21.9011 103.635 22.7361C102.83 23.571 101.733 24.0609 100.574 24.1026" fill="white"/>
</g>
<defs>
<clipPath id="clip0_2249_666">
<rect width="119.677" height="35" fill="white" transform="translate(0.516541)"/>
</clipPath>
</defs>
</svg>
