<svg width="130" height="35" viewBox="0 0 130 35" fill="none" xmlns="http://www.w3.org/2000/svg">
<g clip-path="url(#clip0_2249_671)">
<path d="M40.7289 16.8263C40.7289 22.5488 44.4039 26.5388 49.4964 26.5388C54.5889 26.5388 58.2639 22.5488 58.2639 16.8263C58.2639 11.1038 54.5889 7.11377 49.4964 7.11377C44.4039 7.11377 40.7289 11.1038 40.7289 16.8263ZM54.9039 16.8263C54.9039 20.9213 52.6726 23.5725 49.4964 23.5725C46.3201 23.5725 44.0889 20.9213 44.0889 16.8263C44.0889 12.7313 46.3201 10.08 49.4964 10.08C52.6726 10.08 54.9039 12.7313 54.9039 16.8263Z" fill="white"/>
<path d="M67.7259 26.5388C71.5847 26.5388 73.7897 23.2838 73.7897 19.3725C73.7897 15.4613 71.5847 12.2063 67.7259 12.2063C65.9409 12.2063 64.6284 12.915 63.7622 13.9388V12.4688H60.6122V30.975H63.7622V24.8063C64.6284 25.83 65.9409 26.5388 67.7259 26.5388ZM63.6834 18.9788C63.6834 16.38 65.1534 14.9625 67.0959 14.9625C69.3797 14.9625 70.6134 16.7475 70.6134 19.3725C70.6134 21.9975 69.3797 23.7825 67.0959 23.7825C65.1534 23.7825 63.6834 22.3388 63.6834 19.7925V18.9788Z" fill="white"/>
<path d="M82.3144 26.5388C85.0706 26.5388 87.2494 25.095 88.2206 22.68L85.5169 21.6563C85.0969 23.0738 83.8631 23.8613 82.3144 23.8613C80.2931 23.8613 78.8756 22.4175 78.6394 20.055H88.2994V19.005C88.2994 15.225 86.1731 12.2063 82.1831 12.2063C78.1931 12.2063 75.6206 15.33 75.6206 19.3725C75.6206 23.625 78.3769 26.5388 82.3144 26.5388ZM82.1569 14.8575C84.1519 14.8575 85.0969 16.17 85.1231 17.6925H78.7969C79.2694 15.8288 80.5294 14.8575 82.1569 14.8575Z" fill="white"/>
<path d="M90.663 26.25H93.813V18.165C93.813 16.1963 95.2567 15.1463 96.6742 15.1463C98.4067 15.1463 99.0892 16.38 99.0892 18.0863V26.25H102.239V17.1675C102.239 14.2013 100.507 12.2063 97.6192 12.2063C95.8342 12.2063 94.6005 13.02 93.813 13.9388V12.4688H90.663V26.25Z" fill="white"/>
<path d="M111.465 7.40247L104.325 26.25H107.659L109.26 21.945H117.397L119.025 26.25H122.411L115.271 7.40247H111.465ZM113.302 11.13L116.295 19.005H110.362L113.302 11.13Z" fill="white"/>
<path d="M127.819 7.45715H124.459V26.3047H127.819V7.45715Z" fill="white"/>
<path d="M33.0311 14.3249C33.8251 11.9416 33.5517 9.33082 32.2818 7.16301C30.3722 3.83801 26.5331 2.12738 22.7837 2.93238C21.1157 1.05332 18.7193 -0.0152722 16.207 4.02676e-05C12.3745 -0.00870973 8.97403 2.45879 7.79497 6.10535C5.33294 6.60957 3.20778 8.15067 1.96419 10.3349C0.040281 13.6511 0.478875 17.8314 3.04919 20.6752C2.25512 23.0585 2.52856 25.6693 3.79841 27.8371C5.70809 31.1621 9.54716 32.8727 13.2965 32.0677C14.9634 33.9468 17.3609 35.0154 19.8732 34.9989C23.7079 35.0088 27.1095 32.5391 28.2886 28.8893C30.7506 28.385 32.8757 26.8439 34.1193 24.6597C36.0411 21.3435 35.6014 17.1664 33.0322 14.3227L33.0311 14.3249ZM19.8754 32.7119C18.3409 32.7141 16.8545 32.1771 15.6765 31.1938C15.7301 31.1654 15.8231 31.1139 15.8832 31.0768L22.8526 27.0518C23.2092 26.8494 23.4279 26.4699 23.4257 26.0597V16.2346L26.3712 17.9354C26.4029 17.9507 26.4237 17.9813 26.4281 18.0163V26.1527C26.4237 29.7708 23.4936 32.7043 19.8754 32.7119ZM5.78356 26.693C5.01466 25.3652 4.73794 23.8088 5.00153 22.2983C5.05294 22.3289 5.14372 22.3847 5.20825 22.4219L12.1776 26.4469C12.5309 26.6536 12.9684 26.6536 13.3228 26.4469L21.8311 21.5338V24.9354C21.8333 24.9704 21.8168 25.0043 21.7895 25.0261L14.7447 29.0938C11.6067 30.9007 7.59919 29.8266 5.78466 26.693H5.78356ZM3.94934 11.48C4.71497 10.15 5.92356 9.13285 7.36294 8.60457C7.36294 8.66473 7.35966 8.77082 7.35966 8.8452V16.8963C7.35747 17.3054 7.57622 17.6849 7.93169 17.8872L16.44 22.7993L13.4945 24.5C13.465 24.5197 13.4278 24.523 13.395 24.5088L6.34903 20.4379C3.21762 18.6244 2.14356 14.618 3.94825 11.4811L3.94934 11.48ZM28.1497 17.1118L19.6414 12.1986L22.5868 10.4989C22.6164 10.4793 22.6536 10.476 22.6864 10.4902L29.7323 14.5579C32.8692 16.3702 33.9443 20.3832 32.132 23.52C31.3653 24.8479 30.1578 25.865 28.7195 26.3944V18.1027C28.7228 17.6936 28.5051 17.3152 28.1507 17.1118H28.1497ZM31.0809 12.6996C31.0295 12.6679 30.9387 12.6132 30.8742 12.576L23.9048 8.55098C23.5515 8.34426 23.114 8.34426 22.7597 8.55098L14.2514 13.4641V10.0625C14.2492 10.0275 14.2656 9.99363 14.2929 9.97176L21.3378 5.90738C24.4757 4.09723 28.4876 5.17457 30.2967 8.31363C31.0612 9.63926 31.3379 11.1913 31.0787 12.6996H31.0809ZM12.6501 18.7622L9.70356 17.0614C9.67184 17.0461 9.65106 17.0155 9.64669 16.9805V8.8441C9.64887 5.2216 12.5878 2.28598 16.2103 2.28817C17.7426 2.28817 19.2257 2.82629 20.4037 3.80629C20.3501 3.83473 20.2582 3.88613 20.197 3.92332L13.2276 7.94832C12.8711 8.15067 12.6523 8.5291 12.6545 8.93926L12.6501 18.76V18.7622ZM14.2503 15.3125L18.0401 13.1239L21.83 15.3114V19.6875L18.0401 21.875L14.2503 19.6875V15.3125Z" fill="white"/>
</g>
<defs>
<clipPath id="clip0_2249_671">
<rect width="129.062" height="35" fill="white" transform="translate(0.540161)"/>
</clipPath>
</defs>
</svg>
