<svg width="315" height="158" viewBox="0 0 315 158" fill="none" xmlns="http://www.w3.org/2000/svg">
<path opacity="0.1" d="M303.722 157.083C303.722 76.4443 238.298 11.074 157.594 11.074C76.8902 11.074 11.4667 76.4443 11.4667 157.083" stroke="white" stroke-width="22"/>
<path d="M207.946 31.7552C213.584 34.0186 219.989 31.2831 222.252 25.6453C224.516 20.0075 221.78 13.6024 216.142 11.339L207.946 31.7552ZM22.4667 157.083C22.4667 82.5279 82.9569 22.074 157.594 22.074V0.0739746C70.8235 0.0739746 0.466675 70.3608 0.466675 157.083H22.4667ZM157.594 22.074C175.413 22.074 192.4 25.514 207.946 31.7552L216.142 11.339C198.033 4.06906 178.267 0.0739746 157.594 0.0739746V22.074Z" fill="url(#paint0_linear_5008_183)"/>
<defs>
<linearGradient id="paint0_linear_5008_183" x1="20.4836" y1="114.204" x2="290.209" y2="87.7153" gradientUnits="userSpaceOnUse">
<stop stop-color="#6645EB"/>
<stop offset="1" stop-color="#D445EB"/>
</linearGradient>
</defs>
</svg>
