<svg width="27" height="28" viewBox="0 0 27 28" fill="none" xmlns="http://www.w3.org/2000/svg">
<path d="M23.7446 26.5401C20.3463 28.1145 16.7284 25.9258 16.2363 22.4889C16.152 21.9003 16.1583 21.3023 16.3039 20.7179C16.381 20.4088 16.3209 20.2151 16.0002 20.0582C14.0379 19.0979 12.0846 18.1192 10.135 17.1333C9.86526 16.9969 9.72583 17.0395 9.52392 17.2665C8.06654 18.905 6.24665 19.5143 4.13573 18.9087C2.07678 18.318 0.823202 16.8819 0.393462 14.7863C-0.0588733 12.5805 1.11429 10.257 3.14356 9.21484C5.24843 8.1339 7.72738 8.53788 9.32813 10.2819C9.6959 10.6826 9.94789 10.7176 10.4164 10.4735C12.2299 9.52902 14.064 8.62334 15.9017 7.72658C16.2548 7.5543 16.3749 7.37852 16.3046 6.97264C15.7332 3.67187 17.9643 0.797057 21.3145 0.675709C24.2536 0.569253 26.3908 2.84673 26.665 5.3503C27.0281 8.66514 24.2631 11.3313 21.2076 11.1709C19.7597 11.0949 18.5369 10.512 17.584 9.41835C17.3138 9.10826 17.1008 9.07497 16.7405 9.25857C14.8254 10.2342 12.9005 11.1905 10.9708 12.1369C10.6969 12.2712 10.6307 12.4147 10.6964 12.7037C10.8728 13.4795 10.8742 14.2638 10.6983 15.0408C10.639 15.3026 10.6874 15.452 10.9444 15.5786C12.9033 16.5436 14.8596 17.5143 16.8052 18.5058C17.1443 18.6785 17.3195 18.5955 17.5566 18.3394C19.0149 16.764 20.8032 16.1809 22.8773 16.7784C24.8951 17.3597 26.1327 18.7402 26.5956 20.7917C27.1038 23.0447 25.9911 25.2947 23.7446 26.5401ZM23.6301 8.62508C24.8612 7.58602 25.2606 5.94761 24.6333 4.51021C24.0264 3.11969 22.5768 2.26908 21.014 2.48398C19.092 2.74826 17.9396 4.22387 17.9788 6.03002C18.0083 7.39204 18.6999 8.46298 19.9726 9.05657C21.2366 9.64612 22.4453 9.48483 23.6301 8.62508ZM7.4448 16.7792C9.1219 15.6153 9.53841 13.5551 8.43025 11.9048C7.40811 10.3826 5.25075 9.9439 3.68687 10.9403C2.10415 11.9487 1.61755 14.0914 2.60784 15.6919C3.61639 17.3218 5.69146 17.8119 7.4448 16.7792ZM23.1553 24.8363C24.5195 23.9684 25.1661 22.5613 24.8537 21.1401C24.5024 19.542 23.436 18.5468 21.7207 18.3722C19.7231 18.169 17.871 19.7122 17.9859 21.9498C18.1215 24.5917 20.71 26.018 23.1553 24.8363Z" fill="url(#paint0_linear_1996_2508)"/>
<defs>
<linearGradient id="paint0_linear_1996_2508" x1="1.48459" y1="19.3106" x2="37.1728" y2="16.7562" gradientUnits="userSpaceOnUse">
<stop stop-color="#6645EB"/>
<stop offset="1" stop-color="#D445EB"/>
</linearGradient>
</defs>
</svg>
