<svg width="65" height="67" viewBox="0 0 65 67" fill="none" xmlns="http://www.w3.org/2000/svg">
<rect x="0.0136719" y="0.975098" width="64.9855" height="65.7817" rx="15" fill="white" fill-opacity="0.05"/>
<rect x="0.513672" y="1.4751" width="63.9855" height="64.7817" rx="14.5" stroke="white" stroke-opacity="0.1"/>
<mask id="mask0_1996_2504" style="mask-type:alpha" maskUnits="userSpaceOnUse" x="0" y="0" width="65" height="67">
<rect x="0.0136719" y="0.975098" width="64.9855" height="65.7817" rx="15" fill="white"/>
</mask>
<g mask="url(#mask0_1996_2504)">
<g filter="url(#filter0_f_1996_2504)">
<circle cx="32.7792" cy="65.9575" r="11.0409" fill="#6645EB"/>
</g>
<path d="M42.7446 46.5401C39.3463 48.1145 35.7284 45.9258 35.2363 42.4889C35.152 41.9003 35.1583 41.3023 35.3039 40.7179C35.381 40.4088 35.3209 40.2151 35.0002 40.0582C33.0379 39.0979 31.0846 38.1192 29.135 37.1333C28.8653 36.9969 28.7258 37.0395 28.5239 37.2665C27.0665 38.905 25.2466 39.5143 23.1357 38.9087C21.0768 38.318 19.8232 36.8819 19.3935 34.7863C18.9411 32.5805 20.1143 30.257 22.1436 29.2148C24.2484 28.1339 26.7274 28.5379 28.3281 30.2819C28.6959 30.6826 28.9479 30.7176 29.4164 30.4735C31.2299 29.529 33.064 28.6233 34.9017 27.7266C35.2548 27.5543 35.3749 27.3785 35.3046 26.9726C34.7332 23.6719 36.9643 20.7971 40.3145 20.6757C43.2536 20.5693 45.3908 22.8467 45.665 25.3503C46.0281 28.6651 43.2631 31.3313 40.2076 31.1709C38.7597 31.0949 37.5369 30.512 36.584 29.4184C36.3138 29.1083 36.1008 29.075 35.7405 29.2586C33.8254 30.2342 31.9005 31.1905 29.9708 32.1369C29.6969 32.2712 29.6307 32.4147 29.6964 32.7037C29.8728 33.4795 29.8742 34.2638 29.6983 35.0408C29.639 35.3026 29.6874 35.452 29.9444 35.5786C31.9033 36.5436 33.8596 37.5143 35.8052 38.5058C36.1443 38.6785 36.3195 38.5955 36.5566 38.3394C38.0149 36.764 39.8032 36.1809 41.8773 36.7784C43.8951 37.3597 45.1327 38.7402 45.5956 40.7917C46.1038 43.0447 44.9911 45.2947 42.7446 46.5401ZM42.6301 28.6251C43.8612 27.586 44.2606 25.9476 43.6333 24.5102C43.0264 23.1197 41.5768 22.2691 40.014 22.484C38.092 22.7483 36.9396 24.2239 36.9788 26.03C37.0083 27.392 37.6999 28.463 38.9726 29.0566C40.2366 29.6461 41.4453 29.4848 42.6301 28.6251ZM26.4448 36.7792C28.1219 35.6153 28.5384 33.5551 27.4303 31.9048C26.4081 30.3826 24.2508 29.9439 22.6869 30.9403C21.1041 31.9487 20.6175 34.0914 21.6078 35.6919C22.6164 37.3218 24.6915 37.8119 26.4448 36.7792ZM42.1553 44.8363C43.5195 43.9684 44.1661 42.5613 43.8537 41.1401C43.5024 39.542 42.436 38.5468 40.7207 38.3722C38.7231 38.169 36.871 39.7122 36.9859 41.9498C37.1215 44.5917 39.71 46.018 42.1553 44.8363Z" fill="url(#paint0_linear_1996_2504)"/>
</g>
<defs>
<filter id="filter0_f_1996_2504" x="-6.76172" y="26.4166" width="79.082" height="79.0818" filterUnits="userSpaceOnUse" color-interpolation-filters="sRGB">
<feFlood flood-opacity="0" result="BackgroundImageFix"/>
<feBlend mode="normal" in="SourceGraphic" in2="BackgroundImageFix" result="shape"/>
<feGaussianBlur stdDeviation="14.25" result="effect1_foregroundBlur_1996_2504"/>
</filter>
<linearGradient id="paint0_linear_1996_2504" x1="20.4846" y1="39.3106" x2="56.1728" y2="36.7562" gradientUnits="userSpaceOnUse">
<stop stop-color="#6645EB"/>
<stop offset="1" stop-color="#D445EB"/>
</linearGradient>
</defs>
</svg>
