<svg width="27" height="28" viewBox="0 0 27 28" fill="none" xmlns="http://www.w3.org/2000/svg">
<path d="M18.6046 26.125C14.4136 27.753 10.4139 27.44 6.57972 25.163C6.31583 25.0063 6.11286 25.0406 5.86085 25.1472C4.40208 25.7644 2.93899 26.3713 1.47655 26.9798C1.23856 27.0788 1.00004 27.1919 0.730018 27.1204C0.281375 27.0016 0.127224 26.5279 0.36019 25.9691C0.96975 24.5071 1.57481 23.0431 2.19927 21.5874C2.3406 21.258 2.33593 21.0036 2.14182 20.6813C-2.53197 12.9206 1.75466 2.90689 10.5938 0.915134C18.022 -0.758701 25.2784 4.09303 26.5851 11.6072C27.649 17.7253 24.4528 23.5611 18.6046 26.125ZM6.93106 3.94181C5.96494 4.58623 5.10602 5.34891 4.36262 6.24326C2.79816 8.12538 1.873 10.2886 1.65829 12.7173C1.41084 15.5163 2.03545 18.1223 3.64261 20.4599C3.87962 20.8046 3.90658 21.1431 3.73626 21.5286C3.38849 22.3159 3.06281 23.113 2.73321 23.9082C2.57932 24.2795 2.43749 24.6558 2.24321 25.1491C3.43286 24.6427 4.50327 24.2186 5.54429 23.7316C6.12703 23.459 6.59123 23.5168 7.1285 23.865C9.69502 25.5283 12.5171 26.1149 15.5216 25.6002C22.4688 24.41 26.8472 17.4982 25.0011 10.7043C22.8893 2.93285 13.8987 -0.464589 6.93106 3.94181Z" fill="url(#paint0_linear_1996_2531)"/>
<path d="M15.8246 10.1602C15.1324 9.11572 14.1745 8.70095 12.9986 8.90677C11.9173 9.09605 11.2446 9.8027 10.9237 10.8413C10.8688 11.019 10.8662 11.213 10.8416 11.3998C10.7802 11.8667 10.4587 12.1963 10.0886 12.1701C9.71124 12.1435 9.41669 11.7881 9.44568 11.3133C9.55613 9.50427 10.7716 7.81858 12.8981 7.49428C15.187 7.14521 17.1204 8.5306 17.5953 10.7783C18.0095 12.7385 16.7898 14.8143 14.8313 15.3795C14.324 15.5259 14.1796 15.7566 14.2104 16.2423C14.2419 16.7393 14.2171 16.7981 14.1933 17.2968C14.1722 17.7369 13.9302 18.041 13.4814 18.0139C13.0346 17.987 12.8466 17.6583 12.8483 17.2185C12.8518 16.3397 12.8418 15.9039 12.8522 15.0251C12.8585 14.4964 13.1032 14.2225 13.6431 14.2074C15.4673 14.1564 16.8681 12.1024 15.8246 10.1602Z" fill="url(#paint1_linear_1996_2531)"/>
<path d="M12.7974 19.9017C13.0396 19.4991 13.3638 19.3999 13.7496 19.5465C14.0818 19.6727 14.2074 19.9527 14.1839 20.2928C14.1595 20.6462 13.945 20.8578 13.6152 20.9466C13.0693 21.0936 12.7086 20.6555 12.7974 19.9017Z" fill="url(#paint2_linear_1996_2531)"/>
<defs>
<linearGradient id="paint0_linear_1996_2531" x1="1.42061" y1="19.3466" x2="37.2996" y2="16.7819" gradientUnits="userSpaceOnUse">
<stop stop-color="#6645EB"/>
<stop offset="1" stop-color="#D445EB"/>
</linearGradient>
<linearGradient id="paint1_linear_1996_2531" x1="1.42061" y1="19.3466" x2="37.2996" y2="16.7819" gradientUnits="userSpaceOnUse">
<stop stop-color="#6645EB"/>
<stop offset="1" stop-color="#D445EB"/>
</linearGradient>
<linearGradient id="paint2_linear_1996_2531" x1="1.42061" y1="19.3466" x2="37.2996" y2="16.7819" gradientUnits="userSpaceOnUse">
<stop stop-color="#6645EB"/>
<stop offset="1" stop-color="#D445EB"/>
</linearGradient>
</defs>
</svg>
