<svg width="65" height="67" viewBox="0 0 65 67" fill="none" xmlns="http://www.w3.org/2000/svg">
<rect x="0.0136719" y="0.975098" width="64.9855" height="65.7817" rx="15" fill="url(#paint0_linear_5066_88)"/>
<path d="M37.6046 46.125C33.4136 47.753 29.4138 47.44 25.5797 45.163C25.3158 45.0063 25.1129 45.0406 24.8608 45.1472C23.4021 45.7644 21.939 46.3713 20.4766 46.9798C20.2386 47.0788 20 47.1919 19.73 47.1204C19.2814 47.0016 19.1272 46.5279 19.3602 45.9691C19.9697 44.5071 20.5748 43.0431 21.1993 41.5874C21.3406 41.258 21.3359 41.0036 21.1418 40.6813C16.468 32.9206 20.7547 22.9069 29.5938 20.9151C37.022 19.2413 44.2784 24.093 45.5851 31.6072C46.649 37.7253 43.4528 43.5611 37.6046 46.125ZM25.9311 23.9418C24.9649 24.5862 24.106 25.3489 23.3626 26.2433C21.7982 28.1254 20.873 30.2886 20.6583 32.7173C20.4108 35.5163 21.0354 38.1223 22.6426 40.4599C22.8796 40.8046 22.9066 41.1431 22.7363 41.5286C22.3885 42.3159 22.0628 43.113 21.7332 43.9082C21.5793 44.2795 21.4375 44.6558 21.2432 45.1491C22.4329 44.6427 23.5033 44.2186 24.5443 43.7316C25.127 43.459 25.5912 43.5168 26.1285 43.865C28.695 45.5283 31.5171 46.1149 34.5216 45.6002C41.4688 44.41 45.8472 37.4982 44.0011 30.7043C41.8893 22.9328 32.8987 19.5354 25.9311 23.9418Z" fill="white"/>
<path d="M34.8246 30.1602C34.1324 29.1157 33.1745 28.7009 31.9986 28.9068C30.9173 29.096 30.2446 29.8027 29.9237 30.8413C29.8688 31.019 29.8662 31.213 29.8416 31.3998C29.7802 31.8667 29.4587 32.1963 29.0886 32.1701C28.7112 32.1435 28.4167 31.7881 28.4457 31.3133C28.5561 29.5043 29.7716 27.8186 31.8981 27.4943C34.187 27.1452 36.1204 28.5306 36.5953 30.7783C37.0095 32.7385 35.7898 34.8143 33.8313 35.3795C33.324 35.5259 33.1796 35.7566 33.2104 36.2423C33.2419 36.7393 33.2171 36.7981 33.1933 37.2968C33.1722 37.7369 32.9302 38.041 32.4814 38.0139C32.0346 37.987 31.8466 37.6583 31.8483 37.2185C31.8518 36.3397 31.8418 35.9039 31.8522 35.0251C31.8585 34.4964 32.1032 34.2225 32.6431 34.2074C34.4673 34.1564 35.8681 32.1024 34.8246 30.1602Z" fill="white"/>
<path d="M31.7974 39.9017C32.0396 39.4991 32.3638 39.4 32.7496 39.5465C33.0818 39.6727 33.2074 39.9527 33.1839 40.2928C33.1595 40.6462 32.945 40.8578 32.6152 40.9466C32.0693 41.0936 31.7086 40.6555 31.7974 39.9017Z" fill="white"/>
<defs>
<linearGradient id="paint0_linear_5066_88" x1="2.93509" y1="47.4385" x2="90.729" y2="41.2382" gradientUnits="userSpaceOnUse">
<stop stop-color="#6645EB"/>
<stop offset="1" stop-color="#D445EB"/>
</linearGradient>
</defs>
</svg>
